# MagicaVoxel @ Ephtracy

# group
o 

# material
mtllib box.mtl
usemtl palette

# normals
vn -1 0 0
vn 1 0 0
vn 0 0 1
vn 0 0 -1
vn 0 -1 0
vn 0 1 0

# texcoords
vt 0.208984 0.5
vt 0.533203 0.5

# verts
v -2.2 0 2.1
v -2.2 0 -2.1
v -2.2 0.1 2.1
v -2.2 0.1 2
v -2.2 0.1 1.8
v -2.2 0.1 -1.8
v -2.2 0.1 -2
v -2.2 0.1 -2.1
v -2.2 0.2 1.9
v -2.2 0.2 1.8
v -2.2 0.2 -1.8
v -2.2 0.2 -1.9
v -2.2 0.3 2
v -2.2 0.3 1.9
v -2.2 0.3 -1.9
v -2.2 0.3 -2
v -2.2 1.6 2
v -2.2 1.6 1.9
v -2.2 1.6 -1.9
v -2.2 1.6 -2
v -2.2 1.7 1.9
v -2.2 1.7 1.8
v -2.2 1.7 -1.8
v -2.2 1.7 -1.9
v -2.2 1.9 2.1
v -2.2 1.9 2
v -2.2 1.9 1.8
v -2.2 1.9 -1.8
v -2.2 1.9 -2
v -2.2 1.9 -2.1
v -2.2 2.1 2.1
v -2.2 2.1 -2.1
v -2.1 0.1 1.8
v -2.1 0.1 -1.8
v -2.1 0.2 1.9
v -2.1 0.2 1.8
v -2.1 0.2 -1.8
v -2.1 0.2 -1.9
v -2.1 0.3 2
v -2.1 0.3 1.9
v -2.1 0.3 -1.9
v -2.1 0.3 -2
v -2.1 1.6 2
v -2.1 1.6 1.9
v -2.1 1.6 -1.9
v -2.1 1.6 -2
v -2.1 1.7 1.9
v -2.1 1.7 1.8
v -2.1 1.7 -1.8
v -2.1 1.7 -1.9
v -2.1 1.9 1.8
v -2.1 1.9 -1.8
v -2.1 2.1 1.9
v -2.1 2.1 -1.9
v -2.1 2.3 1.9
v -2.1 2.3 -1.9
v -2 2.3 1.8
v -2 2.3 -1.8
v -2 2.5 1.8
v -2 2.5 -1.8
v -0.2 2.3 1.8
v -0.2 2.3 -1.8
v -0.2 2.5 1.8
v -0.2 2.5 -1.8
v -0.0999999 0.1 1.8
v -0.0999999 0.1 -1.8
v -0.0999999 0.2 1.9
v -0.0999999 0.2 1.8
v -0.0999999 0.2 -1.8
v -0.0999999 0.2 -1.9
v -0.0999999 0.3 2
v -0.0999999 0.3 1.9
v -0.0999999 0.3 -1.9
v -0.0999999 0.3 -2
v -0.0999999 1.4 0.0999999
v -0.0999999 1.4 -0.0999999
v -0.0999999 1.5 0.2
v -0.0999999 1.5 0.0999999
v -0.0999999 1.5 -0.0999999
v -0.0999999 1.5 -0.2
v -0.0999999 1.6 2
v -0.0999999 1.6 1.9
v -0.0999999 1.6 0.3
v -0.0999999 1.6 0.2
v -0.0999999 1.6 -0.2
v -0.0999999 1.6 -0.3
v -0.0999999 1.6 -1.9
v -0.0999999 1.6 -2
v -0.0999999 1.7 1.9
v -0.0999999 1.7 1.8
v -0.0999999 1.7 -1.8
v -0.0999999 1.7 -1.9
v -0.0999999 1.8 0.3
v -0.0999999 1.8 0.0999999
v -0.0999999 1.8 -0.0999999
v -0.0999999 1.8 -0.3
v -0.0999999 1.9 1.8
v -0.0999999 1.9 0.0999999
v -0.0999999 1.9 -0.0999999
v -0.0999999 1.9 -1.8
v -0.0999999 2.1 1.9
v -0.0999999 2.1 -1.9
v -0.0999999 2.3 1.9
v -0.0999999 2.3 -1.9
v 0 0 2.1
v 0 0 -2.1
v 0 0.1 2.1
v 0 0.1 2
v 0 0.1 1.8
v 0 0.1 -1.8
v 0 0.1 -2
v 0 0.1 -2.1
v 0 0.2 1.9
v 0 0.2 1.8
v 0 0.2 -1.8
v 0 0.2 -1.9
v 0 0.3 2
v 0 0.3 1.9
v 0 0.3 -1.9
v 0 0.3 -2
v 0 1.4 0.0999999
v 0 1.4 -0.0999999
v 0 1.5 0.2
v 0 1.5 0.0999999
v 0 1.5 -0.0999999
v 0 1.5 -0.2
v 0 1.6 2
v 0 1.6 1.9
v 0 1.6 0.3
v 0 1.6 0.2
v 0 1.6 -0.2
v 0 1.6 -0.3
v 0 1.6 -1.9
v 0 1.6 -2
v 0 1.7 1.9
v 0 1.7 1.8
v 0 1.7 -1.8
v 0 1.7 -1.9
v 0 1.8 0.3
v 0 1.8 0.0999999
v 0 1.8 -0.0999999
v 0 1.8 -0.3
v 0 1.9 2.1
v 0 1.9 2
v 0 1.9 1.8
v 0 1.9 0.0999999
v 0 1.9 -0.0999999
v 0 1.9 -1.8
v 0 1.9 -2
v 0 1.9 -2.1
v 0 2.1 2.1
v 0 2.1 -2.1
v -2.2 0 2.1
v -2.2 0.1 2.1
v -2.2 1.9 2.1
v -2.2 2.1 2.1
v 0 0 2.1
v 0 0.1 2.1
v 0 1.9 2.1
v 0 2.1 2.1
v -2.2 0.1 2
v -2.2 0.3 2
v -2.2 1.6 2
v -2.2 1.9 2
v -2.1 0.1 2
v -2.1 0.3 2
v -2.1 1.6 2
v -2.1 1.9 2
v -0.0999999 0.1 2
v -0.0999999 0.3 2
v -0.0999999 1.6 2
v -0.0999999 1.9 2
v 0 0.1 2
v 0 0.3 2
v 0 1.6 2
v 0 1.9 2
v -2.1 2.1 1.9
v -2.1 2.3 1.9
v -0.0999999 2.1 1.9
v -0.0999999 2.3 1.9
v -2 2.3 1.8
v -2 2.5 1.8
v -0.2 2.3 1.8
v -0.2 2.5 1.8
v -0.0999999 1.6 0.3
v -0.0999999 1.8 0.3
v 0 1.6 0.3
v 0 1.8 0.3
v -0.0999999 1.5 0.2
v -0.0999999 1.6 0.2
v 0 1.5 0.2
v 0 1.6 0.2
v -0.0999999 1.4 0.0999999
v -0.0999999 1.5 0.0999999
v -0.0999999 1.8 0.0999999
v -0.0999999 1.9 0.0999999
v 0 1.4 0.0999999
v 0 1.5 0.0999999
v 0 1.8 0.0999999
v 0 1.9 0.0999999
v -2.2 0.1 -1.8
v -2.2 0.2 -1.8
v -2.2 1.7 -1.8
v -2.2 1.9 -1.8
v -2.1 0.1 -1.8
v -2.1 0.2 -1.8
v -2.1 1.7 -1.8
v -2.1 1.9 -1.8
v -0.0999999 0.1 -1.8
v -0.0999999 0.2 -1.8
v -0.0999999 1.7 -1.8
v -0.0999999 1.9 -1.8
v 0 0.1 -1.8
v 0 0.2 -1.8
v 0 1.7 -1.8
v 0 1.9 -1.8
v -2.2 0.2 -1.9
v -2.2 0.3 -1.9
v -2.2 1.6 -1.9
v -2.2 1.7 -1.9
v -2.1 0.2 -1.9
v -2.1 0.3 -1.9
v -2.1 1.6 -1.9
v -2.1 1.7 -1.9
v -0.0999999 0.2 -1.9
v -0.0999999 0.3 -1.9
v -0.0999999 1.6 -1.9
v -0.0999999 1.7 -1.9
v 0 0.2 -1.9
v 0 0.3 -1.9
v 0 1.6 -1.9
v 0 1.7 -1.9
v -2.2 0.2 1.9
v -2.2 0.3 1.9
v -2.2 1.6 1.9
v -2.2 1.7 1.9
v -2.1 0.2 1.9
v -2.1 0.3 1.9
v -2.1 1.6 1.9
v -2.1 1.7 1.9
v -0.0999999 0.2 1.9
v -0.0999999 0.3 1.9
v -0.0999999 1.6 1.9
v -0.0999999 1.7 1.9
v 0 0.2 1.9
v 0 0.3 1.9
v 0 1.6 1.9
v 0 1.7 1.9
v -2.2 0.1 1.8
v -2.2 0.2 1.8
v -2.2 1.7 1.8
v -2.2 1.9 1.8
v -2.1 0.1 1.8
v -2.1 0.2 1.8
v -2.1 1.7 1.8
v -2.1 1.9 1.8
v -0.0999999 0.1 1.8
v -0.0999999 0.2 1.8
v -0.0999999 1.7 1.8
v -0.0999999 1.9 1.8
v 0 0.1 1.8
v 0 0.2 1.8
v 0 1.7 1.8
v 0 1.9 1.8
v -0.0999999 1.4 -0.0999999
v -0.0999999 1.5 -0.0999999
v -0.0999999 1.8 -0.0999999
v -0.0999999 1.9 -0.0999999
v 0 1.4 -0.0999999
v 0 1.5 -0.0999999
v 0 1.8 -0.0999999
v 0 1.9 -0.0999999
v -0.0999999 1.5 -0.2
v -0.0999999 1.6 -0.2
v 0 1.5 -0.2
v 0 1.6 -0.2
v -0.0999999 1.6 -0.3
v -0.0999999 1.8 -0.3
v 0 1.6 -0.3
v 0 1.8 -0.3
v -2 2.3 -1.8
v -2 2.5 -1.8
v -0.2 2.3 -1.8
v -0.2 2.5 -1.8
v -2.1 2.1 -1.9
v -2.1 2.3 -1.9
v -0.0999999 2.1 -1.9
v -0.0999999 2.3 -1.9
v -2.2 0.1 -2
v -2.2 0.3 -2
v -2.2 1.6 -2
v -2.2 1.9 -2
v -2.1 0.1 -2
v -2.1 0.3 -2
v -2.1 1.6 -2
v -2.1 1.9 -2
v -0.0999999 0.1 -2
v -0.0999999 0.3 -2
v -0.0999999 1.6 -2
v -0.0999999 1.9 -2
v 0 0.1 -2
v 0 0.3 -2
v 0 1.6 -2
v 0 1.9 -2
v -2.2 0 -2.1
v -2.2 0.1 -2.1
v -2.2 1.9 -2.1
v -2.2 2.1 -2.1
v 0 0 -2.1
v 0 0.1 -2.1
v 0 1.9 -2.1
v 0 2.1 -2.1
v -2.2 0 2.1
v 0 0 2.1
v -2.1 0 2
v -0.0999999 0 2
v -2.1 0 -2
v -0.0999999 0 -2
v -2.2 0 -2.1
v 0 0 -2.1
v -0.0999999 1.4 0.0999999
v 0 1.4 0.0999999
v -0.0999999 1.4 -0.0999999
v 0 1.4 -0.0999999
v -0.0999999 1.5 0.2
v 0 1.5 0.2
v -0.0999999 1.5 0.0999999
v 0 1.5 0.0999999
v -0.0999999 1.5 -0.0999999
v 0 1.5 -0.0999999
v -0.0999999 1.5 -0.2
v 0 1.5 -0.2
v -2.2 1.6 2
v -2.1 1.6 2
v -0.0999999 1.6 2
v 0 1.6 2
v -2.2 1.6 1.9
v -2.1 1.6 1.9
v -0.0999999 1.6 1.9
v 0 1.6 1.9
v -0.0999999 1.6 0.3
v 0 1.6 0.3
v -0.0999999 1.6 0.2
v 0 1.6 0.2
v -0.0999999 1.6 -0.2
v 0 1.6 -0.2
v -0.0999999 1.6 -0.3
v 0 1.6 -0.3
v -2.2 1.6 -1.9
v -2.1 1.6 -1.9
v -0.0999999 1.6 -1.9
v 0 1.6 -1.9
v -2.2 1.6 -2
v -2.1 1.6 -2
v -0.0999999 1.6 -2
v 0 1.6 -2
v -2.2 1.7 1.9
v -2.1 1.7 1.9
v -0.0999999 1.7 1.9
v 0 1.7 1.9
v -2.2 1.7 1.8
v -2.1 1.7 1.8
v -0.0999999 1.7 1.8
v 0 1.7 1.8
v -2.2 1.7 -1.8
v -2.1 1.7 -1.8
v -0.0999999 1.7 -1.8
v 0 1.7 -1.8
v -2.2 1.7 -1.9
v -2.1 1.7 -1.9
v -0.0999999 1.7 -1.9
v 0 1.7 -1.9
v -2.2 1.9 2.1
v 0 1.9 2.1
v -2.2 1.9 2
v -2.1 1.9 2
v -0.0999999 1.9 2
v 0 1.9 2
v -2.2 1.9 1.8
v -2.1 1.9 1.8
v -0.0999999 1.9 1.8
v 0 1.9 1.8
v -0.0999999 1.9 0.0999999
v 0 1.9 0.0999999
v -0.0999999 1.9 -0.0999999
v 0 1.9 -0.0999999
v -2.2 1.9 -1.8
v -2.1 1.9 -1.8
v -0.0999999 1.9 -1.8
v 0 1.9 -1.8
v -2.2 1.9 -2
v -2.1 1.9 -2
v -0.0999999 1.9 -2
v 0 1.9 -2
v -2.2 1.9 -2.1
v 0 1.9 -2.1
v -2.2 0.1 2.1
v 0 0.1 2.1
v -2.2 0.1 2
v -2.1 0.1 2
v -0.0999999 0.1 2
v 0 0.1 2
v -2.2 0.1 1.8
v -2.1 0.1 1.8
v -0.0999999 0.1 1.8
v 0 0.1 1.8
v -2.2 0.1 -1.8
v -2.1 0.1 -1.8
v -0.0999999 0.1 -1.8
v 0 0.1 -1.8
v -2.2 0.1 -2
v -2.1 0.1 -2
v -0.0999999 0.1 -2
v 0 0.1 -2
v -2.2 0.1 -2.1
v 0 0.1 -2.1
v -2.2 0.2 1.9
v -2.1 0.2 1.9
v -0.0999999 0.2 1.9
v 0 0.2 1.9
v -2.2 0.2 1.8
v -2.1 0.2 1.8
v -0.0999999 0.2 1.8
v 0 0.2 1.8
v -2.2 0.2 -1.8
v -2.1 0.2 -1.8
v -0.0999999 0.2 -1.8
v 0 0.2 -1.8
v -2.2 0.2 -1.9
v -2.1 0.2 -1.9
v -0.0999999 0.2 -1.9
v 0 0.2 -1.9
v -2.2 0.3 2
v -2.1 0.3 2
v -0.0999999 0.3 2
v 0 0.3 2
v -2.2 0.3 1.9
v -2.1 0.3 1.9
v -0.0999999 0.3 1.9
v 0 0.3 1.9
v -2.2 0.3 -1.9
v -2.1 0.3 -1.9
v -0.0999999 0.3 -1.9
v 0 0.3 -1.9
v -2.2 0.3 -2
v -2.1 0.3 -2
v -0.0999999 0.3 -2
v 0 0.3 -2
v -0.0999999 1.8 0.3
v 0 1.8 0.3
v -0.0999999 1.8 0.0999999
v 0 1.8 0.0999999
v -0.0999999 1.8 -0.0999999
v 0 1.8 -0.0999999
v -0.0999999 1.8 -0.3
v 0 1.8 -0.3
v -2.2 2.1 2.1
v 0 2.1 2.1
v -2.1 2.1 1.9
v -0.0999999 2.1 1.9
v -2.1 2.1 -1.9
v -0.0999999 2.1 -1.9
v -2.2 2.1 -2.1
v 0 2.1 -2.1
v -2.1 2.3 1.9
v -0.0999999 2.3 1.9
v -2 2.3 1.8
v -0.2 2.3 1.8
v -2 2.3 -1.8
v -0.2 2.3 -1.8
v -2.1 2.3 -1.9
v -0.0999999 2.3 -1.9
v -2 2.5 1.8
v -0.2 2.5 1.8
v -2 2.5 -1.8
v -0.2 2.5 -1.8

# faces
f 3/1/1 2/1/1 1/1/1
f 4/1/1 2/1/1 3/1/1
f 5/1/1 2/1/1 4/1/1
f 6/1/1 2/1/1 5/1/1
f 7/1/1 2/1/1 6/1/1
f 8/1/1 2/1/1 7/1/1
f 9/1/1 5/1/1 4/1/1
f 10/1/1 5/1/1 9/1/1
f 11/1/1 7/1/1 6/1/1
f 12/1/1 7/1/1 11/1/1
f 13/1/1 9/1/1 4/1/1
f 14/1/1 9/1/1 13/1/1
f 15/1/1 7/1/1 12/1/1
f 16/1/1 7/1/1 15/1/1
f 21/1/1 18/1/1 17/1/1
f 24/1/1 20/1/1 19/1/1
f 26/1/1 22/1/1 21/1/1
f 26/1/1 21/1/1 17/1/1
f 27/1/1 22/1/1 26/1/1
f 28/1/1 24/1/1 23/1/1
f 29/1/1 20/1/1 24/1/1
f 29/1/1 24/1/1 28/1/1
f 31/1/1 29/1/1 28/1/1
f 31/1/1 30/1/1 29/1/1
f 31/1/1 27/1/1 26/1/1
f 31/1/1 26/1/1 25/1/1
f 31/1/1 28/1/1 27/1/1
f 32/1/1 30/1/1 31/1/1
f 36/2/1 34/2/1 33/2/1
f 37/2/1 34/2/1 36/2/1
f 40/2/1 36/2/1 35/2/1
f 40/2/1 38/2/1 37/2/1
f 40/2/1 37/2/1 36/2/1
f 41/2/1 38/2/1 40/2/1
f 43/2/1 40/2/1 39/2/1
f 43/2/1 42/2/1 41/2/1
f 43/2/1 41/2/1 40/2/1
f 44/2/1 42/2/1 43/2/1
f 45/2/1 42/2/1 44/2/1
f 46/2/1 42/2/1 45/2/1
f 47/2/1 45/2/1 44/2/1
f 48/2/1 45/2/1 47/2/1
f 49/2/1 45/2/1 48/2/1
f 50/2/1 45/2/1 49/2/1
f 51/2/1 49/2/1 48/2/1
f 52/2/1 49/2/1 51/2/1
f 55/2/1 54/2/1 53/2/1
f 56/2/1 54/2/1 55/2/1
f 59/2/1 58/2/1 57/2/1
f 60/2/1 58/2/1 59/2/1
f 61/2/2 62/2/2 63/2/2
f 63/2/2 62/2/2 64/2/2
f 65/2/2 66/2/2 68/2/2
f 68/2/2 66/2/2 69/2/2
f 67/2/2 68/2/2 72/2/2
f 69/2/2 70/2/2 72/2/2
f 68/2/2 69/2/2 72/2/2
f 72/2/2 70/2/2 73/2/2
f 71/2/2 72/2/2 75/2/2
f 73/2/2 74/2/2 75/2/2
f 72/2/2 73/2/2 75/2/2
f 75/2/2 74/2/2 76/2/2
f 71/2/2 75/2/2 77/2/2
f 77/2/2 75/2/2 78/2/2
f 76/2/2 74/2/2 79/2/2
f 79/2/2 74/2/2 80/2/2
f 71/2/2 77/2/2 81/2/2
f 81/2/2 77/2/2 82/2/2
f 82/2/2 77/2/2 83/2/2
f 83/2/2 77/2/2 84/2/2
f 80/2/2 74/2/2 85/2/2
f 85/2/2 74/2/2 86/2/2
f 86/2/2 74/2/2 87/2/2
f 87/2/2 74/2/2 88/2/2
f 82/2/2 83/2/2 89/2/2
f 89/2/2 83/2/2 90/2/2
f 86/2/2 87/2/2 91/2/2
f 91/2/2 87/2/2 92/2/2
f 90/2/2 83/2/2 93/2/2
f 86/2/2 91/2/2 96/2/2
f 93/2/2 94/2/2 97/2/2
f 90/2/2 93/2/2 97/2/2
f 97/2/2 94/2/2 98/2/2
f 95/2/2 96/2/2 99/2/2
f 96/2/2 91/2/2 100/2/2
f 99/2/2 96/2/2 100/2/2
f 101/2/2 102/2/2 103/2/2
f 103/2/2 102/2/2 104/2/2
f 105/1/2 106/1/2 107/1/2
f 107/1/2 106/1/2 108/1/2
f 108/1/2 106/1/2 109/1/2
f 109/1/2 106/1/2 110/1/2
f 110/1/2 106/1/2 111/1/2
f 111/1/2 106/1/2 112/1/2
f 108/1/2 109/1/2 113/1/2
f 113/1/2 109/1/2 114/1/2
f 110/1/2 111/1/2 115/1/2
f 115/1/2 111/1/2 116/1/2
f 108/1/2 113/1/2 117/1/2
f 117/1/2 113/1/2 118/1/2
f 116/1/2 111/1/2 119/1/2
f 119/1/2 111/1/2 120/1/2
f 121/1/2 122/1/2 124/1/2
f 124/1/2 122/1/2 125/1/2
f 123/1/2 124/1/2 130/1/2
f 124/1/2 125/1/2 130/1/2
f 125/1/2 126/1/2 130/1/2
f 130/1/2 126/1/2 131/1/2
f 127/1/2 128/1/2 135/1/2
f 133/1/2 134/1/2 138/1/2
f 129/1/2 130/1/2 139/1/2
f 130/1/2 131/1/2 139/1/2
f 131/1/2 132/1/2 139/1/2
f 139/1/2 132/1/2 140/1/2
f 140/1/2 132/1/2 141/1/2
f 141/1/2 132/1/2 142/1/2
f 135/1/2 136/1/2 144/1/2
f 127/1/2 135/1/2 144/1/2
f 144/1/2 136/1/2 145/1/2
f 140/1/2 141/1/2 146/1/2
f 146/1/2 141/1/2 147/1/2
f 137/1/2 138/1/2 148/1/2
f 138/1/2 134/1/2 149/1/2
f 148/1/2 138/1/2 149/1/2
f 148/1/2 149/1/2 151/1/2
f 149/1/2 150/1/2 151/1/2
f 144/1/2 145/1/2 151/1/2
f 146/1/2 147/1/2 151/1/2
f 143/1/2 144/1/2 151/1/2
f 147/1/2 148/1/2 151/1/2
f 145/1/2 146/1/2 151/1/2
f 151/1/2 150/1/2 152/1/2
f 157/1/3 154/1/3 153/1/3
f 158/1/3 154/1/3 157/1/3
f 159/1/3 156/1/3 155/1/3
f 160/1/3 156/1/3 159/1/3
f 165/1/3 162/1/3 161/1/3
f 166/1/3 162/1/3 165/1/3
f 167/1/3 164/1/3 163/1/3
f 168/1/3 164/1/3 167/1/3
f 169/2/3 166/2/3 165/2/3
f 169/2/3 167/2/3 166/2/3
f 169/2/3 168/2/3 167/2/3
f 170/2/3 168/2/3 169/2/3
f 171/2/3 168/2/3 170/2/3
f 172/2/3 168/2/3 171/2/3
f 173/1/3 170/1/3 169/1/3
f 174/1/3 170/1/3 173/1/3
f 175/1/3 172/1/3 171/1/3
f 176/1/3 172/1/3 175/1/3
f 179/2/3 178/2/3 177/2/3
f 180/2/3 178/2/3 179/2/3
f 183/2/3 182/2/3 181/2/3
f 184/2/3 182/2/3 183/2/3
f 187/1/3 186/1/3 185/1/3
f 188/1/3 186/1/3 187/1/3
f 191/1/3 190/1/3 189/1/3
f 192/1/3 190/1/3 191/1/3
f 197/1/3 194/1/3 193/1/3
f 198/1/3 194/1/3 197/1/3
f 199/1/3 196/1/3 195/1/3
f 200/1/3 196/1/3 199/1/3
f 205/1/3 202/1/3 201/1/3
f 206/1/3 202/1/3 205/1/3
f 207/1/3 204/1/3 203/1/3
f 208/1/3 204/1/3 207/1/3
f 213/1/3 210/1/3 209/1/3
f 214/1/3 210/1/3 213/1/3
f 215/1/3 212/1/3 211/1/3
f 216/1/3 212/1/3 215/1/3
f 221/1/3 218/1/3 217/1/3
f 222/1/3 218/1/3 221/1/3
f 223/1/3 220/1/3 219/1/3
f 224/1/3 220/1/3 223/1/3
f 229/1/3 226/1/3 225/1/3
f 230/1/3 226/1/3 229/1/3
f 231/1/3 228/1/3 227/1/3
f 232/1/3 228/1/3 231/1/3
f 233/1/4 234/1/4 237/1/4
f 237/1/4 234/1/4 238/1/4
f 235/1/4 236/1/4 239/1/4
f 239/1/4 236/1/4 240/1/4
f 241/1/4 242/1/4 245/1/4
f 245/1/4 242/1/4 246/1/4
f 243/1/4 244/1/4 247/1/4
f 247/1/4 244/1/4 248/1/4
f 249/1/4 250/1/4 253/1/4
f 253/1/4 250/1/4 254/1/4
f 251/1/4 252/1/4 255/1/4
f 255/1/4 252/1/4 256/1/4
f 257/1/4 258/1/4 261/1/4
f 261/1/4 258/1/4 262/1/4
f 259/1/4 260/1/4 263/1/4
f 263/1/4 260/1/4 264/1/4
f 265/1/4 266/1/4 269/1/4
f 269/1/4 266/1/4 270/1/4
f 267/1/4 268/1/4 271/1/4
f 271/1/4 268/1/4 272/1/4
f 273/1/4 274/1/4 275/1/4
f 275/1/4 274/1/4 276/1/4
f 277/1/4 278/1/4 279/1/4
f 279/1/4 278/1/4 280/1/4
f 281/2/4 282/2/4 283/2/4
f 283/2/4 282/2/4 284/2/4
f 285/2/4 286/2/4 287/2/4
f 287/2/4 286/2/4 288/2/4
f 289/1/4 290/1/4 293/1/4
f 293/1/4 290/1/4 294/1/4
f 291/1/4 292/1/4 295/1/4
f 295/1/4 292/1/4 296/1/4
f 293/2/4 294/2/4 297/2/4
f 294/2/4 295/2/4 297/2/4
f 295/2/4 296/2/4 297/2/4
f 297/2/4 296/2/4 298/2/4
f 298/2/4 296/2/4 299/2/4
f 299/2/4 296/2/4 300/2/4
f 297/1/4 298/1/4 301/1/4
f 301/1/4 298/1/4 302/1/4
f 299/1/4 300/1/4 303/1/4
f 303/1/4 300/1/4 304/1/4
f 305/1/4 306/1/4 309/1/4
f 309/1/4 306/1/4 310/1/4
f 307/1/4 308/1/4 311/1/4
f 311/1/4 308/1/4 312/1/4
f 315/1/5 314/1/5 313/1/5
f 316/1/5 314/1/5 315/1/5
f 317/1/5 315/1/5 313/1/5
f 317/2/5 316/2/5 315/2/5
f 318/1/5 314/1/5 316/1/5
f 318/2/5 316/2/5 317/2/5
f 319/1/5 317/1/5 313/1/5
f 319/1/5 318/1/5 317/1/5
f 320/1/5 314/1/5 318/1/5
f 320/1/5 318/1/5 319/1/5
f 323/1/5 322/1/5 321/1/5
f 324/1/5 322/1/5 323/1/5
f 327/1/5 326/1/5 325/1/5
f 328/1/5 326/1/5 327/1/5
f 331/1/5 330/1/5 329/1/5
f 332/1/5 330/1/5 331/1/5
f 337/1/5 334/1/5 333/1/5
f 338/1/5 334/1/5 337/1/5
f 339/1/5 336/1/5 335/1/5
f 340/1/5 336/1/5 339/1/5
f 343/1/5 342/1/5 341/1/5
f 344/1/5 342/1/5 343/1/5
f 347/1/5 346/1/5 345/1/5
f 348/1/5 346/1/5 347/1/5
f 353/1/5 350/1/5 349/1/5
f 354/1/5 350/1/5 353/1/5
f 355/1/5 352/1/5 351/1/5
f 356/1/5 352/1/5 355/1/5
f 361/1/5 358/1/5 357/1/5
f 362/1/5 358/1/5 361/1/5
f 363/1/5 360/1/5 359/1/5
f 364/1/5 360/1/5 363/1/5
f 369/1/5 366/1/5 365/1/5
f 370/1/5 366/1/5 369/1/5
f 371/1/5 368/1/5 367/1/5
f 372/1/5 368/1/5 371/1/5
f 375/1/5 374/1/5 373/1/5
f 376/1/5 374/1/5 375/1/5
f 377/1/5 374/1/5 376/1/5
f 378/1/5 374/1/5 377/1/5
f 383/1/5 382/1/5 381/1/5
f 384/1/5 382/1/5 383/1/5
f 387/1/5 380/1/5 379/1/5
f 388/1/5 380/1/5 387/1/5
f 389/1/5 386/1/5 385/1/5
f 390/1/5 386/1/5 389/1/5
f 395/1/5 392/1/5 391/1/5
f 395/1/5 394/1/5 393/1/5
f 395/1/5 393/1/5 392/1/5
f 396/1/5 394/1/5 395/1/5
f 397/1/6 398/1/6 399/1/6
f 399/1/6 398/1/6 400/1/6
f 400/1/6 398/1/6 401/1/6
f 401/1/6 398/1/6 402/1/6
f 403/1/6 404/1/6 407/1/6
f 407/1/6 404/1/6 408/1/6
f 405/1/6 406/1/6 409/1/6
f 409/1/6 406/1/6 410/1/6
f 411/1/6 412/1/6 415/1/6
f 413/1/6 414/1/6 415/1/6
f 412/1/6 413/1/6 415/1/6
f 415/1/6 414/1/6 416/1/6
f 417/1/6 418/1/6 421/1/6
f 421/1/6 418/1/6 422/1/6
f 419/1/6 420/1/6 423/1/6
f 423/1/6 420/1/6 424/1/6
f 425/1/6 426/1/6 429/1/6
f 429/1/6 426/1/6 430/1/6
f 427/1/6 428/1/6 431/1/6
f 431/1/6 428/1/6 432/1/6
f 433/1/6 434/1/6 437/1/6
f 437/1/6 434/1/6 438/1/6
f 435/1/6 436/1/6 439/1/6
f 439/1/6 436/1/6 440/1/6
f 441/1/6 442/1/6 445/1/6
f 445/1/6 442/1/6 446/1/6
f 443/1/6 444/1/6 447/1/6
f 447/1/6 444/1/6 448/1/6
f 449/1/6 450/1/6 451/1/6
f 451/1/6 450/1/6 452/1/6
f 453/1/6 454/1/6 455/1/6
f 455/1/6 454/1/6 456/1/6
f 457/1/6 458/1/6 459/1/6
f 459/1/6 458/1/6 460/1/6
f 457/1/6 459/1/6 461/1/6
f 460/1/6 458/1/6 462/1/6
f 457/1/6 461/1/6 463/1/6
f 461/1/6 462/1/6 463/1/6
f 462/1/6 458/1/6 464/1/6
f 463/1/6 462/1/6 464/1/6
f 465/2/6 466/2/6 467/2/6
f 467/2/6 466/2/6 468/2/6
f 465/2/6 467/2/6 469/2/6
f 468/2/6 466/2/6 470/2/6
f 465/2/6 469/2/6 471/2/6
f 469/2/6 470/2/6 471/2/6
f 470/2/6 466/2/6 472/2/6
f 471/2/6 470/2/6 472/2/6
f 473/2/6 474/2/6 475/2/6
f 475/2/6 474/2/6 476/2/6
