# MagicaVoxel @ Ephtracy

# group
o 

# material
mtllib mushroom.mtl
usemtl palette

# normals
vn -1 0 0
vn 1 0 0
vn 0 0 1
vn 0 0 -1
vn 0 -1 0
vn 0 1 0

# texcoords
vt 0.0371094 0.5
vt 0.201172 0.5
vt 0.736328 0.5
vt 0.775391 0.5
vt 0.958984 0.5

# verts
v -0.9 1 0.8
v -0.9 1 0.7
v -0.9 1 0.5
v -0.9 1 -0.2
v -0.9 1 -0.3
v -0.9 1 -0.8
v -0.9 1.1 0.8
v -0.9 1.1 0.7
v -0.9 1.1 0.5
v -0.9 1.1 -0.1
v -0.9 1.1 -0.2
v -0.9 1.1 -0.3
v -0.9 1.1 -0.7
v -0.9 1.1 -0.8
v -0.9 1.2 0.7
v -0.9 1.2 -0.1
v -0.9 1.2 -0.2
v -0.9 1.2 -0.7
v -0.8 1 0.9
v -0.8 1 0.8
v -0.8 1 -0.8
v -0.8 1 -0.9
v -0.8 1.1 0.9
v -0.8 1.1 0.8
v -0.8 1.1 0.7
v -0.8 1.1 -0.7
v -0.8 1.1 -0.8
v -0.8 1.1 -0.9
v -0.8 1.2 0.7
v -0.8 1.2 0.3
v -0.8 1.2 0.2
v -0.8 1.2 -0.1
v -0.8 1.2 -0.2
v -0.8 1.2 -0.7
v -0.8 1.3 0.8
v -0.8 1.3 0.7
v -0.8 1.3 0.3
v -0.8 1.3 0.2
v -0.8 1.3 0.1
v -0.8 1.3 -0.7
v -0.8 1.3 -0.8
v -0.8 1.4 0.7
v -0.8 1.4 0.2
v -0.8 1.4 0.1
v -0.8 1.4 -0.7
v -0.7 1.1 0.9
v -0.7 1.1 0.8
v -0.7 1.1 -0.8
v -0.7 1.1 -0.9
v -0.7 1.2 0.9
v -0.7 1.2 0.8
v -0.7 1.2 -0.8
v -0.7 1.2 -0.9
v -0.7 1.3 0.8
v -0.7 1.3 0.7
v -0.7 1.3 -0.7
v -0.7 1.3 -0.8
v -0.7 1.4 0.8
v -0.7 1.4 0.7
v -0.7 1.4 0.6
v -0.7 1.4 0.5
v -0.7 1.4 0.2
v -0.7 1.4 0.1
v -0.7 1.4 -0.5
v -0.7 1.4 -0.6
v -0.7 1.4 -0.7
v -0.7 1.4 -0.8
v -0.7 1.5 0.7
v -0.7 1.5 0.6
v -0.7 1.5 0.5
v -0.7 1.5 -0.3
v -0.7 1.5 -0.4
v -0.7 1.5 -0.5
v -0.7 1.5 -0.6
v -0.7 1.5 -0.7
v -0.7 1.6 0.6
v -0.7 1.6 -0.3
v -0.7 1.6 -0.4
v -0.7 1.6 -0.6
v -0.6 1.5 0.7
v -0.6 1.5 0.6
v -0.6 1.5 -0.6
v -0.6 1.5 -0.7
v -0.6 1.6 0.7
v -0.6 1.6 0.6
v -0.6 1.6 -0.1
v -0.6 1.6 -0.2
v -0.6 1.6 -0.3
v -0.6 1.6 -0.4
v -0.6 1.6 -0.6
v -0.6 1.6 -0.7
v -0.6 1.7 0.6
v -0.6 1.7 0.5
v -0.6 1.7 0.3
v -0.6 1.7 0.2
v -0.6 1.7 -0.5
v -0.6 1.7 -0.6
v -0.6 1.8 0.5
v -0.6 1.8 0.3
v -0.6 1.8 0.2
v -0.6 1.8 -0.1
v -0.6 1.8 -0.2
v -0.6 1.8 -0.5
v -0.5 0.9 0.5
v -0.5 0.9 -0.5
v -0.5 1 0.5
v -0.5 1 -0.5
v -0.5 1.7 0.6
v -0.5 1.7 0.5
v -0.5 1.7 -0.5
v -0.5 1.7 -0.6
v -0.5 1.8 0.6
v -0.5 1.8 0.5
v -0.5 1.8 0.4
v -0.5 1.8 0.3
v -0.5 1.8 0.2
v -0.5 1.8 0.1
v -0.5 1.8 -0.1
v -0.5 1.8 -0.2
v -0.5 1.8 -0.4
v -0.5 1.8 -0.5
v -0.5 1.8 -0.6
v -0.5 1.9 0.4
v -0.5 1.9 0.2
v -0.5 1.9 0.1
v -0.5 1.9 -0.4
v -0.4 0.2 0.4
v -0.4 0.2 0.3
v -0.4 0.2 0.2
v -0.4 0.2 0.1
v -0.4 0.2 0
v -0.4 0.2 -0.1
v -0.4 0.2 -0.3
v -0.4 0.2 -0.4
v -0.4 0.3 0.3
v -0.4 0.3 0.2
v -0.4 0.4 -0.1
v -0.4 0.4 -0.2
v -0.4 0.5 0.1
v -0.4 0.5 0
v -0.4 0.5 -0.2
v -0.4 0.5 -0.3
v -0.4 0.9 0.4
v -0.4 0.9 -0.4
v -0.4 1.8 0.5
v -0.4 1.8 0.4
v -0.4 1.8 -0.4
v -0.4 1.8 -0.5
v -0.4 1.9 0.5
v -0.4 1.9 0.4
v -0.4 1.9 0.3
v -0.4 1.9 0.2
v -0.4 1.9 0.1
v -0.4 1.9 0
v -0.4 1.9 -0.1
v -0.4 1.9 -0.3
v -0.4 1.9 -0.4
v -0.4 1.9 -0.5
v -0.4 2 0.3
v -0.4 2 0
v -0.4 2 -0.1
v -0.4 2 -0.3
v -0.3 0 0.3
v -0.3 0 0.1
v -0.3 0 -0.3
v -0.3 0.1 0.3
v -0.3 0.1 0.1
v -0.3 0.1 0
v -0.3 0.1 -0.3
v -0.3 0.2 0.3
v -0.3 0.2 0.2
v -0.3 0.2 0.1
v -0.3 0.2 0
v -0.3 0.2 -0.1
v -0.3 0.2 -0.3
v -0.3 1.9 0.4
v -0.3 1.9 0.3
v -0.3 1.9 -0.3
v -0.3 1.9 -0.4
v -0.3 2 0.4
v -0.3 2 0.3
v -0.3 2 -0.3
v -0.3 2 -0.4
v 0.3 0 0.3
v 0.3 0 0.1
v 0.3 0 -0.2
v 0.3 0 -0.3
v 0.3 0.1 0.3
v 0.3 0.1 0.2
v 0.3 0.1 0.1
v 0.3 0.1 -0.2
v 0.3 0.2 0.3
v 0.3 0.2 0.2
v 0.3 0.2 0.1
v 0.3 0.2 -0.1
v 0.3 0.2 -0.3
v 0.3 1.9 0.4
v 0.3 1.9 0.3
v 0.3 1.9 -0.3
v 0.3 1.9 -0.4
v 0.3 2 0.4
v 0.3 2 0.3
v 0.3 2 -0.3
v 0.3 2 -0.4
v 0.4 0.2 0.4
v 0.4 0.2 0.1
v 0.4 0.2 -0.1
v 0.4 0.2 -0.4
v 0.4 0.7 0
v 0.4 0.7 -0.1
v 0.4 0.8 0.4
v 0.4 0.8 0.3
v 0.4 0.8 0.1
v 0.4 0.8 0
v 0.4 0.9 0.4
v 0.4 0.9 0.3
v 0.4 0.9 -0.4
v 0.4 1.8 0.5
v 0.4 1.8 0.4
v 0.4 1.8 -0.4
v 0.4 1.8 -0.5
v 0.4 1.9 0.5
v 0.4 1.9 0.4
v 0.4 1.9 0.3
v 0.4 1.9 0.2
v 0.4 1.9 0.1
v 0.4 1.9 0
v 0.4 1.9 -0.2
v 0.4 1.9 -0.3
v 0.4 1.9 -0.4
v 0.4 1.9 -0.5
v 0.4 2 0.3
v 0.4 2 0.1
v 0.4 2 0
v 0.4 2 -0.3
v 0.5 0.9 0.5
v 0.5 0.9 -0.5
v 0.5 1 0.5
v 0.5 1 -0.5
v 0.5 1.7 0.6
v 0.5 1.7 0.5
v 0.5 1.7 -0.5
v 0.5 1.7 -0.6
v 0.5 1.8 0.6
v 0.5 1.8 0.5
v 0.5 1.8 0.4
v 0.5 1.8 0.3
v 0.5 1.8 0.2
v 0.5 1.8 0.1
v 0.5 1.8 -0.2
v 0.5 1.8 -0.3
v 0.5 1.8 -0.4
v 0.5 1.8 -0.5
v 0.5 1.8 -0.6
v 0.5 1.9 0.4
v 0.5 1.9 0.2
v 0.5 1.9 0.1
v 0.5 1.9 -0.2
v 0.5 1.9 -0.3
v 0.5 1.9 -0.4
v 0.6 1.5 0.7
v 0.6 1.5 0.6
v 0.6 1.5 -0.6
v 0.6 1.5 -0.7
v 0.6 1.6 0.7
v 0.6 1.6 0.6
v 0.6 1.6 0.4
v 0.6 1.6 0.3
v 0.6 1.6 0.1
v 0.6 1.6 0
v 0.6 1.6 -0.1
v 0.6 1.6 -0.4
v 0.6 1.6 -0.5
v 0.6 1.6 -0.6
v 0.6 1.6 -0.7
v 0.6 1.7 0.6
v 0.6 1.7 0.5
v 0.6 1.7 0
v 0.6 1.7 -0.1
v 0.6 1.7 -0.5
v 0.6 1.7 -0.6
v 0.6 1.8 0.5
v 0.6 1.8 0.4
v 0.6 1.8 0.3
v 0.6 1.8 -0.5
v 0.7 1.1 0.9
v 0.7 1.1 0.8
v 0.7 1.1 -0.8
v 0.7 1.1 -0.9
v 0.7 1.2 0.9
v 0.7 1.2 0.8
v 0.7 1.2 -0.8
v 0.7 1.2 -0.9
v 0.7 1.3 0.8
v 0.7 1.3 0.7
v 0.7 1.3 -0.7
v 0.7 1.3 -0.8
v 0.7 1.4 0.8
v 0.7 1.4 0.7
v 0.7 1.4 0.5
v 0.7 1.4 0.4
v 0.7 1.4 -0.1
v 0.7 1.4 -0.2
v 0.7 1.4 -0.4
v 0.7 1.4 -0.5
v 0.7 1.4 -0.7
v 0.7 1.4 -0.8
v 0.7 1.5 0.7
v 0.7 1.5 0.6
v 0.7 1.5 0.1
v 0.7 1.5 0
v 0.7 1.5 -0.1
v 0.7 1.5 -0.2
v 0.7 1.5 -0.6
v 0.7 1.5 -0.7
v 0.7 1.6 0.6
v 0.7 1.6 0.1
v 0.7 1.6 0
v 0.7 1.6 -0.4
v 0.7 1.6 -0.5
v 0.7 1.6 -0.6
v 0.8 1 0.9
v 0.8 1 0.8
v 0.8 1 -0.8
v 0.8 1 -0.9
v 0.8 1.1 0.9
v 0.8 1.1 0.8
v 0.8 1.1 0.7
v 0.8 1.1 -0.7
v 0.8 1.1 -0.8
v 0.8 1.1 -0.9
v 0.8 1.2 0.7
v 0.8 1.2 0.4
v 0.8 1.2 0.3
v 0.8 1.2 0.1
v 0.8 1.2 0
v 0.8 1.2 -0.7
v 0.8 1.3 0.8
v 0.8 1.3 0.7
v 0.8 1.3 0.5
v 0.8 1.3 0.4
v 0.8 1.3 0.3
v 0.8 1.3 -0.1
v 0.8 1.3 -0.2
v 0.8 1.3 -0.7
v 0.8 1.3 -0.8
v 0.8 1.4 0.7
v 0.8 1.4 0.5
v 0.8 1.4 0.4
v 0.8 1.4 -0.1
v 0.8 1.4 -0.2
v 0.8 1.4 -0.7
v 0.9 1 0.8
v 0.9 1 0.7
v 0.9 1 0.6
v 0.9 1 -0.4
v 0.9 1 -0.5
v 0.9 1 -0.8
v 0.9 1.1 0.8
v 0.9 1.1 0.7
v 0.9 1.1 0.6
v 0.9 1.1 0.1
v 0.9 1.1 0
v 0.9 1.1 -0.4
v 0.9 1.1 -0.5
v 0.9 1.1 -0.7
v 0.9 1.1 -0.8
v 0.9 1.2 0.7
v 0.9 1.2 0.1
v 0.9 1.2 0
v 0.9 1.2 -0.7
v -0.8 1 0.9
v -0.8 1.1 0.9
v -0.7 1.1 0.9
v -0.7 1.2 0.9
v -0.6 1.1 0.9
v -0.6 1.2 0.9
v -0.3 1 0.9
v -0.3 1.1 0.9
v -0.2 1 0.9
v -0.2 1.1 0.9
v 0.1 1.1 0.9
v 0.1 1.2 0.9
v 0.2 1.1 0.9
v 0.2 1.2 0.9
v 0.7 1 0.9
v 0.7 1.1 0.9
v 0.7 1.2 0.9
v 0.8 1 0.9
v 0.8 1.1 0.9
v -0.9 1 0.8
v -0.9 1.1 0.8
v -0.8 1 0.8
v -0.8 1.1 0.8
v -0.8 1.3 0.8
v -0.7 1.1 0.8
v -0.7 1.2 0.8
v -0.7 1.3 0.8
v -0.7 1.4 0.8
v -0.6 1.2 0.8
v -0.4 1.2 0.8
v -0.4 1.4 0.8
v -0.3 1.2 0.8
v -0.3 1.4 0.8
v 0.1 1.2 0.8
v 0.2 1.2 0.8
v 0.3 1.2 0.8
v 0.3 1.3 0.8
v 0.4 1.2 0.8
v 0.4 1.3 0.8
v 0.7 1.1 0.8
v 0.7 1.2 0.8
v 0.7 1.3 0.8
v 0.7 1.4 0.8
v 0.8 1 0.8
v 0.8 1.1 0.8
v 0.8 1.3 0.8
v 0.9 1 0.8
v 0.9 1.1 0.8
v -0.9 1.1 0.7
v -0.9 1.2 0.7
v -0.8 1.1 0.7
v -0.8 1.2 0.7
v -0.8 1.3 0.7
v -0.8 1.4 0.7
v -0.7 1.3 0.7
v -0.7 1.4 0.7
v -0.7 1.5 0.7
v -0.6 1.5 0.7
v -0.6 1.6 0.7
v -0.4 1.4 0.7
v -0.4 1.5 0.7
v -0.4 1.6 0.7
v -0.3 1.4 0.7
v -0.3 1.5 0.7
v -0.3 1.6 0.7
v 0.4 1.4 0.7
v 0.4 1.6 0.7
v 0.5 1.4 0.7
v 0.5 1.6 0.7
v 0.6 1.5 0.7
v 0.6 1.6 0.7
v 0.7 1.3 0.7
v 0.7 1.4 0.7
v 0.7 1.5 0.7
v 0.8 1.1 0.7
v 0.8 1.2 0.7
v 0.8 1.3 0.7
v 0.8 1.4 0.7
v 0.9 1.1 0.7
v 0.9 1.2 0.7
v -0.7 1.5 0.6
v -0.7 1.6 0.6
v -0.6 1.5 0.6
v -0.6 1.6 0.6
v -0.6 1.7 0.6
v -0.5 1.7 0.6
v -0.5 1.8 0.6
v -0.4 1.6 0.6
v -0.4 1.7 0.6
v -0.3 1.6 0.6
v -0.3 1.7 0.6
v -0.1 1.6 0.6
v -0.1 1.7 0.6
v 0 1.6 0.6
v 0 1.7 0.6
v 0 1.8 0.6
v 0.1 1.7 0.6
v 0.1 1.8 0.6
v 0.3 1.7 0.6
v 0.3 1.8 0.6
v 0.4 1.6 0.6
v 0.4 1.7 0.6
v 0.4 1.8 0.6
v 0.5 1.6 0.6
v 0.5 1.7 0.6
v 0.5 1.8 0.6
v 0.6 1.5 0.6
v 0.6 1.6 0.6
v 0.6 1.7 0.6
v 0.7 1.5 0.6
v 0.7 1.6 0.6
v -0.6 1.7 0.5
v -0.6 1.8 0.5
v -0.5 0.9 0.5
v -0.5 1 0.5
v -0.5 1.7 0.5
v -0.5 1.8 0.5
v -0.4 1.8 0.5
v -0.4 1.9 0.5
v 0 1.8 0.5
v 0.1 1.8 0.5
v 0.3 1.8 0.5
v 0.4 1.8 0.5
v 0.4 1.9 0.5
v 0.5 0.9 0.5
v 0.5 1 0.5
v 0.5 1.7 0.5
v 0.5 1.8 0.5
v 0.6 1.7 0.5
v 0.6 1.8 0.5
v -0.5 1.8 0.4
v -0.5 1.9 0.4
v -0.4 0.2 0.4
v -0.4 0.9 0.4
v -0.4 1.8 0.4
v -0.4 1.9 0.4
v -0.3 0.2 0.4
v -0.3 0.4 0.4
v -0.3 1.9 0.4
v -0.3 2 0.4
v -0.2 0.2 0.4
v -0.2 0.4 0.4
v -0.2 0.8 0.4
v -0.2 0.9 0.4
v -0.2 1.9 0.4
v -0.2 2 0.4
v -0.1 0.2 0.4
v -0.1 0.6 0.4
v 0 0.2 0.4
v 0 0.6 0.4
v 0 1.9 0.4
v 0 2 0.4
v 0.2 0.2 0.4
v 0.2 0.7 0.4
v 0.3 0.2 0.4
v 0.3 0.7 0.4
v 0.3 1.9 0.4
v 0.3 2 0.4
v 0.4 0.2 0.4
v 0.4 0.8 0.4
v 0.4 0.9 0.4
v 0.4 1.8 0.4
v 0.4 1.9 0.4
v 0.5 1.8 0.4
v 0.5 1.9 0.4
v -0.4 1.9 0.3
v -0.4 2 0.3
v -0.3 0 0.3
v -0.3 0.1 0.3
v -0.3 0.2 0.3
v -0.3 1.9 0.3
v -0.3 2 0.3
v -0.2 0 0.3
v -0.2 0.1 0.3
v -0.2 0.2 0.3
v -0.1 0.1 0.3
v -0.1 0.2 0.3
v 0 0.2 0.3
v 0.2 0.2 0.3
v 0.3 0 0.3
v 0.3 0.1 0.3
v 0.3 0.2 0.3
v 0.3 1.9 0.3
v 0.3 2 0.3
v 0.4 1.9 0.3
v 0.4 2 0.3
v -0.4 1.9 -0.3
v -0.4 2 -0.3
v -0.3 0 -0.3
v -0.3 0.1 -0.3
v -0.3 0.2 -0.3
v -0.3 1.9 -0.3
v -0.3 2 -0.3
v -0.2 0.1 -0.3
v -0.2 0.2 -0.3
v 0 0.1 -0.3
v 0 0.2 -0.3
v 0.2 0.1 -0.3
v 0.2 0.2 -0.3
v 0.3 0 -0.3
v 0.3 0.2 -0.3
v 0.3 1.9 -0.3
v 0.3 2 -0.3
v 0.4 1.9 -0.3
v 0.4 2 -0.3
v -0.5 1.8 -0.4
v -0.5 1.9 -0.4
v -0.4 0.2 -0.4
v -0.4 0.9 -0.4
v -0.4 1.8 -0.4
v -0.4 1.9 -0.4
v -0.3 0.2 -0.4
v -0.3 0.8 -0.4
v -0.3 1.9 -0.4
v -0.3 2 -0.4
v -0.2 0.2 -0.4
v -0.2 0.8 -0.4
v -0.2 1.9 -0.4
v 0 0.2 -0.4
v 0 0.5 -0.4
v 0 1.9 -0.4
v 0 2 -0.4
v 0.1 0.5 -0.4
v 0.1 0.7 -0.4
v 0.2 0.2 -0.4
v 0.2 0.7 -0.4
v 0.2 1.9 -0.4
v 0.2 2 -0.4
v 0.3 1.9 -0.4
v 0.3 2 -0.4
v 0.4 0.2 -0.4
v 0.4 0.9 -0.4
v 0.4 1.8 -0.4
v 0.4 1.9 -0.4
v 0.5 1.8 -0.4
v 0.5 1.9 -0.4
v -0.6 1.7 -0.5
v -0.6 1.8 -0.5
v -0.5 0.9 -0.5
v -0.5 1 -0.5
v -0.5 1.7 -0.5
v -0.5 1.8 -0.5
v -0.4 1.8 -0.5
v -0.4 1.9 -0.5
v -0.3 1.8 -0.5
v -0.3 1.9 -0.5
v -0.2 1.8 -0.5
v -0.2 1.9 -0.5
v 0.4 1.8 -0.5
v 0.4 1.9 -0.5
v 0.5 0.9 -0.5
v 0.5 1 -0.5
v 0.5 1.7 -0.5
v 0.5 1.8 -0.5
v 0.6 1.7 -0.5
v 0.6 1.8 -0.5
v -0.7 1.5 -0.6
v -0.7 1.6 -0.6
v -0.6 1.5 -0.6
v -0.6 1.6 -0.6
v -0.6 1.7 -0.6
v -0.5 1.7 -0.6
v -0.5 1.8 -0.6
v -0.4 1.7 -0.6
v -0.4 1.8 -0.6
v -0.3 1.6 -0.6
v -0.3 1.7 -0.6
v -0.2 1.6 -0.6
v -0.2 1.7 -0.6
v 0.3 1.6 -0.6
v 0.4 1.6 -0.6
v 0.5 1.7 -0.6
v 0.5 1.8 -0.6
v 0.6 1.5 -0.6
v 0.6 1.6 -0.6
v 0.6 1.7 -0.6
v 0.7 1.5 -0.6
v 0.7 1.6 -0.6
v -0.9 1.1 -0.7
v -0.9 1.2 -0.7
v -0.8 1.1 -0.7
v -0.8 1.2 -0.7
v -0.8 1.3 -0.7
v -0.8 1.4 -0.7
v -0.7 1.3 -0.7
v -0.7 1.4 -0.7
v -0.7 1.5 -0.7
v -0.6 1.5 -0.7
v -0.6 1.6 -0.7
v -0.3 1.5 -0.7
v -0.3 1.6 -0.7
v -0.2 1.5 -0.7
v -0.2 1.6 -0.7
v -0.1 1.4 -0.7
v 0 1.4 -0.7
v 0.3 1.4 -0.7
v 0.3 1.5 -0.7
v 0.3 1.6 -0.7
v 0.4 1.4 -0.7
v 0.4 1.5 -0.7
v 0.4 1.6 -0.7
v 0.5 1.4 -0.7
v 0.5 1.5 -0.7
v 0.6 1.5 -0.7
v 0.6 1.6 -0.7
v 0.7 1.3 -0.7
v 0.7 1.4 -0.7
v 0.7 1.5 -0.7
v 0.8 1.1 -0.7
v 0.8 1.2 -0.7
v 0.8 1.3 -0.7
v 0.8 1.4 -0.7
v 0.9 1.1 -0.7
v 0.9 1.2 -0.7
v -0.9 1 -0.8
v -0.9 1.1 -0.8
v -0.8 1 -0.8
v -0.8 1.1 -0.8
v -0.8 1.3 -0.8
v -0.7 1.1 -0.8
v -0.7 1.2 -0.8
v -0.7 1.3 -0.8
v -0.7 1.4 -0.8
v -0.4 1.2 -0.8
v -0.2 1.2 -0.8
v -0.2 1.3 -0.8
v -0.1 1.2 -0.8
v -0.1 1.3 -0.8
v -0.1 1.4 -0.8
v 0 1.3 -0.8
v 0 1.4 -0.8
v 0.3 1.2 -0.8
v 0.3 1.4 -0.8
v 0.4 1.2 -0.8
v 0.4 1.4 -0.8
v 0.7 1.1 -0.8
v 0.7 1.2 -0.8
v 0.7 1.3 -0.8
v 0.7 1.4 -0.8
v 0.8 1 -0.8
v 0.8 1.1 -0.8
v 0.8 1.3 -0.8
v 0.9 1 -0.8
v 0.9 1.1 -0.8
v -0.8 1 -0.9
v -0.8 1.1 -0.9
v -0.7 1.1 -0.9
v -0.7 1.2 -0.9
v -0.4 1.1 -0.9
v -0.4 1.2 -0.9
v -0.2 1.1 -0.9
v -0.2 1.2 -0.9
v 0.5 1 -0.9
v 0.5 1.1 -0.9
v 0.6 1 -0.9
v 0.6 1.1 -0.9
v 0.7 1.1 -0.9
v 0.7 1.2 -0.9
v 0.8 1 -0.9
v 0.8 1.1 -0.9
v -0.3 0 0.3
v -0.2 0 0.3
v 0.3 0 0.3
v -0.3 0 0.1
v -0.2 0 0.1
v 0.2 0 0.1
v 0.3 0 0.1
v 0.2 0 -0.2
v 0.3 0 -0.2
v -0.3 0 -0.3
v 0.3 0 -0.3
v -0.4 0.2 0.4
v -0.3 0.2 0.4
v -0.2 0.2 0.4
v -0.1 0.2 0.4
v 0 0.2 0.4
v 0.2 0.2 0.4
v 0.3 0.2 0.4
v 0.4 0.2 0.4
v -0.4 0.2 0.3
v -0.3 0.2 0.3
v -0.2 0.2 0.3
v -0.1 0.2 0.3
v 0 0.2 0.3
v 0.2 0.2 0.3
v 0.3 0.2 0.3
v -0.4 0.2 0.2
v -0.3 0.2 0.2
v 0.3 0.2 0.2
v -0.4 0.2 0.1
v -0.3 0.2 0.1
v 0.3 0.2 0.1
v 0.4 0.2 0.1
v -0.4 0.2 0
v -0.3 0.2 0
v -0.4 0.2 -0.1
v -0.3 0.2 -0.1
v 0.3 0.2 -0.1
v 0.4 0.2 -0.1
v -0.4 0.2 -0.3
v -0.3 0.2 -0.3
v -0.2 0.2 -0.3
v 0 0.2 -0.3
v 0.2 0.2 -0.3
v 0.3 0.2 -0.3
v -0.4 0.2 -0.4
v -0.3 0.2 -0.4
v -0.2 0.2 -0.4
v 0 0.2 -0.4
v 0.2 0.2 -0.4
v 0.4 0.2 -0.4
v -0.5 0.9 0.5
v 0.5 0.9 0.5
v -0.4 0.9 0.4
v -0.2 0.9 0.4
v 0.4 0.9 0.4
v 0.4 0.9 0.3
v -0.4 0.9 -0.4
v 0.4 0.9 -0.4
v -0.5 0.9 -0.5
v 0.5 0.9 -0.5
v -0.8 1 0.9
v -0.3 1 0.9
v -0.2 1 0.9
v 0.7 1 0.9
v 0.8 1 0.9
v -0.9 1 0.8
v -0.8 1 0.8
v -0.3 1 0.8
v -0.2 1 0.8
v 0.7 1 0.8
v 0.8 1 0.8
v 0.9 1 0.8
v -0.9 1 0.7
v -0.8 1 0.7
v 0.8 1 0.7
v 0.9 1 0.7
v 0.8 1 0.6
v 0.9 1 0.6
v -0.9 1 0.5
v -0.8 1 0.5
v -0.5 1 0.5
v 0.5 1 0.5
v -0.9 1 -0.2
v -0.8 1 -0.2
v -0.9 1 -0.3
v -0.8 1 -0.3
v 0.8 1 -0.4
v 0.9 1 -0.4
v -0.5 1 -0.5
v 0.5 1 -0.5
v 0.8 1 -0.5
v 0.9 1 -0.5
v -0.9 1 -0.8
v -0.8 1 -0.8
v 0.5 1 -0.8
v 0.6 1 -0.8
v 0.8 1 -0.8
v 0.9 1 -0.8
v -0.8 1 -0.9
v 0.5 1 -0.9
v 0.6 1 -0.9
v 0.8 1 -0.9
v -0.8 1.1 0.9
v -0.7 1.1 0.9
v 0.7 1.1 0.9
v 0.8 1.1 0.9
v -0.9 1.1 0.8
v -0.8 1.1 0.8
v -0.7 1.1 0.8
v 0.7 1.1 0.8
v 0.8 1.1 0.8
v 0.9 1.1 0.8
v -0.9 1.1 0.7
v -0.8 1.1 0.7
v 0.8 1.1 0.7
v 0.9 1.1 0.7
v -0.9 1.1 -0.7
v -0.8 1.1 -0.7
v 0.8 1.1 -0.7
v 0.9 1.1 -0.7
v -0.9 1.1 -0.8
v -0.8 1.1 -0.8
v -0.7 1.1 -0.8
v 0.7 1.1 -0.8
v 0.8 1.1 -0.8
v 0.9 1.1 -0.8
v -0.8 1.1 -0.9
v -0.7 1.1 -0.9
v 0.7 1.1 -0.9
v 0.8 1.1 -0.9
v -0.7 1.2 0.9
v -0.6 1.2 0.9
v 0.1 1.2 0.9
v 0.2 1.2 0.9
v 0.7 1.2 0.9
v -0.7 1.2 0.8
v -0.6 1.2 0.8
v -0.4 1.2 0.8
v -0.3 1.2 0.8
v 0.1 1.2 0.8
v 0.2 1.2 0.8
v 0.3 1.2 0.8
v 0.4 1.2 0.8
v 0.7 1.2 0.8
v -0.9 1.2 0.7
v -0.8 1.2 0.7
v 0.8 1.2 0.7
v 0.9 1.2 0.7
v 0.8 1.2 0.4
v -0.8 1.2 0.3
v 0.8 1.2 0.3
v -0.8 1.2 0.2
v 0.8 1.2 0.1
v 0.9 1.2 0.1
v 0.8 1.2 0
v 0.9 1.2 0
v -0.9 1.2 -0.1
v -0.8 1.2 -0.1
v -0.9 1.2 -0.2
v -0.8 1.2 -0.2
v -0.9 1.2 -0.7
v -0.8 1.2 -0.7
v 0.8 1.2 -0.7
v 0.9 1.2 -0.7
v -0.7 1.2 -0.8
v -0.4 1.2 -0.8
v -0.2 1.2 -0.8
v -0.1 1.2 -0.8
v 0.3 1.2 -0.8
v 0.4 1.2 -0.8
v 0.7 1.2 -0.8
v -0.7 1.2 -0.9
v -0.4 1.2 -0.9
v -0.2 1.2 -0.9
v 0.7 1.2 -0.9
v -0.8 1.3 0.8
v -0.7 1.3 0.8
v 0.7 1.3 0.8
v 0.8 1.3 0.8
v -0.8 1.3 0.7
v -0.7 1.3 0.7
v 0.7 1.3 0.7
v 0.8 1.3 0.7
v -0.8 1.3 -0.7
v -0.7 1.3 -0.7
v 0.7 1.3 -0.7
v 0.8 1.3 -0.7
v -0.8 1.3 -0.8
v -0.7 1.3 -0.8
v 0.7 1.3 -0.8
v 0.8 1.3 -0.8
v -0.7 1.4 0.8
v -0.4 1.4 0.8
v -0.3 1.4 0.8
v 0.7 1.4 0.8
v -0.8 1.4 0.7
v -0.7 1.4 0.7
v -0.4 1.4 0.7
v -0.3 1.4 0.7
v 0.4 1.4 0.7
v 0.5 1.4 0.7
v 0.7 1.4 0.7
v 0.8 1.4 0.7
v -0.7 1.4 0.6
v -0.7 1.4 0.5
v 0.7 1.4 0.5
v 0.8 1.4 0.5
v 0.7 1.4 0.4
v 0.8 1.4 0.4
v -0.8 1.4 0.2
v -0.7 1.4 0.2
v -0.8 1.4 0.1
v -0.7 1.4 0.1
v 0.7 1.4 -0.1
v 0.8 1.4 -0.1
v 0.7 1.4 -0.2
v 0.8 1.4 -0.2
v 0.7 1.4 -0.4
v -0.7 1.4 -0.5
v 0.7 1.4 -0.5
v -0.7 1.4 -0.6
v -0.8 1.4 -0.7
v -0.7 1.4 -0.7
v -0.1 1.4 -0.7
v 0 1.4 -0.7
v 0.3 1.4 -0.7
v 0.4 1.4 -0.7
v 0.5 1.4 -0.7
v 0.7 1.4 -0.7
v 0.8 1.4 -0.7
v -0.7 1.4 -0.8
v -0.1 1.4 -0.8
v 0 1.4 -0.8
v 0.3 1.4 -0.8
v 0.4 1.4 -0.8
v 0.7 1.4 -0.8
v -0.7 1.5 0.7
v -0.6 1.5 0.7
v 0.6 1.5 0.7
v 0.7 1.5 0.7
v -0.7 1.5 0.6
v -0.6 1.5 0.6
v 0.6 1.5 0.6
v 0.7 1.5 0.6
v -0.7 1.5 -0.6
v -0.6 1.5 -0.6
v 0.6 1.5 -0.6
v 0.7 1.5 -0.6
v -0.7 1.5 -0.7
v -0.6 1.5 -0.7
v 0.6 1.5 -0.7
v 0.7 1.5 -0.7
v -0.6 1.6 0.7
v -0.4 1.6 0.7
v -0.3 1.6 0.7
v 0.4 1.6 0.7
v 0.5 1.6 0.7
v 0.6 1.6 0.7
v -0.7 1.6 0.6
v -0.6 1.6 0.6
v -0.4 1.6 0.6
v -0.3 1.6 0.6
v -0.1 1.6 0.6
v 0 1.6 0.6
v 0.4 1.6 0.6
v 0.5 1.6 0.6
v 0.6 1.6 0.6
v 0.7 1.6 0.6
v 0.6 1.6 0.4
v 0.6 1.6 0.3
v 0.6 1.6 0.1
v 0.7 1.6 0.1
v 0.6 1.6 0
v 0.7 1.6 0
v -0.6 1.6 -0.1
v 0.6 1.6 -0.1
v -0.6 1.6 -0.2
v -0.7 1.6 -0.3
v -0.6 1.6 -0.3
v -0.7 1.6 -0.4
v -0.6 1.6 -0.4
v 0.6 1.6 -0.4
v 0.7 1.6 -0.4
v 0.6 1.6 -0.5
v 0.7 1.6 -0.5
v -0.7 1.6 -0.6
v -0.6 1.6 -0.6
v -0.3 1.6 -0.6
v -0.2 1.6 -0.6
v 0.3 1.6 -0.6
v 0.4 1.6 -0.6
v 0.6 1.6 -0.6
v 0.7 1.6 -0.6
v -0.6 1.6 -0.7
v -0.3 1.6 -0.7
v -0.2 1.6 -0.7
v 0.3 1.6 -0.7
v 0.4 1.6 -0.7
v 0.6 1.6 -0.7
v -0.6 1.7 0.6
v -0.5 1.7 0.6
v 0.5 1.7 0.6
v 0.6 1.7 0.6
v -0.6 1.7 0.5
v -0.5 1.7 0.5
v 0.5 1.7 0.5
v 0.6 1.7 0.5
v -0.6 1.7 -0.5
v -0.5 1.7 -0.5
v 0.5 1.7 -0.5
v 0.6 1.7 -0.5
v -0.6 1.7 -0.6
v -0.5 1.7 -0.6
v 0.5 1.7 -0.6
v 0.6 1.7 -0.6
v -0.5 1.8 0.6
v 0 1.8 0.6
v 0.1 1.8 0.6
v 0.3 1.8 0.6
v 0.4 1.8 0.6
v 0.5 1.8 0.6
v -0.6 1.8 0.5
v -0.5 1.8 0.5
v -0.4 1.8 0.5
v 0 1.8 0.5
v 0.1 1.8 0.5
v 0.3 1.8 0.5
v 0.4 1.8 0.5
v 0.5 1.8 0.5
v 0.6 1.8 0.5
v -0.5 1.8 0.4
v -0.4 1.8 0.4
v 0.4 1.8 0.4
v 0.5 1.8 0.4
v 0.6 1.8 0.4
v -0.6 1.8 0.3
v -0.5 1.8 0.3
v 0.5 1.8 0.3
v 0.6 1.8 0.3
v -0.6 1.8 0.2
v -0.5 1.8 0.2
v 0.5 1.8 0.2
v -0.5 1.8 0.1
v 0.5 1.8 0.1
v -0.6 1.8 -0.1
v -0.5 1.8 -0.1
v -0.6 1.8 -0.2
v -0.5 1.8 -0.2
v 0.5 1.8 -0.2
v 0.5 1.8 -0.3
v -0.5 1.8 -0.4
v -0.4 1.8 -0.4
v 0.4 1.8 -0.4
v 0.5 1.8 -0.4
v -0.6 1.8 -0.5
v -0.5 1.8 -0.5
v -0.4 1.8 -0.5
v -0.3 1.8 -0.5
v -0.2 1.8 -0.5
v 0.4 1.8 -0.5
v 0.5 1.8 -0.5
v 0.6 1.8 -0.5
v -0.5 1.8 -0.6
v -0.4 1.8 -0.6
v 0.5 1.8 -0.6
v -0.4 1.9 0.5
v 0.4 1.9 0.5
v -0.5 1.9 0.4
v -0.4 1.9 0.4
v -0.3 1.9 0.4
v -0.2 1.9 0.4
v 0 1.9 0.4
v 0.3 1.9 0.4
v 0.4 1.9 0.4
v 0.5 1.9 0.4
v -0.4 1.9 0.3
v -0.3 1.9 0.3
v 0.3 1.9 0.3
v 0.4 1.9 0.3
v -0.5 1.9 0.2
v -0.4 1.9 0.2
v 0.4 1.9 0.2
v 0.5 1.9 0.2
v -0.5 1.9 0.1
v -0.4 1.9 0.1
v 0.4 1.9 0.1
v 0.5 1.9 0.1
v -0.4 1.9 0
v 0.4 1.9 0
v -0.4 1.9 -0.1
v 0.4 1.9 -0.2
v 0.5 1.9 -0.2
v -0.4 1.9 -0.3
v -0.3 1.9 -0.3
v 0.3 1.9 -0.3
v 0.4 1.9 -0.3
v 0.5 1.9 -0.3
v -0.5 1.9 -0.4
v -0.4 1.9 -0.4
v -0.3 1.9 -0.4
v -0.2 1.9 -0.4
v 0 1.9 -0.4
v 0.2 1.9 -0.4
v 0.3 1.9 -0.4
v 0.4 1.9 -0.4
v 0.5 1.9 -0.4
v -0.4 1.9 -0.5
v -0.3 1.9 -0.5
v -0.2 1.9 -0.5
v 0.4 1.9 -0.5
v -0.3 2 0.4
v -0.2 2 0.4
v 0 2 0.4
v 0.3 2 0.4
v -0.4 2 0.3
v -0.3 2 0.3
v -0.2 2 0.3
v 0 2 0.3
v 0.3 2 0.3
v 0.4 2 0.3
v -0.2 2 0.1
v 0 2 0.1
v 0.3 2 0.1
v 0.4 2 0.1
v -0.4 2 0
v -0.3 2 0
v -0.2 2 0
v 0 2 0
v 0.3 2 0
v 0.4 2 0
v -0.4 2 -0.1
v -0.3 2 -0.1
v -0.4 2 -0.3
v -0.3 2 -0.3
v 0 2 -0.3
v 0.2 2 -0.3
v 0.3 2 -0.3
v 0.4 2 -0.3
v -0.3 2 -0.4
v 0 2 -0.4
v 0.2 2 -0.4
v 0.3 2 -0.4

# faces
f 7/4/1 2/4/1 1/4/1
f 8/5/1 3/5/1 2/5/1
f 8/4/1 2/4/1 7/4/1
f 9/4/1 4/4/1 3/4/1
f 9/5/1 3/5/1 8/5/1
f 10/4/1 4/4/1 9/4/1
f 11/5/1 5/5/1 4/5/1
f 11/4/1 4/4/1 10/4/1
f 12/4/1 6/4/1 5/4/1
f 12/5/1 5/5/1 11/5/1
f 13/4/1 6/4/1 12/4/1
f 14/4/1 6/4/1 13/4/1
f 15/4/1 10/4/1 9/4/1
f 15/4/1 9/4/1 8/4/1
f 16/5/1 11/5/1 10/5/1
f 16/4/1 10/4/1 15/4/1
f 17/4/1 13/4/1 12/4/1
f 17/5/1 11/5/1 16/5/1
f 17/4/1 12/4/1 11/4/1
f 18/4/1 13/4/1 17/4/1
f 23/4/1 20/4/1 19/4/1
f 24/4/1 20/4/1 23/4/1
f 27/4/1 22/4/1 21/4/1
f 28/4/1 22/4/1 27/4/1
f 29/4/1 25/4/1 24/4/1
f 34/4/1 27/4/1 26/4/1
f 35/4/1 29/4/1 24/4/1
f 35/4/1 30/4/1 29/4/1
f 36/4/1 30/4/1 35/4/1
f 37/5/1 31/5/1 30/5/1
f 37/4/1 30/4/1 36/4/1
f 38/4/1 33/4/1 32/4/1
f 38/5/1 31/5/1 37/5/1
f 38/4/1 34/4/1 33/4/1
f 38/4/1 32/4/1 31/4/1
f 39/4/1 34/4/1 38/4/1
f 40/4/1 27/4/1 34/4/1
f 40/4/1 34/4/1 39/4/1
f 41/4/1 27/4/1 40/4/1
f 42/4/1 37/4/1 36/4/1
f 42/4/1 38/4/1 37/4/1
f 43/5/1 39/5/1 38/5/1
f 43/4/1 38/4/1 42/4/1
f 44/4/1 40/4/1 39/4/1
f 44/5/1 39/5/1 43/5/1
f 45/4/1 40/4/1 44/4/1
f 50/5/1 47/5/1 46/5/1
f 51/5/1 47/5/1 50/5/1
f 52/4/1 49/4/1 48/4/1
f 53/4/1 49/4/1 52/4/1
f 58/4/1 55/4/1 54/4/1
f 59/4/1 55/4/1 58/4/1
f 66/4/1 57/4/1 56/4/1
f 67/4/1 57/4/1 66/4/1
f 68/4/1 60/4/1 59/4/1
f 69/5/1 61/5/1 60/5/1
f 69/4/1 60/4/1 68/4/1
f 70/4/1 62/4/1 61/4/1
f 70/5/1 61/5/1 69/5/1
f 70/4/1 63/4/1 62/4/1
f 70/4/1 64/4/1 63/4/1
f 71/4/1 64/4/1 70/4/1
f 72/4/1 64/4/1 71/4/1
f 73/5/1 65/5/1 64/5/1
f 73/4/1 64/4/1 72/4/1
f 74/4/1 66/4/1 65/4/1
f 74/5/1 65/5/1 73/5/1
f 75/4/1 66/4/1 74/4/1
f 76/4/1 70/4/1 69/4/1
f 76/4/1 71/4/1 70/4/1
f 77/5/1 72/5/1 71/5/1
f 77/4/1 71/4/1 76/4/1
f 78/4/1 73/4/1 72/4/1
f 78/5/1 72/5/1 77/5/1
f 78/4/1 74/4/1 73/4/1
f 79/4/1 74/4/1 78/4/1
f 84/4/1 81/4/1 80/4/1
f 85/4/1 81/4/1 84/4/1
f 90/4/1 83/4/1 82/4/1
f 91/4/1 83/4/1 90/4/1
f 92/4/1 86/4/1 85/4/1
f 93/4/1 86/4/1 92/4/1
f 94/4/1 86/4/1 93/4/1
f 95/4/1 86/4/1 94/4/1
f 96/4/1 89/4/1 88/4/1
f 96/4/1 90/4/1 89/4/1
f 96/4/1 88/4/1 87/4/1
f 97/4/1 90/4/1 96/4/1
f 98/4/1 94/4/1 93/4/1
f 99/5/1 95/5/1 94/5/1
f 99/4/1 94/4/1 98/4/1
f 100/4/1 86/4/1 95/4/1
f 100/5/1 95/5/1 99/5/1
f 101/5/1 87/5/1 86/5/1
f 101/4/1 86/4/1 100/4/1
f 102/4/1 96/4/1 87/4/1
f 102/5/1 87/5/1 101/5/1
f 103/4/1 96/4/1 102/4/1
f 106/2/1 105/2/1 104/2/1
f 107/2/1 105/2/1 106/2/1
f 112/4/1 109/4/1 108/4/1
f 113/4/1 109/4/1 112/4/1
f 121/5/1 111/5/1 110/5/1
f 122/5/1 111/5/1 121/5/1
f 123/4/1 115/4/1 114/4/1
f 123/4/1 116/4/1 115/4/1
f 124/5/1 117/5/1 116/5/1
f 124/4/1 116/4/1 123/4/1
f 125/4/1 120/4/1 119/4/1
f 125/5/1 117/5/1 124/5/1
f 125/4/1 119/4/1 118/4/1
f 125/4/1 118/4/1 117/4/1
f 126/4/1 120/4/1 125/4/1
f 135/1/1 128/1/1 127/1/1
f 135/2/1 129/2/1 128/2/1
f 136/1/1 130/1/1 129/1/1
f 136/2/1 129/2/1 135/2/1
f 137/2/1 133/2/1 132/2/1
f 137/1/1 132/1/1 131/1/1
f 138/2/1 133/2/1 137/2/1
f 139/1/1 130/1/1 136/1/1
f 139/2/1 131/2/1 130/2/1
f 139/1/1 136/1/1 135/1/1
f 140/1/1 138/1/1 137/1/1
f 140/2/1 131/2/1 139/2/1
f 140/1/1 137/1/1 131/1/1
f 141/2/1 133/2/1 138/2/1
f 141/1/1 138/1/1 140/1/1
f 142/1/1 134/1/1 133/1/1
f 142/2/1 133/2/1 141/2/1
f 143/1/1 141/1/1 140/1/1
f 143/1/1 140/1/1 139/1/1
f 143/1/1 142/1/1 141/1/1
f 143/1/1 139/1/1 135/1/1
f 143/1/1 135/1/1 127/1/1
f 144/1/1 134/1/1 142/1/1
f 144/1/1 142/1/1 143/1/1
f 149/4/1 146/4/1 145/4/1
f 150/4/1 146/4/1 149/4/1
f 157/4/1 148/4/1 147/4/1
f 158/4/1 148/4/1 157/4/1
f 159/4/1 152/4/1 151/4/1
f 159/4/1 153/4/1 152/4/1
f 159/4/1 154/4/1 153/4/1
f 160/5/1 155/5/1 154/5/1
f 160/4/1 154/4/1 159/4/1
f 161/4/1 156/4/1 155/4/1
f 161/5/1 155/5/1 160/5/1
f 162/4/1 156/4/1 161/4/1
f 166/2/1 164/2/1 163/2/1
f 167/1/1 165/1/1 164/1/1
f 167/2/1 164/2/1 166/2/1
f 168/1/1 165/1/1 167/1/1
f 169/1/1 165/1/1 168/1/1
f 170/1/1 167/1/1 166/1/1
f 170/1/1 168/1/1 167/1/1
f 171/1/1 168/1/1 170/1/1
f 172/1/1 168/1/1 171/1/1
f 173/2/1 169/2/1 168/2/1
f 173/1/1 168/1/1 172/1/1
f 174/2/1 169/2/1 173/2/1
f 175/2/1 169/2/1 174/2/1
f 180/4/1 177/4/1 176/4/1
f 181/4/1 177/4/1 180/4/1
f 182/4/1 179/4/1 178/4/1
f 183/4/1 179/4/1 182/4/1
f 184/1/2 185/1/2 188/1/2
f 188/1/2 185/1/2 189/1/2
f 185/2/2 186/2/2 190/2/2
f 189/1/2 185/1/2 190/1/2
f 186/1/2 187/1/2 191/1/2
f 190/2/2 186/2/2 191/2/2
f 188/2/2 189/2/2 192/2/2
f 189/1/2 190/1/2 193/1/2
f 192/2/2 189/2/2 193/2/2
f 190/1/2 191/1/2 193/1/2
f 193/1/2 191/1/2 194/1/2
f 194/1/2 191/1/2 195/1/2
f 191/1/2 187/1/2 196/1/2
f 195/1/2 191/1/2 196/1/2
f 197/4/2 198/4/2 201/4/2
f 201/4/2 198/4/2 202/4/2
f 199/4/2 200/4/2 203/4/2
f 203/4/2 200/4/2 204/4/2
f 206/2/2 207/2/2 209/2/2
f 207/1/2 208/1/2 210/1/2
f 209/2/2 207/2/2 210/2/2
f 205/1/2 206/1/2 211/1/2
f 211/1/2 206/1/2 212/1/2
f 206/2/2 209/2/2 213/2/2
f 212/1/2 206/1/2 213/1/2
f 209/1/2 210/1/2 214/1/2
f 213/2/2 209/2/2 214/2/2
f 211/2/2 212/2/2 215/2/2
f 212/1/2 213/1/2 216/1/2
f 215/2/2 212/2/2 216/2/2
f 213/1/2 214/1/2 216/1/2
f 210/1/2 208/1/2 217/1/2
f 216/1/2 214/1/2 217/1/2
f 214/1/2 210/1/2 217/1/2
f 218/4/2 219/4/2 222/4/2
f 222/4/2 219/4/2 223/4/2
f 220/4/2 221/4/2 230/4/2
f 230/4/2 221/4/2 231/4/2
f 224/4/2 225/4/2 232/4/2
f 225/4/2 226/4/2 232/4/2
f 226/5/2 227/5/2 233/5/2
f 232/4/2 226/4/2 233/4/2
f 228/4/2 229/4/2 234/4/2
f 233/5/2 227/5/2 234/5/2
f 227/4/2 228/4/2 234/4/2
f 234/4/2 229/4/2 235/4/2
f 236/2/2 237/2/2 238/2/2
f 238/2/2 237/2/2 239/2/2
f 240/4/2 241/4/2 244/4/2
f 244/4/2 241/4/2 245/4/2
f 242/4/2 243/4/2 253/4/2
f 253/4/2 243/4/2 254/4/2
f 246/4/2 247/4/2 255/4/2
f 247/4/2 248/4/2 255/4/2
f 248/5/2 249/5/2 256/5/2
f 255/4/2 248/4/2 256/4/2
f 249/4/2 250/4/2 257/4/2
f 256/5/2 249/5/2 257/5/2
f 250/5/2 251/5/2 258/5/2
f 257/4/2 250/4/2 258/4/2
f 251/4/2 252/4/2 259/4/2
f 258/5/2 251/5/2 259/5/2
f 259/4/2 252/4/2 260/4/2
f 261/4/2 262/4/2 265/4/2
f 265/4/2 262/4/2 266/4/2
f 263/4/2 264/4/2 274/4/2
f 274/4/2 264/4/2 275/4/2
f 266/4/2 267/4/2 276/4/2
f 276/4/2 267/4/2 277/4/2
f 268/4/2 269/4/2 278/4/2
f 269/4/2 270/4/2 278/4/2
f 270/5/2 271/5/2 278/5/2
f 272/4/2 273/4/2 279/4/2
f 278/5/2 271/5/2 279/5/2
f 273/4/2 274/4/2 279/4/2
f 271/4/2 272/4/2 279/4/2
f 279/4/2 274/4/2 280/4/2
f 280/4/2 274/4/2 281/4/2
f 277/4/2 267/4/2 282/4/2
f 267/5/2 268/5/2 283/5/2
f 282/4/2 267/4/2 283/4/2
f 268/4/2 278/4/2 284/4/2
f 283/5/2 268/5/2 284/5/2
f 279/4/2 280/4/2 284/4/2
f 278/4/2 279/4/2 284/4/2
f 284/4/2 280/4/2 285/4/2
f 286/4/2 287/4/2 290/4/2
f 290/4/2 287/4/2 291/4/2
f 288/4/2 289/4/2 292/4/2
f 292/4/2 289/4/2 293/4/2
f 294/4/2 295/4/2 298/4/2
f 298/4/2 295/4/2 299/4/2
f 296/4/2 297/4/2 306/4/2
f 306/4/2 297/4/2 307/4/2
f 299/4/2 300/4/2 308/4/2
f 300/4/2 301/4/2 308/4/2
f 301/4/2 302/4/2 308/4/2
f 308/4/2 302/4/2 309/4/2
f 309/4/2 302/4/2 310/4/2
f 310/4/2 302/4/2 311/4/2
f 302/5/2 303/5/2 312/5/2
f 311/4/2 302/4/2 312/4/2
f 303/4/2 304/4/2 313/4/2
f 312/5/2 303/5/2 313/5/2
f 305/4/2 306/4/2 314/4/2
f 314/4/2 306/4/2 315/4/2
f 309/4/2 310/4/2 316/4/2
f 310/5/2 311/5/2 317/5/2
f 316/4/2 310/4/2 317/4/2
f 311/4/2 312/4/2 318/4/2
f 317/5/2 311/5/2 318/5/2
f 312/4/2 313/4/2 318/4/2
f 304/5/2 305/5/2 319/5/2
f 318/4/2 313/4/2 319/4/2
f 313/4/2 304/4/2 319/4/2
f 305/4/2 314/4/2 320/4/2
f 319/5/2 305/5/2 320/5/2
f 320/4/2 314/4/2 321/4/2
f 322/5/2 323/5/2 326/5/2
f 326/5/2 323/5/2 327/5/2
f 324/4/2 325/4/2 330/4/2
f 330/4/2 325/4/2 331/4/2
f 327/4/2 328/4/2 332/4/2
f 329/4/2 330/4/2 337/4/2
f 327/4/2 332/4/2 338/4/2
f 332/4/2 333/4/2 338/4/2
f 338/4/2 333/4/2 339/4/2
f 339/4/2 333/4/2 340/4/2
f 333/5/2 334/5/2 341/5/2
f 340/4/2 333/4/2 341/4/2
f 335/4/2 336/4/2 342/4/2
f 341/5/2 334/5/2 342/5/2
f 336/4/2 337/4/2 342/4/2
f 334/4/2 335/4/2 342/4/2
f 342/4/2 337/4/2 343/4/2
f 343/4/2 337/4/2 344/4/2
f 337/4/2 330/4/2 345/4/2
f 344/4/2 337/4/2 345/4/2
f 345/4/2 330/4/2 346/4/2
f 339/4/2 340/4/2 347/4/2
f 340/5/2 341/5/2 348/5/2
f 347/4/2 340/4/2 348/4/2
f 341/4/2 342/4/2 349/4/2
f 348/5/2 341/5/2 349/5/2
f 342/4/2 343/4/2 349/4/2
f 343/5/2 344/5/2 350/5/2
f 349/4/2 343/4/2 350/4/2
f 344/4/2 345/4/2 351/4/2
f 350/5/2 344/5/2 351/5/2
f 351/4/2 345/4/2 352/4/2
f 353/4/2 354/4/2 359/4/2
f 354/5/2 355/5/2 360/5/2
f 359/4/2 354/4/2 360/4/2
f 355/4/2 356/4/2 361/4/2
f 360/5/2 355/5/2 361/5/2
f 361/4/2 356/4/2 362/4/2
f 362/4/2 356/4/2 363/4/2
f 356/5/2 357/5/2 364/5/2
f 363/4/2 356/4/2 364/4/2
f 357/4/2 358/4/2 365/4/2
f 364/5/2 357/5/2 365/5/2
f 365/4/2 358/4/2 366/4/2
f 366/4/2 358/4/2 367/4/2
f 360/4/2 361/4/2 368/4/2
f 361/4/2 362/4/2 368/4/2
f 362/5/2 363/5/2 369/5/2
f 368/4/2 362/4/2 369/4/2
f 363/4/2 364/4/2 370/4/2
f 369/5/2 363/5/2 370/5/2
f 365/4/2 366/4/2 370/4/2
f 364/4/2 365/4/2 370/4/2
f 370/4/2 366/4/2 371/4/2
f 374/4/3 373/4/3 372/4/3
f 376/4/3 374/4/3 372/4/3
f 376/5/3 375/5/3 374/5/3
f 377/5/3 375/5/3 376/5/3
f 378/4/3 376/4/3 372/4/3
f 378/4/3 377/4/3 376/4/3
f 379/4/3 377/4/3 378/4/3
f 380/5/3 379/5/3 378/5/3
f 381/4/3 377/4/3 379/4/3
f 381/5/3 379/5/3 380/5/3
f 382/4/3 381/4/3 380/4/3
f 382/4/3 377/4/3 381/4/3
f 383/4/3 377/4/3 382/4/3
f 384/4/3 382/4/3 380/4/3
f 384/5/3 383/5/3 382/5/3
f 385/5/3 383/5/3 384/5/3
f 386/4/3 384/4/3 380/4/3
f 386/4/3 385/4/3 384/4/3
f 387/4/3 385/4/3 386/4/3
f 388/4/3 385/4/3 387/4/3
f 389/5/3 387/5/3 386/5/3
f 390/5/3 387/5/3 389/5/3
f 393/4/3 392/4/3 391/4/3
f 394/4/3 392/4/3 393/4/3
f 396/4/3 395/4/3 394/4/3
f 397/4/3 395/4/3 396/4/3
f 398/4/3 395/4/3 397/4/3
f 400/4/3 399/4/3 398/4/3
f 400/4/3 398/4/3 397/4/3
f 401/4/3 399/4/3 400/4/3
f 402/4/3 399/4/3 401/4/3
f 403/5/3 402/5/3 401/5/3
f 404/5/3 402/5/3 403/5/3
f 405/4/3 404/4/3 403/4/3
f 406/4/3 404/4/3 405/4/3
f 407/4/3 404/4/3 406/4/3
f 408/4/3 404/4/3 407/4/3
f 409/5/3 408/5/3 407/5/3
f 410/4/3 404/4/3 408/4/3
f 410/5/3 408/5/3 409/5/3
f 412/4/3 410/4/3 409/4/3
f 413/4/3 404/4/3 410/4/3
f 413/4/3 410/4/3 412/4/3
f 414/4/3 404/4/3 413/4/3
f 416/4/3 412/4/3 411/4/3
f 416/4/3 413/4/3 412/4/3
f 417/4/3 413/4/3 416/4/3
f 418/4/3 416/4/3 415/4/3
f 419/4/3 416/4/3 418/4/3
f 422/4/3 421/4/3 420/4/3
f 423/4/3 421/4/3 422/4/3
f 426/4/3 425/4/3 424/4/3
f 427/4/3 425/4/3 426/4/3
f 429/4/3 428/4/3 427/4/3
f 431/4/3 429/4/3 427/4/3
f 431/4/3 430/4/3 429/4/3
f 432/4/3 430/4/3 431/4/3
f 433/4/3 430/4/3 432/4/3
f 434/4/3 432/4/3 431/4/3
f 435/5/3 433/5/3 432/5/3
f 435/4/3 432/4/3 434/4/3
f 436/5/3 433/5/3 435/5/3
f 437/4/3 435/4/3 434/4/3
f 437/4/3 436/4/3 435/4/3
f 438/4/3 436/4/3 437/4/3
f 439/5/3 438/5/3 437/5/3
f 440/5/3 438/5/3 439/5/3
f 441/4/3 440/4/3 439/4/3
f 442/4/3 440/4/3 441/4/3
f 444/4/3 441/4/3 439/4/3
f 445/4/3 441/4/3 444/4/3
f 448/4/3 444/4/3 443/4/3
f 449/4/3 444/4/3 448/4/3
f 450/4/3 447/4/3 446/4/3
f 451/4/3 447/4/3 450/4/3
f 454/4/3 453/4/3 452/4/3
f 455/4/3 453/4/3 454/4/3
f 457/4/3 456/4/3 455/4/3
f 459/4/3 457/4/3 455/4/3
f 459/4/3 458/4/3 457/4/3
f 460/4/3 458/4/3 459/4/3
f 461/5/3 460/5/3 459/5/3
f 462/4/3 458/4/3 460/4/3
f 462/5/3 460/5/3 461/5/3
f 463/4/3 462/4/3 461/4/3
f 464/4/3 458/4/3 462/4/3
f 464/4/3 462/4/3 463/4/3
f 465/5/3 464/5/3 463/5/3
f 466/4/3 458/4/3 464/4/3
f 466/5/3 464/5/3 465/5/3
f 467/4/3 458/4/3 466/4/3
f 468/4/3 466/4/3 465/4/3
f 468/5/3 467/5/3 466/5/3
f 469/5/3 467/5/3 468/5/3
f 470/4/3 468/4/3 465/4/3
f 470/4/3 469/4/3 468/4/3
f 471/4/3 469/4/3 470/4/3
f 472/4/3 470/4/3 465/4/3
f 473/5/3 471/5/3 470/5/3
f 473/4/3 470/4/3 472/4/3
f 474/5/3 471/5/3 473/5/3
f 475/4/3 473/4/3 472/4/3
f 475/4/3 474/4/3 473/4/3
f 476/4/3 474/4/3 475/4/3
f 477/4/3 474/4/3 476/4/3
f 479/4/3 476/4/3 475/4/3
f 480/4/3 476/4/3 479/4/3
f 481/4/3 479/4/3 478/4/3
f 482/4/3 479/4/3 481/4/3
f 487/4/3 484/4/3 483/4/3
f 488/4/3 484/4/3 487/4/3
f 491/4/3 490/4/3 489/4/3
f 492/4/3 490/4/3 491/4/3
f 493/4/3 490/4/3 492/4/3
f 494/4/3 490/4/3 493/4/3
f 495/4/3 490/4/3 494/4/3
f 496/2/3 486/2/3 485/2/3
f 497/2/3 486/2/3 496/2/3
f 500/4/3 499/4/3 498/4/3
f 501/4/3 499/4/3 500/4/3
f 506/4/3 503/4/3 502/4/3
f 507/4/3 503/4/3 506/4/3
f 508/1/3 505/1/3 504/1/3
f 509/1/3 505/1/3 508/1/3
f 512/2/3 509/2/3 508/2/3
f 513/1/3 505/1/3 509/1/3
f 513/2/3 509/2/3 512/2/3
f 514/1/3 505/1/3 513/1/3
f 515/1/3 505/1/3 514/1/3
f 516/4/3 511/4/3 510/4/3
f 517/4/3 511/4/3 516/4/3
f 518/1/3 513/1/3 512/1/3
f 518/1/3 514/1/3 513/1/3
f 519/1/3 514/1/3 518/1/3
f 520/2/3 519/2/3 518/2/3
f 521/1/3 514/1/3 519/1/3
f 521/2/3 519/2/3 520/2/3
f 522/5/3 517/5/3 516/5/3
f 523/5/3 517/5/3 522/5/3
f 524/1/3 521/1/3 520/1/3
f 525/1/3 514/1/3 521/1/3
f 525/1/3 521/1/3 524/1/3
f 526/2/3 525/2/3 524/2/3
f 527/1/3 514/1/3 525/1/3
f 527/2/3 525/2/3 526/2/3
f 528/4/3 523/4/3 522/4/3
f 529/4/3 523/4/3 528/4/3
f 530/1/3 527/1/3 526/1/3
f 531/2/3 515/2/3 514/2/3
f 531/1/3 527/1/3 530/1/3
f 531/1/3 514/1/3 527/1/3
f 532/2/3 515/2/3 531/2/3
f 535/4/3 534/4/3 533/4/3
f 536/4/3 534/4/3 535/4/3
f 542/4/3 538/4/3 537/4/3
f 543/4/3 538/4/3 542/4/3
f 544/2/3 540/2/3 539/2/3
f 545/1/3 541/1/3 540/1/3
f 545/2/3 540/2/3 544/2/3
f 546/1/3 541/1/3 545/1/3
f 547/1/3 545/1/3 544/1/3
f 547/1/3 546/1/3 545/1/3
f 548/1/3 546/1/3 547/1/3
f 549/2/3 548/2/3 547/2/3
f 550/2/3 549/2/3 547/2/3
f 551/1/3 547/1/3 544/1/3
f 552/2/3 550/2/3 547/2/3
f 552/1/3 547/1/3 551/1/3
f 553/2/3 550/2/3 552/2/3
f 556/4/3 555/4/3 554/4/3
f 557/4/3 555/4/3 556/4/3
f 558/4/4 559/4/4 563/4/4
f 563/4/4 559/4/4 564/4/4
f 561/2/4 562/2/4 565/2/4
f 560/1/4 561/1/4 565/1/4
f 565/2/4 562/2/4 566/2/4
f 560/1/4 565/1/4 567/1/4
f 565/1/4 566/1/4 567/1/4
f 567/1/4 566/1/4 568/1/4
f 560/1/4 567/1/4 569/1/4
f 567/2/4 568/2/4 569/2/4
f 569/2/4 568/2/4 570/2/4
f 560/1/4 569/1/4 571/1/4
f 569/1/4 570/1/4 571/1/4
f 571/1/4 570/1/4 572/1/4
f 573/4/4 574/4/4 575/4/4
f 575/4/4 574/4/4 576/4/4
f 577/4/4 578/4/4 581/4/4
f 581/4/4 578/4/4 582/4/4
f 579/1/4 580/1/4 583/1/4
f 583/1/4 580/1/4 584/1/4
f 583/2/4 584/2/4 587/2/4
f 584/1/4 580/1/4 588/1/4
f 587/2/4 584/2/4 588/2/4
f 585/4/4 586/4/4 589/4/4
f 587/1/4 588/1/4 590/1/4
f 590/1/4 588/1/4 591/1/4
f 589/4/4 586/4/4 592/4/4
f 592/4/4 586/4/4 593/4/4
f 591/1/4 588/1/4 594/1/4
f 590/2/4 591/2/4 594/2/4
f 594/1/4 588/1/4 595/1/4
f 590/2/4 594/2/4 596/2/4
f 594/2/4 595/2/4 596/2/4
f 595/1/4 588/1/4 597/1/4
f 596/2/4 595/2/4 597/2/4
f 592/5/4 593/5/4 598/5/4
f 598/5/4 593/5/4 599/5/4
f 598/4/4 599/4/4 600/4/4
f 600/4/4 599/4/4 601/4/4
f 596/1/4 597/1/4 602/1/4
f 588/1/4 580/1/4 603/1/4
f 602/1/4 597/1/4 603/1/4
f 597/1/4 588/1/4 603/1/4
f 604/4/4 605/4/4 606/4/4
f 606/4/4 605/4/4 607/4/4
f 608/4/4 609/4/4 612/4/4
f 612/4/4 609/4/4 613/4/4
f 614/4/4 615/4/4 616/4/4
f 616/4/4 615/4/4 617/4/4
f 616/5/4 617/5/4 618/5/4
f 618/5/4 617/5/4 619/5/4
f 618/4/4 619/4/4 620/4/4
f 620/4/4 619/4/4 621/4/4
f 610/2/4 611/2/4 622/2/4
f 622/2/4 611/2/4 623/2/4
f 624/4/4 625/4/4 626/4/4
f 626/4/4 625/4/4 627/4/4
f 628/4/4 629/4/4 630/4/4
f 630/4/4 629/4/4 631/4/4
f 631/4/4 632/4/4 633/4/4
f 631/4/4 633/4/4 635/4/4
f 633/5/4 634/5/4 635/5/4
f 635/5/4 634/5/4 636/5/4
f 631/4/4 635/4/4 637/4/4
f 635/4/4 636/4/4 637/4/4
f 637/4/4 636/4/4 638/4/4
f 637/5/4 638/5/4 639/5/4
f 638/4/4 636/4/4 640/4/4
f 639/5/4 638/5/4 640/5/4
f 639/4/4 640/4/4 641/4/4
f 641/4/4 640/4/4 642/4/4
f 640/4/4 636/4/4 643/4/4
f 642/4/4 640/4/4 643/4/4
f 643/4/4 636/4/4 644/4/4
f 642/4/4 643/4/4 646/4/4
f 646/4/4 643/4/4 647/4/4
f 645/4/4 646/4/4 648/4/4
f 648/4/4 646/4/4 649/4/4
f 650/4/4 651/4/4 652/4/4
f 652/4/4 651/4/4 653/4/4
f 654/4/4 655/4/4 656/4/4
f 656/4/4 655/4/4 657/4/4
f 657/4/4 658/4/4 659/4/4
f 657/4/4 659/4/4 661/4/4
f 659/4/4 660/4/4 661/4/4
f 661/4/4 660/4/4 662/4/4
f 657/4/4 661/4/4 663/4/4
f 661/5/4 662/5/4 663/5/4
f 663/5/4 662/5/4 664/5/4
f 657/4/4 663/4/4 665/4/4
f 663/4/4 664/4/4 665/4/4
f 665/4/4 664/4/4 666/4/4
f 666/4/4 664/4/4 667/4/4
f 667/4/4 664/4/4 668/4/4
f 668/4/4 664/4/4 669/4/4
f 667/4/4 668/4/4 670/4/4
f 668/5/4 669/5/4 671/5/4
f 670/4/4 668/4/4 671/4/4
f 671/5/4 669/5/4 672/5/4
f 670/5/4 671/5/4 673/5/4
f 671/4/4 672/4/4 674/4/4
f 673/5/4 671/5/4 674/5/4
f 673/4/4 674/4/4 675/4/4
f 674/4/4 672/4/4 675/4/4
f 675/4/4 672/4/4 676/4/4
f 673/4/4 675/4/4 678/4/4
f 678/4/4 675/4/4 679/4/4
f 677/4/4 678/4/4 682/4/4
f 682/4/4 678/4/4 683/4/4
f 680/4/4 681/4/4 684/4/4
f 684/4/4 681/4/4 685/4/4
f 686/4/4 687/4/4 688/4/4
f 688/4/4 687/4/4 689/4/4
f 689/4/4 690/4/4 691/4/4
f 691/4/4 690/4/4 692/4/4
f 692/4/4 690/4/4 693/4/4
f 693/4/4 694/4/4 695/4/4
f 692/4/4 693/4/4 695/4/4
f 695/4/4 694/4/4 696/4/4
f 696/4/4 694/4/4 697/4/4
f 696/5/4 697/5/4 698/5/4
f 697/4/4 694/4/4 699/4/4
f 698/5/4 697/5/4 699/5/4
f 699/4/4 694/4/4 700/4/4
f 698/4/4 699/4/4 701/4/4
f 699/5/4 700/5/4 701/5/4
f 701/5/4 700/5/4 702/5/4
f 698/4/4 701/4/4 703/4/4
f 701/4/4 702/4/4 703/4/4
f 703/4/4 702/4/4 704/4/4
f 703/5/4 704/5/4 705/5/4
f 705/5/4 704/5/4 706/5/4
f 705/4/4 706/4/4 708/4/4
f 708/4/4 706/4/4 709/4/4
f 709/4/4 706/4/4 710/4/4
f 707/4/4 708/4/4 712/4/4
f 708/4/4 709/4/4 712/4/4
f 712/4/4 709/4/4 713/4/4
f 711/4/4 712/4/4 714/4/4
f 714/4/4 712/4/4 715/4/4
f 716/4/4 717/4/4 718/4/4
f 716/4/4 718/4/4 720/4/4
f 718/4/4 719/4/4 720/4/4
f 720/4/4 719/4/4 721/4/4
f 716/4/4 720/4/4 722/4/4
f 720/5/4 721/5/4 722/5/4
f 722/5/4 721/5/4 723/5/4
f 716/4/4 722/4/4 724/4/4
f 722/4/4 723/4/4 724/4/4
f 724/4/4 723/4/4 725/4/4
f 724/5/4 725/5/4 726/5/4
f 725/4/4 723/4/4 727/4/4
f 726/5/4 725/5/4 727/5/4
f 726/4/4 727/4/4 728/4/4
f 727/4/4 723/4/4 728/4/4
f 728/4/4 723/4/4 729/4/4
f 726/4/4 728/4/4 730/4/4
f 730/4/4 728/4/4 731/4/4
f 735/2/5 733/2/5 732/2/5
f 736/1/5 734/1/5 733/1/5
f 736/2/5 733/2/5 735/2/5
f 737/1/5 734/1/5 736/1/5
f 738/1/5 734/1/5 737/1/5
f 739/1/5 736/1/5 735/1/5
f 739/1/5 737/1/5 736/1/5
f 739/2/5 738/2/5 737/2/5
f 740/2/5 738/2/5 739/2/5
f 741/1/5 739/1/5 735/1/5
f 741/1/5 740/1/5 739/1/5
f 742/1/5 740/1/5 741/1/5
f 751/1/5 744/1/5 743/1/5
f 752/2/5 745/2/5 744/2/5
f 752/1/5 744/1/5 751/1/5
f 753/1/5 746/1/5 745/1/5
f 753/2/5 745/2/5 752/2/5
f 754/2/5 747/2/5 746/2/5
f 754/1/5 746/1/5 753/1/5
f 755/1/5 748/1/5 747/1/5
f 755/2/5 747/2/5 754/2/5
f 756/2/5 749/2/5 748/2/5
f 756/1/5 748/1/5 755/1/5
f 757/1/5 750/1/5 749/1/5
f 757/2/5 749/2/5 756/2/5
f 758/2/5 752/2/5 751/2/5
f 759/2/5 752/2/5 758/2/5
f 760/1/5 750/1/5 757/1/5
f 761/1/5 759/1/5 758/1/5
f 762/1/5 759/1/5 761/1/5
f 763/1/5 750/1/5 760/1/5
f 764/1/5 750/1/5 763/1/5
f 765/2/5 762/2/5 761/2/5
f 766/2/5 762/2/5 765/2/5
f 767/1/5 766/1/5 765/1/5
f 768/1/5 766/1/5 767/1/5
f 769/2/5 764/2/5 763/2/5
f 770/2/5 764/2/5 769/2/5
f 771/2/5 768/2/5 767/2/5
f 772/2/5 768/2/5 771/2/5
f 776/1/5 770/1/5 769/1/5
f 777/1/5 772/1/5 771/1/5
f 778/2/5 773/2/5 772/2/5
f 778/1/5 772/1/5 777/1/5
f 779/1/5 774/1/5 773/1/5
f 779/2/5 773/2/5 778/2/5
f 780/2/5 775/2/5 774/2/5
f 780/1/5 774/1/5 779/1/5
f 781/1/5 776/1/5 775/1/5
f 781/2/5 775/2/5 780/2/5
f 782/1/5 770/1/5 776/1/5
f 782/1/5 776/1/5 781/1/5
f 785/2/5 784/2/5 783/2/5
f 786/2/5 784/2/5 785/2/5
f 787/2/5 784/2/5 786/2/5
f 788/2/5 784/2/5 787/2/5
f 789/2/5 785/2/5 783/2/5
f 790/2/5 784/2/5 788/2/5
f 791/2/5 789/2/5 783/2/5
f 791/2/5 790/2/5 789/2/5
f 792/2/5 784/2/5 790/2/5
f 792/2/5 790/2/5 791/2/5
f 799/4/5 794/4/5 793/4/5
f 800/5/5 795/5/5 794/5/5
f 800/4/5 794/4/5 799/4/5
f 801/4/5 796/4/5 795/4/5
f 801/5/5 795/5/5 800/5/5
f 802/5/5 797/5/5 796/5/5
f 802/4/5 796/4/5 801/4/5
f 803/5/5 797/5/5 802/5/5
f 805/4/5 801/4/5 800/4/5
f 805/4/5 804/4/5 803/4/5
f 805/4/5 803/4/5 802/4/5
f 805/4/5 802/4/5 801/4/5
f 805/4/5 799/4/5 798/4/5
f 805/4/5 800/4/5 799/4/5
f 806/4/5 804/4/5 805/4/5
f 807/4/5 804/4/5 806/4/5
f 808/4/5 804/4/5 807/4/5
f 809/4/5 807/4/5 806/4/5
f 809/5/5 808/5/5 807/5/5
f 810/5/5 808/5/5 809/5/5
f 811/5/5 806/5/5 805/5/5
f 812/4/5 809/4/5 806/4/5
f 812/5/5 806/5/5 811/5/5
f 812/4/5 810/4/5 809/4/5
f 813/4/5 810/4/5 812/4/5
f 814/4/5 810/4/5 813/4/5
f 815/4/5 812/4/5 811/4/5
f 815/4/5 813/4/5 812/4/5
f 816/4/5 813/4/5 815/4/5
f 817/5/5 816/5/5 815/5/5
f 818/4/5 813/4/5 816/4/5
f 818/5/5 816/5/5 817/5/5
f 819/4/5 810/4/5 814/4/5
f 820/4/5 810/4/5 819/4/5
f 821/4/5 813/4/5 818/4/5
f 821/4/5 818/4/5 817/4/5
f 822/4/5 819/4/5 814/4/5
f 823/5/5 820/5/5 819/5/5
f 823/4/5 819/4/5 822/4/5
f 824/5/5 820/5/5 823/5/5
f 825/4/5 822/4/5 821/4/5
f 825/4/5 821/4/5 817/4/5
f 825/4/5 824/4/5 823/4/5
f 825/4/5 823/4/5 822/4/5
f 826/4/5 824/4/5 825/4/5
f 827/4/5 824/4/5 826/4/5
f 828/4/5 824/4/5 827/4/5
f 829/4/5 824/4/5 828/4/5
f 830/4/5 824/4/5 829/4/5
f 831/4/5 827/4/5 826/4/5
f 832/5/5 828/5/5 827/5/5
f 832/4/5 827/4/5 831/4/5
f 833/4/5 829/4/5 828/4/5
f 833/5/5 828/5/5 832/5/5
f 834/4/5 829/4/5 833/4/5
f 835/4/6 836/4/6 840/4/6
f 840/4/6 836/4/6 841/4/6
f 837/5/6 838/5/6 842/5/6
f 842/5/6 838/5/6 843/5/6
f 839/4/6 840/4/6 845/4/6
f 845/4/6 840/4/6 846/4/6
f 843/4/6 844/4/6 847/4/6
f 847/4/6 844/4/6 848/4/6
f 849/4/6 850/4/6 853/4/6
f 853/4/6 850/4/6 854/4/6
f 851/4/6 852/4/6 857/4/6
f 857/4/6 852/4/6 858/4/6
f 854/4/6 855/4/6 859/4/6
f 859/4/6 855/4/6 860/4/6
f 856/4/6 857/4/6 861/4/6
f 861/4/6 857/4/6 862/4/6
f 863/5/6 864/5/6 868/5/6
f 864/4/6 865/4/6 869/4/6
f 868/5/6 864/5/6 869/5/6
f 869/4/6 865/4/6 870/4/6
f 870/4/6 865/4/6 871/4/6
f 865/5/6 866/5/6 872/5/6
f 871/4/6 865/4/6 872/4/6
f 866/4/6 867/4/6 873/4/6
f 872/5/6 866/5/6 873/5/6
f 873/4/6 867/4/6 874/4/6
f 874/4/6 867/4/6 875/4/6
f 875/4/6 867/4/6 876/4/6
f 879/4/6 880/4/6 881/4/6
f 877/4/6 878/4/6 882/4/6
f 881/4/6 880/4/6 883/4/6
f 877/4/6 882/4/6 884/4/6
f 883/4/6 880/4/6 885/4/6
f 885/4/6 880/4/6 886/4/6
f 885/5/6 886/5/6 887/5/6
f 887/5/6 886/5/6 888/5/6
f 877/4/6 884/4/6 889/4/6
f 889/4/6 884/4/6 890/4/6
f 889/5/6 890/5/6 891/5/6
f 891/5/6 890/5/6 892/5/6
f 891/4/6 892/4/6 893/4/6
f 893/4/6 892/4/6 894/4/6
f 887/4/6 888/4/6 895/4/6
f 895/4/6 888/4/6 896/4/6
f 897/4/6 898/4/6 904/4/6
f 898/5/6 899/5/6 905/5/6
f 904/4/6 898/4/6 905/4/6
f 902/4/6 903/4/6 906/4/6
f 905/5/6 899/5/6 906/5/6
f 899/4/6 900/4/6 906/4/6
f 901/4/6 902/4/6 906/4/6
f 900/4/6 901/4/6 906/4/6
f 906/4/6 903/4/6 907/4/6
f 908/4/6 909/4/6 912/4/6
f 912/4/6 909/4/6 913/4/6
f 910/4/6 911/4/6 914/4/6
f 914/4/6 911/4/6 915/4/6
f 916/4/6 917/4/6 920/4/6
f 920/4/6 917/4/6 921/4/6
f 918/4/6 919/4/6 922/4/6
f 922/4/6 919/4/6 923/4/6
f 924/4/6 925/4/6 929/4/6
f 925/5/6 926/5/6 930/5/6
f 929/4/6 925/4/6 930/4/6
f 926/4/6 927/4/6 931/4/6
f 930/5/6 926/5/6 931/5/6
f 931/4/6 927/4/6 932/4/6
f 932/4/6 927/4/6 933/4/6
f 933/4/6 927/4/6 934/4/6
f 928/4/6 929/4/6 936/4/6
f 928/4/6 936/4/6 937/4/6
f 934/4/6 935/4/6 938/4/6
f 938/4/6 935/4/6 939/4/6
f 938/5/6 939/5/6 940/5/6
f 940/5/6 939/5/6 941/5/6
f 928/4/6 937/4/6 942/4/6
f 942/4/6 937/4/6 943/4/6
f 942/5/6 943/5/6 944/5/6
f 944/5/6 943/5/6 945/5/6
f 940/4/6 941/4/6 946/4/6
f 946/4/6 941/4/6 947/4/6
f 946/5/6 947/5/6 948/5/6
f 948/5/6 947/5/6 949/5/6
f 948/4/6 949/4/6 950/4/6
f 944/4/6 945/4/6 951/4/6
f 950/4/6 949/4/6 952/4/6
f 944/4/6 951/4/6 953/4/6
f 944/4/6 953/4/6 954/4/6
f 954/4/6 953/4/6 955/4/6
f 952/4/6 949/4/6 961/4/6
f 961/4/6 949/4/6 962/4/6
f 955/4/6 956/4/6 963/4/6
f 956/5/6 957/5/6 964/5/6
f 963/4/6 956/4/6 964/4/6
f 957/4/6 958/4/6 965/4/6
f 964/5/6 957/5/6 965/5/6
f 958/5/6 959/5/6 966/5/6
f 965/4/6 958/4/6 966/4/6
f 959/4/6 960/4/6 967/4/6
f 966/5/6 959/5/6 967/5/6
f 960/4/6 961/4/6 967/4/6
f 967/4/6 961/4/6 968/4/6
f 969/4/6 970/4/6 973/4/6
f 973/4/6 970/4/6 974/4/6
f 971/4/6 972/4/6 975/4/6
f 975/4/6 972/4/6 976/4/6
f 977/4/6 978/4/6 981/4/6
f 981/4/6 978/4/6 982/4/6
f 979/4/6 980/4/6 983/4/6
f 983/4/6 980/4/6 984/4/6
f 985/4/6 986/4/6 992/4/6
f 986/5/6 987/5/6 993/5/6
f 992/4/6 986/4/6 993/4/6
f 987/4/6 988/4/6 994/4/6
f 993/5/6 987/5/6 994/5/6
f 994/4/6 988/4/6 995/4/6
f 995/4/6 988/4/6 996/4/6
f 988/5/6 989/5/6 997/5/6
f 996/4/6 988/4/6 997/4/6
f 989/4/6 990/4/6 998/4/6
f 997/5/6 989/5/6 998/5/6
f 998/4/6 990/4/6 999/4/6
f 999/4/6 1000/4/6 1001/4/6
f 1001/4/6 1000/4/6 1002/4/6
f 1002/4/6 1000/4/6 1003/4/6
f 1003/4/6 1000/4/6 1004/4/6
f 1003/5/6 1004/5/6 1005/5/6
f 1005/5/6 1004/5/6 1006/5/6
f 991/4/6 992/4/6 1007/4/6
f 1005/4/6 1006/4/6 1008/4/6
f 991/4/6 1007/4/6 1009/4/6
f 991/4/6 1009/4/6 1010/4/6
f 1010/4/6 1009/4/6 1011/4/6
f 1010/5/6 1011/5/6 1012/5/6
f 1012/5/6 1011/5/6 1013/5/6
f 1008/4/6 1006/4/6 1014/4/6
f 1014/4/6 1006/4/6 1015/4/6
f 1014/5/6 1015/5/6 1016/5/6
f 1016/5/6 1015/5/6 1017/5/6
f 1012/4/6 1013/4/6 1018/4/6
f 1018/4/6 1013/4/6 1019/4/6
f 1016/4/6 1017/4/6 1024/4/6
f 1024/4/6 1017/4/6 1025/4/6
f 1019/4/6 1020/4/6 1026/4/6
f 1020/5/6 1021/5/6 1027/5/6
f 1026/4/6 1020/4/6 1027/4/6
f 1021/4/6 1022/4/6 1028/4/6
f 1027/5/6 1021/5/6 1028/5/6
f 1022/5/6 1023/5/6 1029/5/6
f 1028/4/6 1022/4/6 1029/4/6
f 1023/4/6 1024/4/6 1030/4/6
f 1029/5/6 1023/5/6 1030/5/6
f 1030/4/6 1024/4/6 1031/4/6
f 1032/4/6 1033/4/6 1036/4/6
f 1036/4/6 1033/4/6 1037/4/6
f 1034/4/6 1035/4/6 1038/4/6
f 1038/4/6 1035/4/6 1039/4/6
f 1040/4/6 1041/4/6 1044/4/6
f 1044/4/6 1041/4/6 1045/4/6
f 1042/4/6 1043/4/6 1046/4/6
f 1046/4/6 1043/4/6 1047/4/6
f 1048/4/6 1049/4/6 1055/4/6
f 1055/4/6 1049/4/6 1056/4/6
f 1049/5/6 1050/5/6 1057/5/6
f 1056/4/6 1049/4/6 1057/4/6
f 1050/4/6 1051/4/6 1058/4/6
f 1057/5/6 1050/5/6 1058/5/6
f 1051/5/6 1052/5/6 1059/5/6
f 1058/4/6 1051/4/6 1059/4/6
f 1052/4/6 1053/4/6 1060/4/6
f 1059/5/6 1052/5/6 1060/5/6
f 1060/4/6 1053/4/6 1061/4/6
f 1055/4/6 1056/4/6 1063/4/6
f 1054/4/6 1055/4/6 1063/4/6
f 1063/4/6 1056/4/6 1064/4/6
f 1061/4/6 1062/4/6 1065/4/6
f 1060/4/6 1061/4/6 1065/4/6
f 1065/4/6 1062/4/6 1066/4/6
f 1066/4/6 1062/4/6 1067/4/6
f 1054/4/6 1063/4/6 1068/4/6
f 1068/4/6 1063/4/6 1069/4/6
f 1066/5/6 1067/5/6 1070/5/6
f 1070/5/6 1067/5/6 1071/5/6
f 1068/5/6 1069/5/6 1072/5/6
f 1072/5/6 1069/5/6 1073/5/6
f 1070/4/6 1071/4/6 1074/4/6
f 1072/4/6 1073/4/6 1075/4/6
f 1074/4/6 1071/4/6 1076/4/6
f 1072/4/6 1075/4/6 1077/4/6
f 1077/4/6 1075/4/6 1078/4/6
f 1077/5/6 1078/5/6 1079/5/6
f 1079/5/6 1078/5/6 1080/5/6
f 1076/4/6 1071/4/6 1081/4/6
f 1081/4/6 1071/4/6 1082/4/6
f 1079/4/6 1080/4/6 1083/4/6
f 1082/4/6 1071/4/6 1086/4/6
f 1083/4/6 1084/4/6 1087/4/6
f 1079/4/6 1083/4/6 1087/4/6
f 1087/4/6 1084/4/6 1088/4/6
f 1088/4/6 1084/4/6 1089/4/6
f 1085/4/6 1086/4/6 1092/4/6
f 1086/4/6 1071/4/6 1093/4/6
f 1092/4/6 1086/4/6 1093/4/6
f 1093/4/6 1071/4/6 1094/4/6
f 1088/5/6 1089/5/6 1095/5/6
f 1090/4/6 1091/4/6 1096/4/6
f 1095/5/6 1089/5/6 1096/5/6
f 1091/4/6 1092/4/6 1096/4/6
f 1092/4/6 1093/4/6 1096/4/6
f 1089/4/6 1090/4/6 1096/4/6
f 1096/4/6 1093/4/6 1097/4/6
f 1098/4/6 1099/4/6 1101/4/6
f 1101/4/6 1099/4/6 1102/4/6
f 1102/4/6 1099/4/6 1103/4/6
f 1103/4/6 1099/4/6 1104/4/6
f 1104/4/6 1099/4/6 1105/4/6
f 1105/4/6 1099/4/6 1106/4/6
f 1100/4/6 1101/4/6 1108/4/6
f 1101/4/6 1102/4/6 1108/4/6
f 1108/4/6 1102/4/6 1109/4/6
f 1106/4/6 1107/4/6 1110/4/6
f 1105/4/6 1106/4/6 1110/4/6
f 1110/4/6 1107/4/6 1111/4/6
f 1100/4/6 1108/4/6 1112/4/6
f 1112/4/6 1108/4/6 1113/4/6
f 1111/4/6 1107/4/6 1114/4/6
f 1114/4/6 1107/4/6 1115/4/6
f 1112/5/6 1113/5/6 1116/5/6
f 1116/5/6 1113/5/6 1117/5/6
f 1114/5/6 1115/5/6 1118/5/6
f 1118/5/6 1115/5/6 1119/5/6
f 1116/4/6 1117/4/6 1120/4/6
f 1118/4/6 1119/4/6 1121/4/6
f 1116/4/6 1120/4/6 1122/4/6
f 1121/4/6 1119/4/6 1123/4/6
f 1123/4/6 1119/4/6 1124/4/6
f 1116/4/6 1122/4/6 1125/4/6
f 1123/5/6 1124/5/6 1128/5/6
f 1128/5/6 1124/5/6 1129/5/6
f 1125/4/6 1126/4/6 1130/4/6
f 1116/4/6 1125/4/6 1130/4/6
f 1130/4/6 1126/4/6 1131/4/6
f 1131/4/6 1126/4/6 1132/4/6
f 1128/4/6 1129/4/6 1136/4/6
f 1127/4/6 1128/4/6 1136/4/6
f 1136/4/6 1129/4/6 1137/4/6
f 1137/4/6 1129/4/6 1138/4/6
f 1131/4/6 1132/4/6 1139/4/6
f 1132/5/6 1133/5/6 1140/5/6
f 1139/4/6 1132/4/6 1140/4/6
f 1134/4/6 1135/4/6 1141/4/6
f 1140/5/6 1133/5/6 1141/5/6
f 1133/4/6 1134/4/6 1141/4/6
f 1135/4/6 1136/4/6 1141/4/6
f 1136/4/6 1137/4/6 1141/4/6
f 1141/4/6 1137/4/6 1142/4/6
f 1143/4/6 1144/4/6 1148/4/6
f 1144/5/6 1145/5/6 1149/5/6
f 1148/4/6 1144/4/6 1149/4/6
f 1145/4/6 1146/4/6 1150/4/6
f 1149/5/6 1145/5/6 1150/5/6
f 1150/4/6 1146/4/6 1151/4/6
f 1148/4/6 1149/4/6 1153/4/6
f 1151/4/6 1152/4/6 1153/4/6
f 1150/4/6 1151/4/6 1153/4/6
f 1149/4/6 1150/4/6 1153/4/6
f 1147/4/6 1148/4/6 1153/4/6
f 1153/4/6 1152/4/6 1154/4/6
f 1154/4/6 1152/4/6 1155/4/6
f 1155/4/6 1152/4/6 1156/4/6
f 1147/4/6 1153/4/6 1157/4/6
f 1157/4/6 1153/4/6 1158/4/6
f 1153/5/6 1154/5/6 1159/5/6
f 1158/4/6 1153/4/6 1159/4/6
f 1154/4/6 1155/4/6 1160/4/6
f 1159/5/6 1154/5/6 1160/5/6
f 1155/5/6 1156/5/6 1161/5/6
f 1160/4/6 1155/4/6 1161/4/6
f 1161/5/6 1156/5/6 1162/5/6
f 1157/5/6 1158/5/6 1163/5/6
f 1158/4/6 1159/4/6 1164/4/6
f 1163/5/6 1158/5/6 1164/5/6
f 1159/4/6 1160/4/6 1164/4/6
f 1161/4/6 1162/4/6 1164/4/6
f 1160/4/6 1161/4/6 1164/4/6
f 1163/4/6 1164/4/6 1165/4/6
f 1164/4/6 1162/4/6 1166/4/6
f 1165/4/6 1164/4/6 1166/4/6
f 1166/4/6 1162/4/6 1167/4/6
f 1167/4/6 1162/4/6 1168/4/6
f 1168/4/6 1162/4/6 1169/4/6
f 1169/4/6 1162/4/6 1170/4/6
f 1166/4/6 1167/4/6 1171/4/6
f 1167/5/6 1168/5/6 1172/5/6
f 1171/4/6 1167/4/6 1172/4/6
f 1168/4/6 1169/4/6 1173/4/6
f 1172/5/6 1168/5/6 1173/5/6
f 1173/4/6 1169/4/6 1174/4/6
