# MagicaVoxel @ Ephtracy

# group
o 

# material
mtllib water.mtl
usemtl palette

# normals
vn -1 0 0
vn 1 0 0
vn 0 0 1
vn 0 0 -1
vn 0 -1 0
vn 0 1 0

# texcoords
vt 0.548828 0.5
vt 0.728516 0.5
vt 0.736328 0.5

# verts
v -0.7 0.4 0.7
v -0.7 0.4 -0.7
v -0.7 0.5 0.7
v -0.7 0.5 0.6
v -0.7 0.5 0.5
v -0.7 0.5 0.4
v -0.7 0.5 0.3
v -0.7 0.5 0.2
v -0.7 0.5 0.1
v -0.7 0.5 -5.96046e-08
v -0.7 0.5 -0.1
v -0.7 0.5 -0.2
v -0.7 0.5 -0.3
v -0.7 0.5 -0.4
v -0.7 0.5 -0.5
v -0.7 0.5 -0.6
v -0.7 0.6 0.7
v -0.7 0.6 0.6
v -0.7 0.6 0.5
v -0.7 0.6 0.4
v -0.7 0.6 0.3
v -0.7 0.6 0.2
v -0.7 0.6 0.1
v -0.7 0.6 -5.96046e-08
v -0.7 0.6 -0.1
v -0.7 0.6 -0.2
v -0.7 0.6 -0.3
v -0.7 0.6 -0.4
v -0.7 0.6 -0.5
v -0.7 0.6 -0.6
v -0.7 0.6 -0.7
v -0.7 0.7 0.6
v -0.7 0.7 0.5
v -0.7 0.7 0.4
v -0.7 0.7 0.3
v -0.7 0.7 0.2
v -0.7 0.7 0.1
v -0.7 0.7 -5.96046e-08
v -0.7 0.7 -0.1
v -0.7 0.7 -0.2
v -0.7 0.7 -0.3
v -0.7 0.7 -0.4
v -0.7 0.7 -0.5
v -0.7 0.7 -0.6
v -0.7 0.7 -0.7
v -0.7 0.8 0.7
v -0.7 0.8 -0.7
v -0.6 0.2 0.6
v -0.6 0.2 -0.6
v -0.6 0.4 0.6
v -0.6 0.4 -0.6
v -0.6 0.8 0.6
v -0.6 0.8 -0.6
v -0.6 1 0.6
v -0.6 1 -0.6
v -0.5 0 0.5
v -0.5 0 -0.5
v -0.5 0.2 0.5
v -0.5 0.2 -0.5
v -0.5 1 0.5
v -0.5 1 -0.5
v -0.5 1.2 0.5
v -0.5 1.2 -0.5
v -0.4 1.2 0.4
v -0.4 1.2 -0.4
v -0.4 1.4 0.4
v -0.4 1.4 -0.4
v -0.4 2 0.4
v -0.4 2 -0.4
v -0.4 2.1 0.4
v -0.4 2.1 -0.4
v -0.4 2.2 0.4
v -0.4 2.2 -0.4
v -0.3 1.4 0.3
v -0.3 1.4 -0.3
v -0.3 1.5 -5.96046e-08
v -0.3 1.5 -0.1
v -0.3 1.8 0.2
v -0.3 1.8 0.1
v -0.3 2 0.3
v -0.3 2 0.2
v -0.3 2 0.1
v -0.3 2 -5.96046e-08
v -0.3 2 -0.1
v -0.3 2 -0.3
v 0.2 2.1 0.2
v 0.2 2.1 -0.2
v 0.2 2.2 0.2
v 0.2 2.2 -0.2
v -0.2 2.1 0.2
v -0.2 2.1 -0.2
v -0.2 2.2 0.2
v -0.2 2.2 -0.2
v 0.3 1.4 0.3
v 0.3 1.4 -0.3
v 0.3 1.6 0.3
v 0.3 1.6 0.2
v 0.3 1.7 -5.96046e-08
v 0.3 1.7 -0.1
v 0.3 1.9 -0.2
v 0.3 1.9 -0.3
v 0.3 2 0.3
v 0.3 2 0.2
v 0.3 2 -5.96046e-08
v 0.3 2 -0.1
v 0.3 2 -0.2
v 0.3 2 -0.3
v 0.4 1.2 0.4
v 0.4 1.2 -0.4
v 0.4 1.4 0.4
v 0.4 1.4 -0.4
v 0.4 2 0.4
v 0.4 2 -0.4
v 0.4 2.1 0.4
v 0.4 2.1 -0.4
v 0.4 2.2 0.4
v 0.4 2.2 -0.4
v 0.5 0 0.5
v 0.5 0 -0.5
v 0.5 0.2 0.5
v 0.5 0.2 -0.5
v 0.5 1 0.5
v 0.5 1 -0.5
v 0.5 1.2 0.5
v 0.5 1.2 -0.5
v 0.6 0.2 0.6
v 0.6 0.2 -0.6
v 0.6 0.4 0.6
v 0.6 0.4 -0.6
v 0.6 0.8 0.6
v 0.6 0.8 -0.6
v 0.6 1 0.6
v 0.6 1 -0.6
v 0.7 0.4 0.7
v 0.7 0.4 -0.7
v 0.7 0.5 0.6
v 0.7 0.5 0.5
v 0.7 0.5 0.4
v 0.7 0.5 0.3
v 0.7 0.5 0.2
v 0.7 0.5 0.1
v 0.7 0.5 -5.96046e-08
v 0.7 0.5 -0.1
v 0.7 0.5 -0.2
v 0.7 0.5 -0.3
v 0.7 0.5 -0.4
v 0.7 0.5 -0.5
v 0.7 0.5 -0.6
v 0.7 0.5 -0.7
v 0.7 0.6 0.7
v 0.7 0.6 0.6
v 0.7 0.6 0.5
v 0.7 0.6 0.4
v 0.7 0.6 0.3
v 0.7 0.6 0.2
v 0.7 0.6 0.1
v 0.7 0.6 -5.96046e-08
v 0.7 0.6 -0.1
v 0.7 0.6 -0.2
v 0.7 0.6 -0.3
v 0.7 0.6 -0.4
v 0.7 0.6 -0.5
v 0.7 0.6 -0.6
v 0.7 0.6 -0.7
v 0.7 0.7 0.7
v 0.7 0.7 0.6
v 0.7 0.7 0.5
v 0.7 0.7 0.4
v 0.7 0.7 0.3
v 0.7 0.7 0.2
v 0.7 0.7 0.1
v 0.7 0.7 -5.96046e-08
v 0.7 0.7 -0.1
v 0.7 0.7 -0.2
v 0.7 0.7 -0.3
v 0.7 0.7 -0.4
v 0.7 0.7 -0.5
v 0.7 0.7 -0.6
v 0.7 0.8 0.7
v 0.7 0.8 -0.7
v -0.7 0.4 0.7
v -0.7 0.5 0.7
v -0.7 0.6 0.7
v -0.7 0.8 0.7
v -0.6 0.5 0.7
v -0.6 0.6 0.7
v -0.6 0.7 0.7
v -0.5 0.5 0.7
v -0.5 0.6 0.7
v -0.5 0.7 0.7
v -0.4 0.5 0.7
v -0.4 0.6 0.7
v -0.4 0.7 0.7
v -0.3 0.5 0.7
v -0.3 0.6 0.7
v -0.3 0.7 0.7
v -0.2 0.5 0.7
v -0.2 0.6 0.7
v -0.2 0.7 0.7
v -0.1 0.5 0.7
v -0.1 0.6 0.7
v -0.1 0.7 0.7
v 5.96046e-08 0.5 0.7
v 5.96046e-08 0.6 0.7
v 5.96046e-08 0.7 0.7
v 0.1 0.5 0.7
v 0.1 0.6 0.7
v 0.1 0.7 0.7
v 0.2 0.5 0.7
v 0.2 0.6 0.7
v 0.2 0.7 0.7
v 0.3 0.5 0.7
v 0.3 0.6 0.7
v 0.3 0.7 0.7
v 0.4 0.5 0.7
v 0.4 0.6 0.7
v 0.4 0.7 0.7
v 0.5 0.5 0.7
v 0.5 0.6 0.7
v 0.5 0.7 0.7
v 0.6 0.5 0.7
v 0.6 0.6 0.7
v 0.6 0.7 0.7
v 0.7 0.4 0.7
v 0.7 0.6 0.7
v 0.7 0.7 0.7
v 0.7 0.8 0.7
v -0.6 0.2 0.6
v -0.6 0.4 0.6
v -0.6 0.8 0.6
v -0.6 1 0.6
v 0.6 0.2 0.6
v 0.6 0.4 0.6
v 0.6 0.8 0.6
v 0.6 1 0.6
v -0.5 0 0.5
v -0.5 0.2 0.5
v -0.5 1 0.5
v -0.5 1.2 0.5
v 0.5 0 0.5
v 0.5 0.2 0.5
v 0.5 1 0.5
v 0.5 1.2 0.5
v -0.4 1.2 0.4
v -0.4 1.4 0.4
v -0.4 2 0.4
v -0.4 2.1 0.4
v -0.4 2.2 0.4
v 0.4 1.2 0.4
v 0.4 1.4 0.4
v 0.4 2 0.4
v 0.4 2.1 0.4
v 0.4 2.2 0.4
v -0.3 1.4 0.3
v -0.3 2 0.3
v -0.2 1.7 0.3
v -0.2 2 0.3
v -0.1 1.7 0.3
v -0.1 2 0.3
v 5.96046e-08 1.8 0.3
v 5.96046e-08 2 0.3
v 0.1 1.8 0.3
v 0.1 2 0.3
v 0.2 1.6 0.3
v 0.2 2 0.3
v 0.3 1.4 0.3
v 0.3 1.6 0.3
v 0.3 2 0.3
v -0.2 2.1 -0.2
v -0.2 2.2 -0.2
v 0.2 2.1 -0.2
v 0.2 2.2 -0.2
v -0.2 2.1 0.2
v -0.2 2.2 0.2
v 0.2 2.1 0.2
v 0.2 2.2 0.2
v -0.3 1.4 -0.3
v -0.3 2 -0.3
v -0.2 1.8 -0.3
v -0.2 2 -0.3
v -0.1 1.8 -0.3
v -0.1 2 -0.3
v 5.96046e-08 1.7 -0.3
v 5.96046e-08 2 -0.3
v 0.1 1.7 -0.3
v 0.1 2 -0.3
v 0.2 1.9 -0.3
v 0.2 2 -0.3
v 0.3 1.4 -0.3
v 0.3 1.9 -0.3
v 0.3 2 -0.3
v -0.4 1.2 -0.4
v -0.4 1.4 -0.4
v -0.4 2 -0.4
v -0.4 2.1 -0.4
v -0.4 2.2 -0.4
v 0.4 1.2 -0.4
v 0.4 1.4 -0.4
v 0.4 2 -0.4
v 0.4 2.1 -0.4
v 0.4 2.2 -0.4
v -0.5 0 -0.5
v -0.5 0.2 -0.5
v -0.5 1 -0.5
v -0.5 1.2 -0.5
v 0.5 0 -0.5
v 0.5 0.2 -0.5
v 0.5 1 -0.5
v 0.5 1.2 -0.5
v -0.6 0.2 -0.6
v -0.6 0.4 -0.6
v -0.6 0.8 -0.6
v -0.6 1 -0.6
v 0.6 0.2 -0.6
v 0.6 0.4 -0.6
v 0.6 0.8 -0.6
v 0.6 1 -0.6
v -0.7 0.4 -0.7
v -0.7 0.6 -0.7
v -0.7 0.7 -0.7
v -0.7 0.8 -0.7
v -0.6 0.5 -0.7
v -0.6 0.6 -0.7
v -0.6 0.7 -0.7
v -0.5 0.5 -0.7
v -0.5 0.6 -0.7
v -0.5 0.7 -0.7
v -0.4 0.5 -0.7
v -0.4 0.6 -0.7
v -0.4 0.7 -0.7
v -0.3 0.5 -0.7
v -0.3 0.6 -0.7
v -0.3 0.7 -0.7
v -0.2 0.5 -0.7
v -0.2 0.6 -0.7
v -0.2 0.7 -0.7
v -0.1 0.5 -0.7
v -0.1 0.6 -0.7
v -0.1 0.7 -0.7
v 5.96046e-08 0.5 -0.7
v 5.96046e-08 0.6 -0.7
v 5.96046e-08 0.7 -0.7
v 0.1 0.5 -0.7
v 0.1 0.6 -0.7
v 0.1 0.7 -0.7
v 0.2 0.5 -0.7
v 0.2 0.6 -0.7
v 0.2 0.7 -0.7
v 0.3 0.5 -0.7
v 0.3 0.6 -0.7
v 0.3 0.7 -0.7
v 0.4 0.5 -0.7
v 0.4 0.6 -0.7
v 0.4 0.7 -0.7
v 0.5 0.5 -0.7
v 0.5 0.6 -0.7
v 0.5 0.7 -0.7
v 0.6 0.5 -0.7
v 0.6 0.6 -0.7
v 0.6 0.7 -0.7
v 0.7 0.4 -0.7
v 0.7 0.5 -0.7
v 0.7 0.6 -0.7
v 0.7 0.8 -0.7
v -0.5 0 0.5
v 0.5 0 0.5
v -0.5 0 -0.5
v 0.5 0 -0.5
v -0.6 0.2 0.6
v 0.6 0.2 0.6
v -0.5 0.2 0.5
v 0.5 0.2 0.5
v -0.5 0.2 -0.5
v 0.5 0.2 -0.5
v -0.6 0.2 -0.6
v 0.6 0.2 -0.6
v -0.7 0.4 0.7
v 0.7 0.4 0.7
v -0.6 0.4 0.6
v 0.6 0.4 0.6
v -0.6 0.4 -0.6
v 0.6 0.4 -0.6
v -0.7 0.4 -0.7
v 0.7 0.4 -0.7
v -0.4 2 0.4
v 0.4 2 0.4
v -0.3 2 0.3
v -0.2 2 0.3
v -0.1 2 0.3
v 5.96046e-08 2 0.3
v 0.1 2 0.3
v 0.2 2 0.3
v 0.3 2 0.3
v -0.3 2 0.2
v 0.3 2 0.2
v -0.3 2 0.1
v -0.3 2 -5.96046e-08
v 0.3 2 -5.96046e-08
v -0.3 2 -0.1
v 0.3 2 -0.1
v 0.3 2 -0.2
v -0.3 2 -0.3
v -0.2 2 -0.3
v -0.1 2 -0.3
v 5.96046e-08 2 -0.3
v 0.1 2 -0.3
v 0.2 2 -0.3
v 0.3 2 -0.3
v -0.4 2 -0.4
v 0.4 2 -0.4
v -0.7 0.8 0.7
v 0.7 0.8 0.7
v -0.6 0.8 0.6
v 0.6 0.8 0.6
v -0.6 0.8 -0.6
v 0.6 0.8 -0.6
v -0.7 0.8 -0.7
v 0.7 0.8 -0.7
v -0.6 1 0.6
v 0.6 1 0.6
v -0.5 1 0.5
v 0.5 1 0.5
v -0.5 1 -0.5
v 0.5 1 -0.5
v -0.6 1 -0.6
v 0.6 1 -0.6
v -0.5 1.2 0.5
v 0.5 1.2 0.5
v -0.4 1.2 0.4
v 0.4 1.2 0.4
v -0.4 1.2 -0.4
v 0.4 1.2 -0.4
v -0.5 1.2 -0.5
v 0.5 1.2 -0.5
v -0.4 1.4 0.4
v 0.4 1.4 0.4
v -0.3 1.4 0.3
v 0.3 1.4 0.3
v -0.3 1.4 -0.3
v 0.3 1.4 -0.3
v -0.4 1.4 -0.4
v 0.4 1.4 -0.4
v -0.2 2.1 0.2
v 0.2 2.1 0.2
v -0.2 2.1 -0.2
v 0.2 2.1 -0.2
v -0.4 2.2 0.4
v 0.4 2.2 0.4
v -0.2 2.2 0.2
v 0.2 2.2 0.2
v -0.2 2.2 -0.2
v 0.2 2.2 -0.2
v -0.4 2.2 -0.4
v 0.4 2.2 -0.4

# faces
f 3/1/1 2/1/1 1/1/1
f 4/1/1 2/1/1 3/1/1
f 5/1/1 2/1/1 4/1/1
f 6/1/1 2/1/1 5/1/1
f 7/1/1 2/1/1 6/1/1
f 8/1/1 2/1/1 7/1/1
f 9/1/1 2/1/1 8/1/1
f 10/1/1 2/1/1 9/1/1
f 11/1/1 2/1/1 10/1/1
f 12/1/1 2/1/1 11/1/1
f 13/1/1 2/1/1 12/1/1
f 14/1/1 2/1/1 13/1/1
f 15/1/1 2/1/1 14/1/1
f 16/1/1 2/1/1 15/1/1
f 17/2/1 4/2/1 3/2/1
f 18/1/1 5/1/1 4/1/1
f 18/2/1 4/2/1 17/2/1
f 19/2/1 6/2/1 5/2/1
f 19/1/1 5/1/1 18/1/1
f 20/1/1 7/1/1 6/1/1
f 20/2/1 6/2/1 19/2/1
f 21/2/1 8/2/1 7/2/1
f 21/1/1 7/1/1 20/1/1
f 22/1/1 9/1/1 8/1/1
f 22/2/1 8/2/1 21/2/1
f 23/2/1 10/2/1 9/2/1
f 23/1/1 9/1/1 22/1/1
f 24/1/1 11/1/1 10/1/1
f 24/2/1 10/2/1 23/2/1
f 25/2/1 12/2/1 11/2/1
f 25/1/1 11/1/1 24/1/1
f 26/1/1 13/1/1 12/1/1
f 26/2/1 12/2/1 25/2/1
f 27/2/1 14/2/1 13/2/1
f 27/1/1 13/1/1 26/1/1
f 28/1/1 15/1/1 14/1/1
f 28/2/1 14/2/1 27/2/1
f 29/2/1 16/2/1 15/2/1
f 29/1/1 15/1/1 28/1/1
f 30/1/1 2/1/1 16/1/1
f 30/2/1 16/2/1 29/2/1
f 31/1/1 2/1/1 30/1/1
f 32/1/1 18/1/1 17/1/1
f 32/2/1 19/2/1 18/2/1
f 33/1/1 20/1/1 19/1/1
f 33/2/1 19/2/1 32/2/1
f 34/2/1 21/2/1 20/2/1
f 34/1/1 20/1/1 33/1/1
f 35/1/1 22/1/1 21/1/1
f 35/2/1 21/2/1 34/2/1
f 36/2/1 23/2/1 22/2/1
f 36/1/1 22/1/1 35/1/1
f 37/1/1 24/1/1 23/1/1
f 37/2/1 23/2/1 36/2/1
f 38/2/1 25/2/1 24/2/1
f 38/1/1 24/1/1 37/1/1
f 39/1/1 26/1/1 25/1/1
f 39/2/1 25/2/1 38/2/1
f 40/2/1 27/2/1 26/2/1
f 40/1/1 26/1/1 39/1/1
f 41/1/1 28/1/1 27/1/1
f 41/2/1 27/2/1 40/2/1
f 42/2/1 29/2/1 28/2/1
f 42/1/1 28/1/1 41/1/1
f 43/1/1 30/1/1 29/1/1
f 43/2/1 29/2/1 42/2/1
f 44/2/1 31/2/1 30/2/1
f 44/1/1 30/1/1 43/1/1
f 45/2/1 31/2/1 44/2/1
f 46/1/1 41/1/1 40/1/1
f 46/1/1 43/1/1 42/1/1
f 46/1/1 45/1/1 44/1/1
f 46/1/1 44/1/1 43/1/1
f 46/1/1 42/1/1 41/1/1
f 46/1/1 40/1/1 39/1/1
f 46/1/1 39/1/1 38/1/1
f 46/1/1 38/1/1 37/1/1
f 46/1/1 37/1/1 36/1/1
f 46/1/1 36/1/1 35/1/1
f 46/1/1 35/1/1 34/1/1
f 46/1/1 34/1/1 33/1/1
f 46/1/1 33/1/1 32/1/1
f 46/1/1 32/1/1 17/1/1
f 47/1/1 45/1/1 46/1/1
f 50/1/1 49/1/1 48/1/1
f 51/1/1 49/1/1 50/1/1
f 54/1/1 53/1/1 52/1/1
f 55/1/1 53/1/1 54/1/1
f 58/1/1 57/1/1 56/1/1
f 59/1/1 57/1/1 58/1/1
f 62/1/1 61/1/1 60/1/1
f 63/1/1 61/1/1 62/1/1
f 66/1/1 65/1/1 64/1/1
f 67/1/1 65/1/1 66/1/1
f 70/3/1 69/3/1 68/3/1
f 71/3/1 69/3/1 70/3/1
f 72/1/1 71/1/1 70/1/1
f 73/1/1 71/1/1 72/1/1
f 76/1/1 75/1/1 74/1/1
f 77/1/1 75/1/1 76/1/1
f 78/1/1 76/1/1 74/1/1
f 79/1/1 76/1/1 78/1/1
f 80/1/1 78/1/1 74/1/1
f 81/3/1 79/3/1 78/3/1
f 81/1/1 78/1/1 80/1/1
f 82/1/1 76/1/1 79/1/1
f 82/3/1 79/3/1 81/3/1
f 83/3/1 77/3/1 76/3/1
f 83/1/1 76/1/1 82/1/1
f 84/1/1 75/1/1 77/1/1
f 84/3/1 77/3/1 83/3/1
f 85/1/1 75/1/1 84/1/1
f 88/1/1 87/1/1 86/1/1
f 89/1/1 87/1/1 88/1/1
f 90/1/2 91/1/2 92/1/2
f 92/1/2 91/1/2 93/1/2
f 94/1/2 95/1/2 96/1/2
f 96/1/2 95/1/2 97/1/2
f 97/1/2 95/1/2 98/1/2
f 98/1/2 95/1/2 99/1/2
f 99/1/2 95/1/2 100/1/2
f 100/1/2 95/1/2 101/1/2
f 96/3/2 97/3/2 102/3/2
f 97/1/2 98/1/2 103/1/2
f 102/3/2 97/3/2 103/3/2
f 98/3/2 99/3/2 104/3/2
f 103/1/2 98/1/2 104/1/2
f 99/1/2 100/1/2 105/1/2
f 104/3/2 99/3/2 105/3/2
f 100/3/2 101/3/2 106/3/2
f 105/1/2 100/1/2 106/1/2
f 106/3/2 101/3/2 107/3/2
f 108/1/2 109/1/2 110/1/2
f 110/1/2 109/1/2 111/1/2
f 112/3/2 113/3/2 114/3/2
f 114/3/2 113/3/2 115/3/2
f 114/1/2 115/1/2 116/1/2
f 116/1/2 115/1/2 117/1/2
f 118/1/2 119/1/2 120/1/2
f 120/1/2 119/1/2 121/1/2
f 122/1/2 123/1/2 124/1/2
f 124/1/2 123/1/2 125/1/2
f 126/1/2 127/1/2 128/1/2
f 128/1/2 127/1/2 129/1/2
f 130/1/2 131/1/2 132/1/2
f 132/1/2 131/1/2 133/1/2
f 134/1/2 135/1/2 136/1/2
f 136/1/2 135/1/2 137/1/2
f 137/1/2 135/1/2 138/1/2
f 138/1/2 135/1/2 139/1/2
f 139/1/2 135/1/2 140/1/2
f 140/1/2 135/1/2 141/1/2
f 141/1/2 135/1/2 142/1/2
f 142/1/2 135/1/2 143/1/2
f 143/1/2 135/1/2 144/1/2
f 144/1/2 135/1/2 145/1/2
f 145/1/2 135/1/2 146/1/2
f 146/1/2 135/1/2 147/1/2
f 147/1/2 135/1/2 148/1/2
f 148/1/2 135/1/2 149/1/2
f 134/1/2 136/1/2 150/1/2
f 136/2/2 137/2/2 151/2/2
f 150/1/2 136/1/2 151/1/2
f 137/1/2 138/1/2 152/1/2
f 151/2/2 137/2/2 152/2/2
f 138/2/2 139/2/2 153/2/2
f 152/1/2 138/1/2 153/1/2
f 139/1/2 140/1/2 154/1/2
f 153/2/2 139/2/2 154/2/2
f 140/2/2 141/2/2 155/2/2
f 154/1/2 140/1/2 155/1/2
f 141/1/2 142/1/2 156/1/2
f 155/2/2 141/2/2 156/2/2
f 142/2/2 143/2/2 157/2/2
f 156/1/2 142/1/2 157/1/2
f 143/1/2 144/1/2 158/1/2
f 157/2/2 143/2/2 158/2/2
f 144/2/2 145/2/2 159/2/2
f 158/1/2 144/1/2 159/1/2
f 145/1/2 146/1/2 160/1/2
f 159/2/2 145/2/2 160/2/2
f 146/2/2 147/2/2 161/2/2
f 160/1/2 146/1/2 161/1/2
f 147/1/2 148/1/2 162/1/2
f 161/2/2 147/2/2 162/2/2
f 148/2/2 149/2/2 163/2/2
f 162/1/2 148/1/2 163/1/2
f 163/2/2 149/2/2 164/2/2
f 150/2/2 151/2/2 165/2/2
f 151/1/2 152/1/2 166/1/2
f 165/2/2 151/2/2 166/2/2
f 152/2/2 153/2/2 167/2/2
f 166/1/2 152/1/2 167/1/2
f 153/1/2 154/1/2 168/1/2
f 167/2/2 153/2/2 168/2/2
f 154/2/2 155/2/2 169/2/2
f 168/1/2 154/1/2 169/1/2
f 155/1/2 156/1/2 170/1/2
f 169/2/2 155/2/2 170/2/2
f 156/2/2 157/2/2 171/2/2
f 170/1/2 156/1/2 171/1/2
f 157/1/2 158/1/2 172/1/2
f 171/2/2 157/2/2 172/2/2
f 158/2/2 159/2/2 173/2/2
f 172/1/2 158/1/2 173/1/2
f 159/1/2 160/1/2 174/1/2
f 173/2/2 159/2/2 174/2/2
f 160/2/2 161/2/2 175/2/2
f 174/1/2 160/1/2 175/1/2
f 161/1/2 162/1/2 176/1/2
f 175/2/2 161/2/2 176/2/2
f 162/2/2 163/2/2 177/2/2
f 176/1/2 162/1/2 177/1/2
f 163/1/2 164/1/2 178/1/2
f 177/2/2 163/2/2 178/2/2
f 165/1/2 166/1/2 179/1/2
f 166/1/2 167/1/2 179/1/2
f 177/1/2 178/1/2 179/1/2
f 176/1/2 177/1/2 179/1/2
f 175/1/2 176/1/2 179/1/2
f 174/1/2 175/1/2 179/1/2
f 173/1/2 174/1/2 179/1/2
f 172/1/2 173/1/2 179/1/2
f 171/1/2 172/1/2 179/1/2
f 170/1/2 171/1/2 179/1/2
f 169/1/2 170/1/2 179/1/2
f 168/1/2 169/1/2 179/1/2
f 167/1/2 168/1/2 179/1/2
f 178/1/2 164/1/2 180/1/2
f 179/1/2 178/1/2 180/1/2
f 185/1/3 182/1/3 181/1/3
f 185/2/3 183/2/3 182/2/3
f 186/1/3 184/1/3 183/1/3
f 186/2/3 183/2/3 185/2/3
f 187/1/3 184/1/3 186/1/3
f 188/1/3 185/1/3 181/1/3
f 188/1/3 186/1/3 185/1/3
f 189/2/3 187/2/3 186/2/3
f 189/1/3 186/1/3 188/1/3
f 190/1/3 184/1/3 187/1/3
f 190/2/3 187/2/3 189/2/3
f 191/2/3 189/2/3 188/2/3
f 191/1/3 188/1/3 181/1/3
f 192/1/3 190/1/3 189/1/3
f 192/2/3 189/2/3 191/2/3
f 193/1/3 184/1/3 190/1/3
f 193/1/3 190/1/3 192/1/3
f 194/1/3 192/1/3 191/1/3
f 194/1/3 191/1/3 181/1/3
f 195/2/3 193/2/3 192/2/3
f 195/1/3 192/1/3 194/1/3
f 196/1/3 184/1/3 193/1/3
f 196/2/3 193/2/3 195/2/3
f 197/2/3 195/2/3 194/2/3
f 197/1/3 194/1/3 181/1/3
f 198/1/3 196/1/3 195/1/3
f 198/2/3 195/2/3 197/2/3
f 199/1/3 184/1/3 196/1/3
f 199/1/3 196/1/3 198/1/3
f 200/1/3 198/1/3 197/1/3
f 200/1/3 197/1/3 181/1/3
f 201/2/3 199/2/3 198/2/3
f 201/1/3 198/1/3 200/1/3
f 202/1/3 184/1/3 199/1/3
f 202/2/3 199/2/3 201/2/3
f 203/2/3 201/2/3 200/2/3
f 203/1/3 200/1/3 181/1/3
f 204/1/3 202/1/3 201/1/3
f 204/2/3 201/2/3 203/2/3
f 205/1/3 184/1/3 202/1/3
f 205/1/3 202/1/3 204/1/3
f 206/1/3 204/1/3 203/1/3
f 206/1/3 203/1/3 181/1/3
f 207/2/3 205/2/3 204/2/3
f 207/1/3 204/1/3 206/1/3
f 208/1/3 184/1/3 205/1/3
f 208/2/3 205/2/3 207/2/3
f 209/2/3 207/2/3 206/2/3
f 209/1/3 206/1/3 181/1/3
f 210/1/3 208/1/3 207/1/3
f 210/2/3 207/2/3 209/2/3
f 211/1/3 184/1/3 208/1/3
f 211/1/3 208/1/3 210/1/3
f 212/1/3 210/1/3 209/1/3
f 212/1/3 209/1/3 181/1/3
f 213/2/3 211/2/3 210/2/3
f 213/1/3 210/1/3 212/1/3
f 214/1/3 184/1/3 211/1/3
f 214/2/3 211/2/3 213/2/3
f 215/2/3 213/2/3 212/2/3
f 215/1/3 212/1/3 181/1/3
f 216/1/3 214/1/3 213/1/3
f 216/2/3 213/2/3 215/2/3
f 217/1/3 184/1/3 214/1/3
f 217/1/3 214/1/3 216/1/3
f 218/1/3 216/1/3 215/1/3
f 218/1/3 215/1/3 181/1/3
f 219/2/3 217/2/3 216/2/3
f 219/1/3 216/1/3 218/1/3
f 220/1/3 184/1/3 217/1/3
f 220/2/3 217/2/3 219/2/3
f 221/2/3 219/2/3 218/2/3
f 221/1/3 218/1/3 181/1/3
f 222/1/3 220/1/3 219/1/3
f 222/2/3 219/2/3 221/2/3
f 223/1/3 184/1/3 220/1/3
f 223/1/3 220/1/3 222/1/3
f 224/1/3 222/1/3 221/1/3
f 224/1/3 221/1/3 181/1/3
f 225/2/3 223/2/3 222/2/3
f 225/1/3 222/1/3 224/1/3
f 226/1/3 184/1/3 223/1/3
f 226/2/3 223/2/3 225/2/3
f 227/1/3 184/1/3 226/1/3
f 232/1/3 229/1/3 228/1/3
f 233/1/3 229/1/3 232/1/3
f 234/1/3 231/1/3 230/1/3
f 235/1/3 231/1/3 234/1/3
f 240/1/3 237/1/3 236/1/3
f 241/1/3 237/1/3 240/1/3
f 242/1/3 239/1/3 238/1/3
f 243/1/3 239/1/3 242/1/3
f 249/1/3 245/1/3 244/1/3
f 250/1/3 245/1/3 249/1/3
f 251/3/3 247/3/3 246/3/3
f 252/1/3 248/1/3 247/1/3
f 252/3/3 247/3/3 251/3/3
f 253/1/3 248/1/3 252/1/3
f 256/1/3 255/1/3 254/1/3
f 257/1/3 255/1/3 256/1/3
f 258/1/3 256/1/3 254/1/3
f 258/3/3 257/3/3 256/3/3
f 259/3/3 257/3/3 258/3/3
f 260/1/3 259/1/3 258/1/3
f 261/1/3 259/1/3 260/1/3
f 262/1/3 260/1/3 258/1/3
f 262/3/3 261/3/3 260/3/3
f 263/3/3 261/3/3 262/3/3
f 264/1/3 258/1/3 254/1/3
f 264/1/3 262/1/3 258/1/3
f 264/1/3 263/1/3 262/1/3
f 265/1/3 263/1/3 264/1/3
f 266/1/3 264/1/3 254/1/3
f 267/3/3 265/3/3 264/3/3
f 267/1/3 264/1/3 266/1/3
f 268/3/3 265/3/3 267/3/3
f 271/1/3 270/1/3 269/1/3
f 272/1/3 270/1/3 271/1/3
f 273/1/4 274/1/4 275/1/4
f 275/1/4 274/1/4 276/1/4
f 277/1/4 278/1/4 279/1/4
f 279/1/4 278/1/4 280/1/4
f 277/1/4 279/1/4 281/1/4
f 279/3/4 280/3/4 281/3/4
f 281/3/4 280/3/4 282/3/4
f 277/1/4 281/1/4 283/1/4
f 281/1/4 282/1/4 283/1/4
f 283/1/4 282/1/4 284/1/4
f 277/1/4 283/1/4 285/1/4
f 283/3/4 284/3/4 285/3/4
f 285/3/4 284/3/4 286/3/4
f 285/1/4 286/1/4 287/1/4
f 287/1/4 286/1/4 288/1/4
f 277/1/4 285/1/4 289/1/4
f 285/1/4 287/1/4 289/1/4
f 287/3/4 288/3/4 290/3/4
f 289/1/4 287/1/4 290/1/4
f 290/3/4 288/3/4 291/3/4
f 292/1/4 293/1/4 297/1/4
f 297/1/4 293/1/4 298/1/4
f 294/3/4 295/3/4 299/3/4
f 295/1/4 296/1/4 300/1/4
f 299/3/4 295/3/4 300/3/4
f 300/1/4 296/1/4 301/1/4
f 302/1/4 303/1/4 306/1/4
f 306/1/4 303/1/4 307/1/4
f 304/1/4 305/1/4 308/1/4
f 308/1/4 305/1/4 309/1/4
f 310/1/4 311/1/4 314/1/4
f 314/1/4 311/1/4 315/1/4
f 312/1/4 313/1/4 316/1/4
f 316/1/4 313/1/4 317/1/4
f 318/1/4 319/1/4 322/1/4
f 319/2/4 320/2/4 323/2/4
f 322/1/4 319/1/4 323/1/4
f 320/1/4 321/1/4 324/1/4
f 323/2/4 320/2/4 324/2/4
f 322/2/4 323/2/4 325/2/4
f 318/1/4 322/1/4 325/1/4
f 323/1/4 324/1/4 326/1/4
f 325/2/4 323/2/4 326/2/4
f 324/1/4 321/1/4 327/1/4
f 326/1/4 324/1/4 327/1/4
f 325/1/4 326/1/4 328/1/4
f 318/1/4 325/1/4 328/1/4
f 326/2/4 327/2/4 329/2/4
f 328/1/4 326/1/4 329/1/4
f 327/1/4 321/1/4 330/1/4
f 329/2/4 327/2/4 330/2/4
f 328/2/4 329/2/4 331/2/4
f 318/1/4 328/1/4 331/1/4
f 329/1/4 330/1/4 332/1/4
f 331/2/4 329/2/4 332/2/4
f 330/1/4 321/1/4 333/1/4
f 332/1/4 330/1/4 333/1/4
f 331/1/4 332/1/4 334/1/4
f 318/1/4 331/1/4 334/1/4
f 332/2/4 333/2/4 335/2/4
f 334/1/4 332/1/4 335/1/4
f 333/1/4 321/1/4 336/1/4
f 335/2/4 333/2/4 336/2/4
f 334/2/4 335/2/4 337/2/4
f 318/1/4 334/1/4 337/1/4
f 335/1/4 336/1/4 338/1/4
f 337/2/4 335/2/4 338/2/4
f 336/1/4 321/1/4 339/1/4
f 338/1/4 336/1/4 339/1/4
f 337/1/4 338/1/4 340/1/4
f 318/1/4 337/1/4 340/1/4
f 338/2/4 339/2/4 341/2/4
f 340/1/4 338/1/4 341/1/4
f 339/1/4 321/1/4 342/1/4
f 341/2/4 339/2/4 342/2/4
f 340/2/4 341/2/4 343/2/4
f 318/1/4 340/1/4 343/1/4
f 341/1/4 342/1/4 344/1/4
f 343/2/4 341/2/4 344/2/4
f 342/1/4 321/1/4 345/1/4
f 344/1/4 342/1/4 345/1/4
f 343/1/4 344/1/4 346/1/4
f 318/1/4 343/1/4 346/1/4
f 344/2/4 345/2/4 347/2/4
f 346/1/4 344/1/4 347/1/4
f 345/1/4 321/1/4 348/1/4
f 347/2/4 345/2/4 348/2/4
f 346/2/4 347/2/4 349/2/4
f 318/1/4 346/1/4 349/1/4
f 347/1/4 348/1/4 350/1/4
f 349/2/4 347/2/4 350/2/4
f 348/1/4 321/1/4 351/1/4
f 350/1/4 348/1/4 351/1/4
f 349/1/4 350/1/4 352/1/4
f 318/1/4 349/1/4 352/1/4
f 350/2/4 351/2/4 353/2/4
f 352/1/4 350/1/4 353/1/4
f 351/1/4 321/1/4 354/1/4
f 353/2/4 351/2/4 354/2/4
f 352/2/4 353/2/4 355/2/4
f 318/1/4 352/1/4 355/1/4
f 353/1/4 354/1/4 356/1/4
f 355/2/4 353/2/4 356/2/4
f 354/1/4 321/1/4 357/1/4
f 356/1/4 354/1/4 357/1/4
f 355/1/4 356/1/4 358/1/4
f 318/1/4 355/1/4 358/1/4
f 356/2/4 357/2/4 359/2/4
f 358/1/4 356/1/4 359/1/4
f 357/1/4 321/1/4 360/1/4
f 359/2/4 357/2/4 360/2/4
f 318/1/4 358/1/4 361/1/4
f 358/2/4 359/2/4 362/2/4
f 361/1/4 358/1/4 362/1/4
f 359/1/4 360/1/4 363/1/4
f 362/2/4 359/2/4 363/2/4
f 360/1/4 321/1/4 364/1/4
f 363/1/4 360/1/4 364/1/4
f 367/1/5 366/1/5 365/1/5
f 368/1/5 366/1/5 367/1/5
f 371/1/5 370/1/5 369/1/5
f 372/1/5 370/1/5 371/1/5
f 373/1/5 371/1/5 369/1/5
f 374/1/5 370/1/5 372/1/5
f 375/1/5 373/1/5 369/1/5
f 375/1/5 374/1/5 373/1/5
f 376/1/5 370/1/5 374/1/5
f 376/1/5 374/1/5 375/1/5
f 379/1/5 378/1/5 377/1/5
f 380/1/5 378/1/5 379/1/5
f 381/1/5 379/1/5 377/1/5
f 382/1/5 378/1/5 380/1/5
f 383/1/5 381/1/5 377/1/5
f 383/1/5 382/1/5 381/1/5
f 384/1/5 378/1/5 382/1/5
f 384/1/5 382/1/5 383/1/5
f 387/3/5 386/3/5 385/3/5
f 388/3/5 386/3/5 387/3/5
f 389/3/5 386/3/5 388/3/5
f 390/3/5 386/3/5 389/3/5
f 391/3/5 386/3/5 390/3/5
f 392/3/5 386/3/5 391/3/5
f 393/3/5 386/3/5 392/3/5
f 394/3/5 387/3/5 385/3/5
f 395/3/5 386/3/5 393/3/5
f 396/3/5 394/3/5 385/3/5
f 397/3/5 396/3/5 385/3/5
f 398/3/5 386/3/5 395/3/5
f 399/3/5 397/3/5 385/3/5
f 400/3/5 386/3/5 398/3/5
f 401/3/5 386/3/5 400/3/5
f 402/3/5 399/3/5 385/3/5
f 408/3/5 386/3/5 401/3/5
f 409/3/5 407/3/5 406/3/5
f 409/3/5 408/3/5 407/3/5
f 409/3/5 402/3/5 385/3/5
f 409/3/5 403/3/5 402/3/5
f 409/3/5 406/3/5 405/3/5
f 409/3/5 405/3/5 404/3/5
f 409/3/5 404/3/5 403/3/5
f 410/3/5 386/3/5 408/3/5
f 410/3/5 408/3/5 409/3/5
f 411/1/6 412/1/6 413/1/6
f 413/1/6 412/1/6 414/1/6
f 411/1/6 413/1/6 415/1/6
f 414/1/6 412/1/6 416/1/6
f 411/1/6 415/1/6 417/1/6
f 415/1/6 416/1/6 417/1/6
f 416/1/6 412/1/6 418/1/6
f 417/1/6 416/1/6 418/1/6
f 419/1/6 420/1/6 421/1/6
f 421/1/6 420/1/6 422/1/6
f 419/1/6 421/1/6 423/1/6
f 422/1/6 420/1/6 424/1/6
f 419/1/6 423/1/6 425/1/6
f 423/1/6 424/1/6 425/1/6
f 424/1/6 420/1/6 426/1/6
f 425/1/6 424/1/6 426/1/6
f 427/1/6 428/1/6 429/1/6
f 429/1/6 428/1/6 430/1/6
f 427/1/6 429/1/6 431/1/6
f 430/1/6 428/1/6 432/1/6
f 427/1/6 431/1/6 433/1/6
f 431/1/6 432/1/6 433/1/6
f 432/1/6 428/1/6 434/1/6
f 433/1/6 432/1/6 434/1/6
f 435/1/6 436/1/6 437/1/6
f 437/1/6 436/1/6 438/1/6
f 435/1/6 437/1/6 439/1/6
f 438/1/6 436/1/6 440/1/6
f 435/1/6 439/1/6 441/1/6
f 439/1/6 440/1/6 441/1/6
f 440/1/6 436/1/6 442/1/6
f 441/1/6 440/1/6 442/1/6
f 443/2/6 444/2/6 445/2/6
f 445/2/6 444/2/6 446/2/6
f 447/1/6 448/1/6 449/1/6
f 449/1/6 448/1/6 450/1/6
f 447/1/6 449/1/6 451/1/6
f 450/1/6 448/1/6 452/1/6
f 447/1/6 451/1/6 453/1/6
f 451/1/6 452/1/6 453/1/6
f 452/1/6 448/1/6 454/1/6
f 453/1/6 452/1/6 454/1/6
