# MagicaVoxel @ Ephtracy

# group
o 

# material
mtllib watermelon.mtl
usemtl palette

# normals
vn -1 0 0
vn 1 0 0
vn 0 0 1
vn 0 0 -1
vn 0 -1 0
vn 0 1 0

# texcoords
vt 0.0800781 0.5
vt 0.291016 0.5
vt 0.794922 0.5
vt 0.994141 0.5

# verts
v -1.8 0.4 0.2
v -1.8 0.4 -0.2
v -1.8 0.5 0.2
v -1.8 0.5 -0.2
v -1.7 0.3 0.2
v -1.7 0.3 -0.2
v -1.7 0.4 0.2
v -1.7 0.4 -0.2
v -1.5 0.2 0.2
v -1.5 0.2 -0.2
v -1.5 0.3 0.2
v -1.5 0.3 -0.2
v -1.5 0.5 0.2
v -1.5 0.5 -0.2
v -1.5 0.6 0.2
v -1.5 0.6 -0.2
v -1.4 0.6 0.2
v -1.4 0.6 -0.2
v -1.4 0.7 0.2
v -1.4 0.7 -0.2
v -1.3 0.1 0.2
v -1.3 0.1 -0.2
v -1.3 0.2 0.2
v -1.3 0.2 -0.2
v -1.3 0.7 0.2
v -1.3 0.7 -0.2
v -1.3 0.8 0.2
v -1.3 0.8 -0.2
v -1.2 0.8 0.2
v -1.2 0.8 -0.2
v -1.2 0.9 0.2
v -1.2 0.9 -0.2
v -1.1 0.9 0.2
v -1.1 0.9 -0.2
v -1.1 1 0.2
v -1.1 1 -0.2
v -1 0 0.2
v -1 0 -0.2
v -1 0.1 0.2
v -1 0.1 -0.2
v -1 1 0.2
v -1 1 -0.2
v -1 1.2 0.2
v -1 1.2 -0.2
v -0.9 1.2 0.2
v -0.9 1.2 -0.2
v -0.9 1.4 0.2
v -0.9 1.4 -0.2
v -0.8 1.4 0.2
v -0.8 1.4 -0.2
v -0.8 1.6 0.2
v -0.8 1.6 -0.2
v -0.7 1.6 0.2
v -0.7 1.6 -0.2
v -0.7 1.8 0.2
v -0.7 1.8 -0.2
v -0.6 1.8 0.2
v -0.6 1.8 -0.2
v -0.6 2 0.2
v -0.6 2 -0.2
v -0.5 2 0.2
v -0.5 2 -0.2
v -0.5 2.2 0.2
v -0.5 2.2 -0.2
v -0.4 2.2 0.2
v -0.4 2.2 -0.2
v -0.4 2.4 0.2
v -0.4 2.4 -0.2
v -0.3 2.4 0.2
v -0.3 2.4 -0.2
v -0.3 2.6 0.2
v -0.3 2.6 -0.2
v -0.2 2.6 0.2
v -0.2 2.6 -0.2
v -0.2 2.8 0.2
v -0.2 2.8 -0.2
v -0.0999999 2.8 0.2
v -0.0999999 2.8 -0.2
v -0.0999999 2.9 0.2
v -0.0999999 2.9 -0.2
v 0.1 2.8 0.2
v 0.1 2.8 -0.2
v 0.1 2.9 0.2
v 0.1 2.9 -0.2
v 0.2 2.6 0.2
v 0.2 2.6 -0.2
v 0.2 2.8 0.2
v 0.2 2.8 -0.2
v 0.3 2.4 0.2
v 0.3 2.4 -0.2
v 0.3 2.6 0.2
v 0.3 2.6 -0.2
v 0.4 2.2 0.2
v 0.4 2.2 -0.2
v 0.4 2.4 0.2
v 0.4 2.4 -0.2
v 0.5 2 0.2
v 0.5 2 -0.2
v 0.5 2.2 0.2
v 0.5 2.2 -0.2
v 0.6 1.8 0.2
v 0.6 1.8 -0.2
v 0.6 2 0.2
v 0.6 2 -0.2
v 0.7 1.6 0.2
v 0.7 1.6 -0.2
v 0.7 1.8 0.2
v 0.7 1.8 -0.2
v 0.8 1.4 0.2
v 0.8 1.4 -0.2
v 0.8 1.6 0.2
v 0.8 1.6 -0.2
v 0.9 1.2 0.2
v 0.9 1.2 -0.2
v 0.9 1.4 0.2
v 0.9 1.4 -0.2
v 1 0 0.2
v 1 0 -0.2
v 1 0.1 0.2
v 1 0.1 -0.2
v 1 1 0.2
v 1 1 -0.2
v 1 1.2 0.2
v 1 1.2 -0.2
v 1.1 0.9 0.2
v 1.1 0.9 -0.2
v 1.1 1 0.2
v 1.1 1 -0.2
v 1.2 0.8 0.2
v 1.2 0.8 -0.2
v 1.2 0.9 0.2
v 1.2 0.9 -0.2
v 1.3 0.1 0.2
v 1.3 0.1 -0.2
v 1.3 0.2 0.2
v 1.3 0.2 -0.2
v 1.3 0.7 0.2
v 1.3 0.7 -0.2
v 1.3 0.8 0.2
v 1.3 0.8 -0.2
v 1.4 0.6 0.2
v 1.4 0.6 -0.2
v 1.4 0.7 0.2
v 1.4 0.7 -0.2
v 1.5 0.2 0.2
v 1.5 0.2 -0.2
v 1.5 0.3 0.2
v 1.5 0.3 -0.2
v 1.5 0.5 0.2
v 1.5 0.5 -0.2
v 1.5 0.6 0.2
v 1.5 0.6 -0.2
v 1.7 0.3 0.2
v 1.7 0.3 -0.2
v 1.7 0.4 0.2
v 1.7 0.4 -0.2
v 1.8 0.4 0.2
v 1.8 0.4 -0.2
v 1.8 0.5 0.2
v 1.8 0.5 -0.2
v -1.8 0.4 0.2
v -1.8 0.5 0.2
v -1.7 0.3 0.2
v -1.7 0.4 0.2
v -1.6 0.4 0.2
v -1.6 0.5 0.2
v -1.5 0.2 0.2
v -1.5 0.3 0.2
v -1.5 0.5 0.2
v -1.5 0.6 0.2
v -1.4 0.3 0.2
v -1.4 0.4 0.2
v -1.4 0.6 0.2
v -1.4 0.7 0.2
v -1.3 0.1 0.2
v -1.3 0.2 0.2
v -1.3 0.4 0.2
v -1.3 0.5 0.2
v -1.3 0.7 0.2
v -1.3 0.8 0.2
v -1.2 0.2 0.2
v -1.2 0.3 0.2
v -1.2 0.8 0.2
v -1.2 0.9 0.2
v -1.1 0.3 0.2
v -1.1 0.4 0.2
v -1.1 0.9 0.2
v -1.1 1 0.2
v -1 0 0.2
v -1 0.1 0.2
v -1 1 0.2
v -1 1.2 0.2
v -0.9 1.2 0.2
v -0.9 1.4 0.2
v -0.8 0.1 0.2
v -0.8 0.2 0.2
v -0.8 0.4 0.2
v -0.8 0.6 0.2
v -0.8 1.4 0.2
v -0.8 1.6 0.2
v -0.7 0.2 0.2
v -0.7 0.3 0.2
v -0.7 0.4 0.2
v -0.7 0.6 0.2
v -0.7 1 0.2
v -0.7 1.2 0.2
v -0.7 1.6 0.2
v -0.7 1.8 0.2
v -0.6 1 0.2
v -0.6 1.2 0.2
v -0.6 1.8 0.2
v -0.6 2 0.2
v -0.5 2 0.2
v -0.5 2.2 0.2
v -0.4 2.2 0.2
v -0.4 2.4 0.2
v -0.3 0.7 0.2
v -0.3 0.8 0.2
v -0.3 1.7 0.2
v -0.3 1.9 0.2
v -0.3 2.4 0.2
v -0.3 2.6 0.2
v -0.2 0.7 0.2
v -0.2 0.8 0.2
v -0.2 1.7 0.2
v -0.2 1.9 0.2
v -0.2 2.6 0.2
v -0.2 2.8 0.2
v -0.0999999 1.2 0.2
v -0.0999999 1.3 0.2
v -0.0999999 2.5 0.2
v -0.0999999 2.6 0.2
v -0.0999999 2.8 0.2
v -0.0999999 2.9 0.2
v 0 1.2 0.2
v 0 1.3 0.2
v 0 2.5 0.2
v 0 2.6 0.2
v 0.1 0.5 0.2
v 0.1 0.7 0.2
v 0.1 2.8 0.2
v 0.1 2.9 0.2
v 0.2 0.5 0.2
v 0.2 0.7 0.2
v 0.2 1.6 0.2
v 0.2 1.7 0.2
v 0.2 2.1 0.2
v 0.2 2.3 0.2
v 0.2 2.6 0.2
v 0.2 2.8 0.2
v 0.3 1.6 0.2
v 0.3 1.7 0.2
v 0.3 2.1 0.2
v 0.3 2.3 0.2
v 0.3 2.4 0.2
v 0.3 2.6 0.2
v 0.4 2.2 0.2
v 0.4 2.4 0.2
v 0.5 0.3 0.2
v 0.5 0.4 0.2
v 0.5 0.8 0.2
v 0.5 1 0.2
v 0.5 2 0.2
v 0.5 2.2 0.2
v 0.6 0.3 0.2
v 0.6 0.4 0.2
v 0.6 0.8 0.2
v 0.6 1 0.2
v 0.6 1.2 0.2
v 0.6 1.3 0.2
v 0.6 1.8 0.2
v 0.6 2 0.2
v 0.7 0.2 0.2
v 0.7 0.3 0.2
v 0.7 1.2 0.2
v 0.7 1.3 0.2
v 0.7 1.6 0.2
v 0.7 1.8 0.2
v 0.8 0.1 0.2
v 0.8 0.2 0.2
v 0.8 1.4 0.2
v 0.8 1.6 0.2
v 0.9 1.2 0.2
v 0.9 1.4 0.2
v 1 0 0.2
v 1 0.1 0.2
v 1 0.6 0.2
v 1 0.7 0.2
v 1 1 0.2
v 1 1.2 0.2
v 1.1 0.3 0.2
v 1.1 0.4 0.2
v 1.1 0.6 0.2
v 1.1 0.7 0.2
v 1.1 0.9 0.2
v 1.1 1 0.2
v 1.2 0.2 0.2
v 1.2 0.3 0.2
v 1.2 0.8 0.2
v 1.2 0.9 0.2
v 1.3 0.1 0.2
v 1.3 0.2 0.2
v 1.3 0.4 0.2
v 1.3 0.5 0.2
v 1.3 0.7 0.2
v 1.3 0.8 0.2
v 1.4 0.6 0.2
v 1.4 0.7 0.2
v 1.5 0.2 0.2
v 1.5 0.3 0.2
v 1.5 0.4 0.2
v 1.5 0.5 0.2
v 1.5 0.6 0.2
v 1.6 0.4 0.2
v 1.6 0.5 0.2
v 1.7 0.3 0.2
v 1.7 0.4 0.2
v 1.8 0.4 0.2
v 1.8 0.5 0.2
v -1.8 0.4 -0.2
v -1.8 0.5 -0.2
v -1.7 0.3 -0.2
v -1.7 0.4 -0.2
v -1.6 0.4 -0.2
v -1.6 0.5 -0.2
v -1.5 0.2 -0.2
v -1.5 0.3 -0.2
v -1.5 0.5 -0.2
v -1.5 0.6 -0.2
v -1.4 0.3 -0.2
v -1.4 0.4 -0.2
v -1.4 0.6 -0.2
v -1.4 0.7 -0.2
v -1.3 0.1 -0.2
v -1.3 0.2 -0.2
v -1.3 0.4 -0.2
v -1.3 0.5 -0.2
v -1.3 0.7 -0.2
v -1.3 0.8 -0.2
v -1.2 0.2 -0.2
v -1.2 0.3 -0.2
v -1.2 0.5 -0.2
v -1.2 0.6 -0.2
v -1.2 0.8 -0.2
v -1.2 0.9 -0.2
v -1.1 0.3 -0.2
v -1.1 0.4 -0.2
v -1.1 0.5 -0.2
v -1.1 0.6 -0.2
v -1.1 0.9 -0.2
v -1.1 1 -0.2
v -1 0 -0.2
v -1 0.1 -0.2
v -1 1 -0.2
v -1 1.2 -0.2
v -0.9 1.2 -0.2
v -0.9 1.4 -0.2
v -0.8 0.1 -0.2
v -0.8 0.2 -0.2
v -0.8 0.8 -0.2
v -0.8 1 -0.2
v -0.8 1.4 -0.2
v -0.8 1.6 -0.2
v -0.7 0.2 -0.2
v -0.7 0.3 -0.2
v -0.7 0.8 -0.2
v -0.7 1 -0.2
v -0.7 1.6 -0.2
v -0.7 1.8 -0.2
v -0.6 0.4 -0.2
v -0.6 0.5 -0.2
v -0.6 1.8 -0.2
v -0.6 2 -0.2
v -0.5 0.4 -0.2
v -0.5 0.5 -0.2
v -0.5 1.5 -0.2
v -0.5 1.7 -0.2
v -0.5 2 -0.2
v -0.5 2.2 -0.2
v -0.4 1.5 -0.2
v -0.4 1.7 -0.2
v -0.4 2.2 -0.2
v -0.4 2.4 -0.2
v -0.3 1.2 -0.2
v -0.3 1.3 -0.2
v -0.3 2.4 -0.2
v -0.3 2.6 -0.2
v -0.2 0.6 -0.2
v -0.2 0.8 -0.2
v -0.2 1.2 -0.2
v -0.2 1.3 -0.2
v -0.2 2.2 -0.2
v -0.2 2.3 -0.2
v -0.2 2.6 -0.2
v -0.2 2.8 -0.2
v -0.0999999 0.6 -0.2
v -0.0999999 0.8 -0.2
v -0.0999999 2.2 -0.2
v -0.0999999 2.3 -0.2
v -0.0999999 2.8 -0.2
v -0.0999999 2.9 -0.2
v 0 1.8 -0.2
v 0 2 -0.2
v 0 2.6 -0.2
v 0 2.7 -0.2
v 0.1 1.8 -0.2
v 0.1 2 -0.2
v 0.1 2.6 -0.2
v 0.1 2.7 -0.2
v 0.1 2.8 -0.2
v 0.1 2.9 -0.2
v 0.2 1 -0.2
v 0.2 1.2 -0.2
v 0.2 2.6 -0.2
v 0.2 2.8 -0.2
v 0.3 1 -0.2
v 0.3 1.2 -0.2
v 0.3 1.6 -0.2
v 0.3 1.7 -0.2
v 0.3 2.4 -0.2
v 0.3 2.6 -0.2
v 0.4 0.3 -0.2
v 0.4 0.4 -0.2
v 0.4 1.6 -0.2
v 0.4 1.7 -0.2
v 0.4 2.2 -0.2
v 0.4 2.4 -0.2
v 0.5 0.3 -0.2
v 0.5 0.4 -0.2
v 0.5 0.7 -0.2
v 0.5 0.9 -0.2
v 0.5 2 -0.2
v 0.5 2.2 -0.2
v 0.6 0.7 -0.2
v 0.6 0.9 -0.2
v 0.6 1.8 -0.2
v 0.6 2 -0.2
v 0.7 0.2 -0.2
v 0.7 0.3 -0.2
v 0.7 1.6 -0.2
v 0.7 1.8 -0.2
v 0.8 0.1 -0.2
v 0.8 0.2 -0.2
v 0.8 1.4 -0.2
v 0.8 1.6 -0.2
v 0.9 0.8 -0.2
v 0.9 0.9 -0.2
v 0.9 1.2 -0.2
v 0.9 1.4 -0.2
v 1 0 -0.2
v 1 0.1 -0.2
v 1 0.8 -0.2
v 1 0.9 -0.2
v 1 1 -0.2
v 1 1.2 -0.2
v 1.1 0.3 -0.2
v 1.1 0.4 -0.2
v 1.1 0.9 -0.2
v 1.1 1 -0.2
v 1.2 0.2 -0.2
v 1.2 0.3 -0.2
v 1.2 0.8 -0.2
v 1.2 0.9 -0.2
v 1.3 0.1 -0.2
v 1.3 0.2 -0.2
v 1.3 0.4 -0.2
v 1.3 0.5 -0.2
v 1.3 0.7 -0.2
v 1.3 0.8 -0.2
v 1.4 0.3 -0.2
v 1.4 0.4 -0.2
v 1.4 0.6 -0.2
v 1.4 0.7 -0.2
v 1.5 0.2 -0.2
v 1.5 0.3 -0.2
v 1.5 0.5 -0.2
v 1.5 0.6 -0.2
v 1.6 0.4 -0.2
v 1.6 0.5 -0.2
v 1.7 0.3 -0.2
v 1.7 0.4 -0.2
v 1.8 0.4 -0.2
v 1.8 0.5 -0.2
v -1 0 0.2
v 1 0 0.2
v -1 0 -0.2
v 1 0 -0.2
v -1.3 0.1 0.2
v -1 0.1 0.2
v 1 0.1 0.2
v 1.3 0.1 0.2
v -1.3 0.1 -0.2
v -1 0.1 -0.2
v 1 0.1 -0.2
v 1.3 0.1 -0.2
v -1.5 0.2 0.2
v -1.3 0.2 0.2
v 1.3 0.2 0.2
v 1.5 0.2 0.2
v -1.5 0.2 -0.2
v -1.3 0.2 -0.2
v 1.3 0.2 -0.2
v 1.5 0.2 -0.2
v -1.7 0.3 0.2
v -1.5 0.3 0.2
v 1.5 0.3 0.2
v 1.7 0.3 0.2
v -1.7 0.3 -0.2
v -1.5 0.3 -0.2
v 1.5 0.3 -0.2
v 1.7 0.3 -0.2
v -1.8 0.4 0.2
v -1.7 0.4 0.2
v 1.7 0.4 0.2
v 1.8 0.4 0.2
v -1.8 0.4 -0.2
v -1.7 0.4 -0.2
v 1.7 0.4 -0.2
v 1.8 0.4 -0.2
v -1.8 0.5 0.2
v -1.6 0.5 0.2
v -1.5 0.5 0.2
v 1.5 0.5 0.2
v 1.6 0.5 0.2
v 1.8 0.5 0.2
v -1.8 0.5 -0.2
v -1.6 0.5 -0.2
v -1.5 0.5 -0.2
v 1.5 0.5 -0.2
v 1.6 0.5 -0.2
v 1.8 0.5 -0.2
v -1.5 0.6 0.2
v -1.4 0.6 0.2
v 1.4 0.6 0.2
v 1.5 0.6 0.2
v -1.5 0.6 -0.2
v -1.4 0.6 -0.2
v 1.4 0.6 -0.2
v 1.5 0.6 -0.2
v -1.4 0.7 0.2
v -1.3 0.7 0.2
v 1.3 0.7 0.2
v 1.4 0.7 0.2
v -1.4 0.7 -0.2
v -1.3 0.7 -0.2
v 1.3 0.7 -0.2
v 1.4 0.7 -0.2
v -1.3 0.8 0.2
v -1.2 0.8 0.2
v 1.2 0.8 0.2
v 1.3 0.8 0.2
v -1.3 0.8 -0.2
v -1.2 0.8 -0.2
v 1.2 0.8 -0.2
v 1.3 0.8 -0.2
v -1.2 0.9 0.2
v -1.1 0.9 0.2
v 1.1 0.9 0.2
v 1.2 0.9 0.2
v -1.2 0.9 -0.2
v -1.1 0.9 -0.2
v 1.1 0.9 -0.2
v 1.2 0.9 -0.2
v -1.1 1 0.2
v -1 1 0.2
v 1 1 0.2
v 1.1 1 0.2
v -1.1 1 -0.2
v -1 1 -0.2
v 1 1 -0.2
v 1.1 1 -0.2
v -1 1.2 0.2
v -0.9 1.2 0.2
v 0.9 1.2 0.2
v 1 1.2 0.2
v -1 1.2 -0.2
v -0.9 1.2 -0.2
v 0.9 1.2 -0.2
v 1 1.2 -0.2
v -0.9 1.4 0.2
v -0.8 1.4 0.2
v 0.8 1.4 0.2
v 0.9 1.4 0.2
v -0.9 1.4 -0.2
v -0.8 1.4 -0.2
v 0.8 1.4 -0.2
v 0.9 1.4 -0.2
v -0.8 1.6 0.2
v -0.7 1.6 0.2
v 0.7 1.6 0.2
v 0.8 1.6 0.2
v -0.8 1.6 -0.2
v -0.7 1.6 -0.2
v 0.7 1.6 -0.2
v 0.8 1.6 -0.2
v -0.7 1.8 0.2
v -0.6 1.8 0.2
v 0.6 1.8 0.2
v 0.7 1.8 0.2
v -0.7 1.8 -0.2
v -0.6 1.8 -0.2
v 0.6 1.8 -0.2
v 0.7 1.8 -0.2
v -0.6 2 0.2
v -0.5 2 0.2
v 0.5 2 0.2
v 0.6 2 0.2
v -0.6 2 -0.2
v -0.5 2 -0.2
v 0.5 2 -0.2
v 0.6 2 -0.2
v -0.5 2.2 0.2
v -0.4 2.2 0.2
v 0.4 2.2 0.2
v 0.5 2.2 0.2
v -0.5 2.2 -0.2
v -0.4 2.2 -0.2
v 0.4 2.2 -0.2
v 0.5 2.2 -0.2
v -0.4 2.4 0.2
v -0.3 2.4 0.2
v 0.3 2.4 0.2
v 0.4 2.4 0.2
v -0.4 2.4 -0.2
v -0.3 2.4 -0.2
v 0.3 2.4 -0.2
v 0.4 2.4 -0.2
v -0.3 2.6 0.2
v -0.2 2.6 0.2
v 0.2 2.6 0.2
v 0.3 2.6 0.2
v -0.3 2.6 -0.2
v -0.2 2.6 -0.2
v 0.2 2.6 -0.2
v 0.3 2.6 -0.2
v -0.2 2.8 0.2
v -0.0999999 2.8 0.2
v 0.1 2.8 0.2
v 0.2 2.8 0.2
v -0.2 2.8 -0.2
v -0.0999999 2.8 -0.2
v 0.1 2.8 -0.2
v 0.2 2.8 -0.2
v -0.0999999 2.9 0.2
v 0.1 2.9 0.2
v -0.0999999 2.9 -0.2
v 0.1 2.9 -0.2

# faces
f 3/3/1 2/3/1 1/3/1
f 4/3/1 2/3/1 3/3/1
f 7/3/1 6/3/1 5/3/1
f 8/3/1 6/3/1 7/3/1
f 11/3/1 10/3/1 9/3/1
f 12/3/1 10/3/1 11/3/1
f 15/1/1 14/1/1 13/1/1
f 16/1/1 14/1/1 15/1/1
f 19/1/1 18/1/1 17/1/1
f 20/1/1 18/1/1 19/1/1
f 23/3/1 22/3/1 21/3/1
f 24/3/1 22/3/1 23/3/1
f 27/1/1 26/1/1 25/1/1
f 28/1/1 26/1/1 27/1/1
f 31/1/1 30/1/1 29/1/1
f 32/1/1 30/1/1 31/1/1
f 35/1/1 34/1/1 33/1/1
f 36/1/1 34/1/1 35/1/1
f 39/3/1 38/3/1 37/3/1
f 40/3/1 38/3/1 39/3/1
f 43/1/1 42/1/1 41/1/1
f 44/1/1 42/1/1 43/1/1
f 47/1/1 46/1/1 45/1/1
f 48/1/1 46/1/1 47/1/1
f 51/1/1 50/1/1 49/1/1
f 52/1/1 50/1/1 51/1/1
f 55/1/1 54/1/1 53/1/1
f 56/1/1 54/1/1 55/1/1
f 59/1/1 58/1/1 57/1/1
f 60/1/1 58/1/1 59/1/1
f 63/1/1 62/1/1 61/1/1
f 64/1/1 62/1/1 63/1/1
f 67/1/1 66/1/1 65/1/1
f 68/1/1 66/1/1 67/1/1
f 71/1/1 70/1/1 69/1/1
f 72/1/1 70/1/1 71/1/1
f 75/1/1 74/1/1 73/1/1
f 76/1/1 74/1/1 75/1/1
f 79/1/1 78/1/1 77/1/1
f 80/1/1 78/1/1 79/1/1
f 81/1/2 82/1/2 83/1/2
f 83/1/2 82/1/2 84/1/2
f 85/1/2 86/1/2 87/1/2
f 87/1/2 86/1/2 88/1/2
f 89/1/2 90/1/2 91/1/2
f 91/1/2 90/1/2 92/1/2
f 93/1/2 94/1/2 95/1/2
f 95/1/2 94/1/2 96/1/2
f 97/1/2 98/1/2 99/1/2
f 99/1/2 98/1/2 100/1/2
f 101/1/2 102/1/2 103/1/2
f 103/1/2 102/1/2 104/1/2
f 105/1/2 106/1/2 107/1/2
f 107/1/2 106/1/2 108/1/2
f 109/1/2 110/1/2 111/1/2
f 111/1/2 110/1/2 112/1/2
f 113/1/2 114/1/2 115/1/2
f 115/1/2 114/1/2 116/1/2
f 117/3/2 118/3/2 119/3/2
f 119/3/2 118/3/2 120/3/2
f 121/1/2 122/1/2 123/1/2
f 123/1/2 122/1/2 124/1/2
f 125/1/2 126/1/2 127/1/2
f 127/1/2 126/1/2 128/1/2
f 129/1/2 130/1/2 131/1/2
f 131/1/2 130/1/2 132/1/2
f 133/3/2 134/3/2 135/3/2
f 135/3/2 134/3/2 136/3/2
f 137/1/2 138/1/2 139/1/2
f 139/1/2 138/1/2 140/1/2
f 141/1/2 142/1/2 143/1/2
f 143/1/2 142/1/2 144/1/2
f 145/3/2 146/3/2 147/3/2
f 147/3/2 146/3/2 148/3/2
f 149/1/2 150/1/2 151/1/2
f 151/1/2 150/1/2 152/1/2
f 153/3/2 154/3/2 155/3/2
f 155/3/2 154/3/2 156/3/2
f 157/3/2 158/3/2 159/3/2
f 159/3/2 158/3/2 160/3/2
f 164/3/3 162/3/3 161/3/3
f 165/3/3 162/3/3 164/3/3
f 165/3/3 164/3/3 163/3/3
f 166/3/3 162/3/3 165/3/3
f 168/3/3 165/3/3 163/3/3
f 169/2/3 166/2/3 165/2/3
f 171/3/3 168/3/3 167/3/3
f 171/3/3 165/3/3 168/3/3
f 172/2/3 169/2/3 165/2/3
f 172/3/3 165/3/3 171/3/3
f 173/1/3 170/1/3 169/1/3
f 176/3/3 171/3/3 167/3/3
f 177/2/3 169/2/3 172/2/3
f 177/2/3 172/2/3 171/2/3
f 178/1/3 174/1/3 173/1/3
f 178/2/3 169/2/3 177/2/3
f 178/1/3 173/1/3 169/1/3
f 179/1/3 174/1/3 178/1/3
f 181/3/3 176/3/3 175/3/3
f 181/3/3 171/3/3 176/3/3
f 182/2/3 177/2/3 171/2/3
f 182/3/3 171/3/3 181/3/3
f 183/1/3 180/1/3 179/1/3
f 183/1/3 179/1/3 178/1/3
f 183/1/3 178/1/3 177/1/3
f 185/2/3 177/2/3 182/2/3
f 185/2/3 182/2/3 181/2/3
f 186/1/3 184/1/3 183/1/3
f 186/2/3 177/2/3 185/2/3
f 186/1/3 183/1/3 177/1/3
f 187/1/3 184/1/3 186/1/3
f 190/3/3 181/3/3 175/3/3
f 191/1/3 188/1/3 187/1/3
f 191/1/3 186/1/3 185/1/3
f 191/1/3 187/1/3 186/1/3
f 193/1/3 192/1/3 191/1/3
f 195/3/3 190/3/3 189/3/3
f 195/3/3 181/3/3 190/3/3
f 196/2/3 185/2/3 181/2/3
f 196/3/3 181/3/3 195/3/3
f 197/1/3 194/1/3 193/1/3
f 197/1/3 193/1/3 191/1/3
f 197/1/3 191/1/3 185/1/3
f 198/1/3 194/1/3 197/1/3
f 199/1/3 194/1/3 198/1/3
f 201/2/3 185/2/3 196/2/3
f 201/2/3 196/2/3 195/2/3
f 202/1/3 197/1/3 185/1/3
f 202/2/3 185/2/3 201/2/3
f 203/4/3 198/4/3 197/4/3
f 203/1/3 197/1/3 202/1/3
f 204/1/3 200/1/3 199/1/3
f 204/4/3 198/4/3 203/4/3
f 204/1/3 199/1/3 198/1/3
f 205/1/3 200/1/3 204/1/3
f 206/1/3 200/1/3 205/1/3
f 207/1/3 200/1/3 206/1/3
f 209/1/3 203/1/3 202/1/3
f 209/1/3 202/1/3 201/1/3
f 209/1/3 204/1/3 203/1/3
f 209/4/3 206/4/3 205/4/3
f 209/1/3 205/1/3 204/1/3
f 210/1/3 208/1/3 207/1/3
f 210/4/3 206/4/3 209/4/3
f 210/1/3 207/1/3 206/1/3
f 211/1/3 208/1/3 210/1/3
f 213/1/3 210/1/3 209/1/3
f 213/1/3 212/1/3 211/1/3
f 213/1/3 211/1/3 210/1/3
f 215/1/3 214/1/3 213/1/3
f 217/1/3 209/1/3 201/1/3
f 217/1/3 216/1/3 215/1/3
f 217/1/3 215/1/3 213/1/3
f 217/1/3 213/1/3 209/1/3
f 218/1/3 216/1/3 217/1/3
f 219/1/3 216/1/3 218/1/3
f 220/1/3 216/1/3 219/1/3
f 221/1/3 216/1/3 220/1/3
f 223/1/3 217/1/3 201/1/3
f 223/4/3 218/4/3 217/4/3
f 224/1/3 219/1/3 218/1/3
f 224/4/3 218/4/3 223/4/3
f 225/4/3 220/4/3 219/4/3
f 225/1/3 219/1/3 224/1/3
f 226/1/3 222/1/3 221/1/3
f 226/4/3 220/4/3 225/4/3
f 226/1/3 221/1/3 220/1/3
f 227/1/3 222/1/3 226/1/3
f 229/1/3 225/1/3 224/1/3
f 229/1/3 228/1/3 227/1/3
f 229/1/3 227/1/3 226/1/3
f 229/1/3 226/1/3 225/1/3
f 229/1/3 224/1/3 223/1/3
f 230/1/3 228/1/3 229/1/3
f 231/1/3 228/1/3 230/1/3
f 232/1/3 228/1/3 231/1/3
f 233/1/3 228/1/3 232/1/3
f 235/1/3 229/1/3 223/1/3
f 235/4/3 230/4/3 229/4/3
f 236/1/3 231/1/3 230/1/3
f 236/4/3 230/4/3 235/4/3
f 237/4/3 232/4/3 231/4/3
f 237/1/3 231/1/3 236/1/3
f 238/1/3 234/1/3 233/1/3
f 238/4/3 232/4/3 237/4/3
f 238/1/3 233/1/3 232/1/3
f 239/1/3 223/1/3 201/1/3
f 239/1/3 237/1/3 236/1/3
f 239/1/3 238/1/3 237/1/3
f 239/1/3 235/1/3 223/1/3
f 239/1/3 236/1/3 235/1/3
f 240/1/3 238/1/3 239/1/3
f 241/1/3 234/1/3 238/1/3
f 241/1/3 238/1/3 240/1/3
f 242/1/3 234/1/3 241/1/3
f 243/4/3 240/4/3 239/4/3
f 243/1/3 239/1/3 201/1/3
f 244/1/3 241/1/3 240/1/3
f 244/4/3 240/4/3 243/4/3
f 245/1/3 241/1/3 244/1/3
f 246/1/3 241/1/3 245/1/3
f 247/1/3 241/1/3 246/1/3
f 248/1/3 241/1/3 247/1/3
f 249/1/3 241/1/3 248/1/3
f 250/1/3 241/1/3 249/1/3
f 251/1/3 244/1/3 243/1/3
f 251/1/3 245/1/3 244/1/3
f 251/4/3 246/4/3 245/4/3
f 252/1/3 247/1/3 246/1/3
f 252/4/3 246/4/3 251/4/3
f 253/4/3 248/4/3 247/4/3
f 253/1/3 247/1/3 252/1/3
f 254/1/3 249/1/3 248/1/3
f 254/4/3 248/4/3 253/4/3
f 255/1/3 249/1/3 254/1/3
f 256/1/3 249/1/3 255/1/3
f 257/1/3 253/1/3 252/1/3
f 257/1/3 252/1/3 251/1/3
f 257/1/3 255/1/3 254/1/3
f 257/1/3 254/1/3 253/1/3
f 258/1/3 255/1/3 257/1/3
f 259/1/3 243/1/3 201/1/3
f 259/1/3 251/1/3 243/1/3
f 259/1/3 257/1/3 251/1/3
f 260/1/3 257/1/3 259/1/3
f 261/1/3 257/1/3 260/1/3
f 262/1/3 257/1/3 261/1/3
f 263/1/3 257/1/3 262/1/3
f 264/1/3 257/1/3 263/1/3
f 265/1/3 259/1/3 201/1/3
f 265/4/3 260/4/3 259/4/3
f 266/1/3 261/1/3 260/1/3
f 266/4/3 260/4/3 265/4/3
f 267/4/3 262/4/3 261/4/3
f 267/1/3 261/1/3 266/1/3
f 268/1/3 263/1/3 262/1/3
f 268/4/3 262/4/3 267/4/3
f 269/1/3 263/1/3 268/1/3
f 270/1/3 263/1/3 269/1/3
f 271/1/3 263/1/3 270/1/3
f 272/1/3 263/1/3 271/1/3
f 273/2/3 201/2/3 195/2/3
f 273/1/3 267/1/3 266/1/3
f 273/1/3 265/1/3 201/1/3
f 273/1/3 266/1/3 265/1/3
f 273/1/3 269/1/3 268/1/3
f 273/1/3 268/1/3 267/1/3
f 274/1/3 269/1/3 273/1/3
f 275/4/3 270/4/3 269/4/3
f 275/1/3 269/1/3 274/1/3
f 276/1/3 271/1/3 270/1/3
f 276/4/3 270/4/3 275/4/3
f 277/1/3 271/1/3 276/1/3
f 278/1/3 271/1/3 277/1/3
f 279/3/3 195/3/3 189/3/3
f 279/2/3 274/2/3 273/2/3
f 279/2/3 273/2/3 195/2/3
f 280/2/3 274/2/3 279/2/3
f 281/1/3 275/1/3 274/1/3
f 281/1/3 277/1/3 276/1/3
f 281/1/3 276/1/3 275/1/3
f 282/1/3 277/1/3 281/1/3
f 283/1/3 281/1/3 274/1/3
f 284/1/3 281/1/3 283/1/3
f 285/3/3 280/3/3 279/3/3
f 285/3/3 279/3/3 189/3/3
f 286/3/3 280/3/3 285/3/3
f 287/1/3 283/1/3 274/1/3
f 288/1/3 283/1/3 287/1/3
f 289/1/3 283/1/3 288/1/3
f 290/1/3 283/1/3 289/1/3
f 291/2/3 274/2/3 280/2/3
f 291/1/3 287/1/3 274/1/3
f 292/1/3 287/1/3 291/1/3
f 293/4/3 288/4/3 287/4/3
f 293/1/3 287/1/3 292/1/3
f 294/1/3 289/1/3 288/1/3
f 294/4/3 288/4/3 293/4/3
f 295/1/3 289/1/3 294/1/3
f 296/1/3 289/1/3 295/1/3
f 297/3/3 280/3/3 286/3/3
f 297/2/3 292/2/3 291/2/3
f 297/2/3 291/2/3 280/2/3
f 298/2/3 292/2/3 297/2/3
f 299/1/3 293/1/3 292/1/3
f 299/1/3 295/1/3 294/1/3
f 299/1/3 294/1/3 293/1/3
f 300/1/3 295/1/3 299/1/3
f 301/3/3 298/3/3 297/3/3
f 301/3/3 297/3/3 286/3/3
f 302/3/3 298/3/3 301/3/3
f 303/2/3 292/2/3 298/2/3
f 303/1/3 299/1/3 292/1/3
f 304/1/3 299/1/3 303/1/3
f 305/1/3 299/1/3 304/1/3
f 306/1/3 299/1/3 305/1/3
f 307/1/3 305/1/3 304/1/3
f 308/1/3 305/1/3 307/1/3
f 309/3/3 298/3/3 302/3/3
f 310/2/3 303/2/3 298/2/3
f 310/3/3 298/3/3 309/3/3
f 310/2/3 304/2/3 303/2/3
f 311/2/3 304/2/3 310/2/3
f 312/1/3 307/1/3 304/1/3
f 312/2/3 304/2/3 311/2/3
f 313/1/3 307/1/3 312/1/3
f 314/3/3 311/3/3 310/3/3
f 314/2/3 312/2/3 311/2/3
f 315/2/3 312/2/3 314/2/3
f 316/3/3 314/3/3 310/3/3
f 316/3/3 315/3/3 314/3/3
f 317/3/3 315/3/3 316/3/3
f 318/3/3 315/3/3 317/3/3
f 319/3/3 315/3/3 318/3/3
f 320/3/4 321/3/4 323/3/4
f 323/3/4 321/3/4 324/3/4
f 322/3/4 323/3/4 324/3/4
f 324/3/4 321/3/4 325/3/4
f 322/3/4 324/3/4 327/3/4
f 324/2/4 325/2/4 328/2/4
f 326/3/4 327/3/4 330/3/4
f 327/3/4 324/3/4 330/3/4
f 324/2/4 328/2/4 331/2/4
f 330/3/4 324/3/4 331/3/4
f 328/1/4 329/1/4 332/1/4
f 326/3/4 330/3/4 335/3/4
f 331/2/4 328/2/4 336/2/4
f 330/2/4 331/2/4 336/2/4
f 332/1/4 333/1/4 337/1/4
f 336/2/4 328/2/4 337/2/4
f 328/1/4 332/1/4 337/1/4
f 337/1/4 333/1/4 338/1/4
f 334/3/4 335/3/4 340/3/4
f 335/3/4 330/3/4 340/3/4
f 330/2/4 336/2/4 341/2/4
f 340/3/4 330/3/4 341/3/4
f 338/1/4 339/1/4 342/1/4
f 337/1/4 338/1/4 342/1/4
f 336/1/4 337/1/4 342/1/4
f 342/1/4 339/1/4 343/1/4
f 343/1/4 339/1/4 344/1/4
f 341/2/4 336/2/4 346/2/4
f 340/2/4 341/2/4 346/2/4
f 336/1/4 342/1/4 347/1/4
f 346/2/4 336/2/4 347/2/4
f 342/4/4 343/4/4 348/4/4
f 347/1/4 342/1/4 348/1/4
f 344/1/4 345/1/4 349/1/4
f 348/4/4 343/4/4 349/4/4
f 343/1/4 344/1/4 349/1/4
f 349/1/4 345/1/4 350/1/4
f 334/3/4 340/3/4 353/3/4
f 350/1/4 351/1/4 354/1/4
f 347/1/4 348/1/4 354/1/4
f 346/1/4 347/1/4 354/1/4
f 348/1/4 349/1/4 354/1/4
f 349/1/4 350/1/4 354/1/4
f 354/1/4 355/1/4 356/1/4
f 352/3/4 353/3/4 358/3/4
f 353/3/4 340/3/4 358/3/4
f 340/2/4 346/2/4 359/2/4
f 358/3/4 340/3/4 359/3/4
f 356/1/4 357/1/4 360/1/4
f 354/1/4 356/1/4 360/1/4
f 346/1/4 354/1/4 360/1/4
f 360/1/4 357/1/4 361/1/4
f 361/1/4 357/1/4 362/1/4
f 359/2/4 346/2/4 364/2/4
f 358/2/4 359/2/4 364/2/4
f 346/1/4 360/1/4 365/1/4
f 364/2/4 346/2/4 365/2/4
f 360/4/4 361/4/4 366/4/4
f 365/1/4 360/1/4 366/1/4
f 362/1/4 363/1/4 367/1/4
f 366/4/4 361/4/4 367/4/4
f 361/1/4 362/1/4 367/1/4
f 367/1/4 363/1/4 368/1/4
f 365/1/4 366/1/4 370/1/4
f 368/1/4 369/1/4 370/1/4
f 367/1/4 368/1/4 370/1/4
f 366/1/4 367/1/4 370/1/4
f 364/1/4 365/1/4 370/1/4
f 370/1/4 369/1/4 371/1/4
f 371/1/4 369/1/4 372/1/4
f 364/1/4 370/1/4 374/1/4
f 370/4/4 371/4/4 374/4/4
f 372/1/4 373/1/4 375/1/4
f 374/4/4 371/4/4 375/4/4
f 371/1/4 372/1/4 375/1/4
f 375/1/4 373/1/4 376/1/4
f 376/1/4 373/1/4 377/1/4
f 377/1/4 373/1/4 378/1/4
f 374/1/4 375/1/4 380/1/4
f 375/1/4 376/1/4 380/1/4
f 376/4/4 377/4/4 380/4/4
f 378/1/4 379/1/4 381/1/4
f 380/4/4 377/4/4 381/4/4
f 377/1/4 378/1/4 381/1/4
f 381/1/4 379/1/4 382/1/4
f 374/1/4 380/1/4 384/1/4
f 382/1/4 383/1/4 384/1/4
f 381/1/4 382/1/4 384/1/4
f 380/1/4 381/1/4 384/1/4
f 384/1/4 383/1/4 385/1/4
f 385/1/4 383/1/4 386/1/4
f 374/1/4 384/1/4 388/1/4
f 388/1/4 384/1/4 389/1/4
f 384/4/4 385/4/4 390/4/4
f 389/1/4 384/1/4 390/1/4
f 386/1/4 387/1/4 391/1/4
f 390/4/4 385/4/4 391/4/4
f 385/1/4 386/1/4 391/1/4
f 391/1/4 387/1/4 392/1/4
f 392/1/4 387/1/4 393/1/4
f 393/1/4 387/1/4 394/1/4
f 388/4/4 389/4/4 396/4/4
f 374/1/4 388/1/4 396/1/4
f 389/1/4 390/1/4 397/1/4
f 396/4/4 389/4/4 397/4/4
f 390/1/4 391/1/4 397/1/4
f 391/1/4 392/1/4 397/1/4
f 392/4/4 393/4/4 398/4/4
f 397/1/4 392/1/4 398/1/4
f 394/1/4 395/1/4 399/1/4
f 398/4/4 393/4/4 399/4/4
f 393/1/4 394/1/4 399/1/4
f 399/1/4 395/1/4 400/1/4
f 397/1/4 398/1/4 402/1/4
f 400/1/4 401/1/4 402/1/4
f 399/1/4 400/1/4 402/1/4
f 398/1/4 399/1/4 402/1/4
f 396/1/4 397/1/4 402/1/4
f 402/1/4 401/1/4 403/1/4
f 403/1/4 401/1/4 404/1/4
f 404/1/4 401/1/4 405/1/4
f 396/1/4 402/1/4 406/1/4
f 402/4/4 403/4/4 406/4/4
f 403/1/4 404/1/4 407/1/4
f 406/4/4 403/4/4 407/4/4
f 404/4/4 405/4/4 408/4/4
f 407/1/4 404/1/4 408/1/4
f 405/1/4 401/1/4 409/1/4
f 408/4/4 405/4/4 409/4/4
f 409/1/4 401/1/4 410/1/4
f 410/1/4 401/1/4 411/1/4
f 407/1/4 408/1/4 412/1/4
f 406/1/4 407/1/4 412/1/4
f 409/1/4 410/1/4 412/1/4
f 408/1/4 409/1/4 412/1/4
f 396/1/4 406/1/4 412/1/4
f 412/1/4 410/1/4 413/1/4
f 413/1/4 410/1/4 414/1/4
f 414/1/4 410/1/4 415/1/4
f 396/1/4 412/1/4 416/1/4
f 412/4/4 413/4/4 416/4/4
f 413/1/4 414/1/4 417/1/4
f 416/4/4 413/4/4 417/4/4
f 417/1/4 414/1/4 418/1/4
f 418/1/4 414/1/4 419/1/4
f 419/1/4 414/1/4 420/1/4
f 420/1/4 414/1/4 421/1/4
f 364/1/4 374/1/4 422/1/4
f 374/1/4 396/1/4 422/1/4
f 396/1/4 416/1/4 422/1/4
f 416/1/4 417/1/4 422/1/4
f 417/1/4 418/1/4 422/1/4
f 422/1/4 418/1/4 423/1/4
f 418/4/4 419/4/4 424/4/4
f 423/1/4 418/1/4 424/1/4
f 419/1/4 420/1/4 425/1/4
f 424/4/4 419/4/4 425/4/4
f 425/1/4 420/1/4 426/1/4
f 426/1/4 420/1/4 427/1/4
f 422/4/4 423/4/4 428/4/4
f 364/1/4 422/1/4 428/1/4
f 423/1/4 424/1/4 429/1/4
f 428/4/4 423/4/4 429/4/4
f 425/1/4 426/1/4 429/1/4
f 424/1/4 425/1/4 429/1/4
f 429/1/4 426/1/4 430/1/4
f 430/1/4 426/1/4 431/1/4
f 431/1/4 426/1/4 432/1/4
f 432/1/4 426/1/4 433/1/4
f 428/1/4 429/1/4 434/1/4
f 429/1/4 430/1/4 434/1/4
f 430/4/4 431/4/4 434/4/4
f 431/1/4 432/1/4 435/1/4
f 434/4/4 431/4/4 435/4/4
f 435/1/4 432/1/4 436/1/4
f 436/1/4 432/1/4 437/1/4
f 358/2/4 364/2/4 438/2/4
f 364/1/4 428/1/4 438/1/4
f 435/1/4 436/1/4 438/1/4
f 434/1/4 435/1/4 438/1/4
f 428/1/4 434/1/4 438/1/4
f 438/1/4 436/1/4 439/1/4
f 439/1/4 436/1/4 440/1/4
f 440/1/4 436/1/4 441/1/4
f 352/3/4 358/3/4 442/3/4
f 358/2/4 438/2/4 442/2/4
f 438/2/4 439/2/4 442/2/4
f 442/2/4 439/2/4 443/2/4
f 439/1/4 440/1/4 444/1/4
f 444/1/4 440/1/4 445/1/4
f 439/1/4 444/1/4 446/1/4
f 446/1/4 444/1/4 447/1/4
f 447/1/4 444/1/4 448/1/4
f 448/1/4 444/1/4 449/1/4
f 352/3/4 442/3/4 450/3/4
f 442/3/4 443/3/4 450/3/4
f 450/3/4 443/3/4 451/3/4
f 439/1/4 446/1/4 452/1/4
f 446/4/4 447/4/4 452/4/4
f 447/1/4 448/1/4 453/1/4
f 452/4/4 447/4/4 453/4/4
f 453/1/4 448/1/4 454/1/4
f 454/1/4 448/1/4 455/1/4
f 443/2/4 439/2/4 456/2/4
f 439/1/4 452/1/4 456/1/4
f 453/1/4 454/1/4 456/1/4
f 452/1/4 453/1/4 456/1/4
f 456/1/4 454/1/4 457/1/4
f 457/1/4 454/1/4 458/1/4
f 458/1/4 454/1/4 459/1/4
f 451/3/4 443/3/4 460/3/4
f 443/2/4 456/2/4 460/2/4
f 456/2/4 457/2/4 460/2/4
f 460/2/4 457/2/4 461/2/4
f 457/1/4 458/1/4 462/1/4
f 462/1/4 458/1/4 463/1/4
f 451/3/4 460/3/4 464/3/4
f 460/3/4 461/3/4 464/3/4
f 464/3/4 461/3/4 465/3/4
f 461/2/4 457/2/4 466/2/4
f 457/1/4 462/1/4 466/1/4
f 466/1/4 462/1/4 467/1/4
f 467/1/4 462/1/4 468/1/4
f 468/1/4 462/1/4 469/1/4
f 465/3/4 461/3/4 470/3/4
f 461/2/4 466/2/4 470/2/4
f 466/2/4 467/2/4 470/2/4
f 470/2/4 467/2/4 471/2/4
f 467/1/4 468/1/4 472/1/4
f 472/1/4 468/1/4 473/1/4
f 465/3/4 470/3/4 474/3/4
f 470/3/4 471/3/4 474/3/4
f 474/3/4 471/3/4 475/3/4
f 471/2/4 467/2/4 476/2/4
f 467/1/4 472/1/4 476/1/4
f 476/1/4 472/1/4 477/1/4
f 475/3/4 471/3/4 478/3/4
f 471/2/4 476/2/4 478/2/4
f 478/2/4 476/2/4 479/2/4
f 475/3/4 478/3/4 480/3/4
f 478/3/4 479/3/4 480/3/4
f 480/3/4 479/3/4 481/3/4
f 481/3/4 479/3/4 482/3/4
f 482/3/4 479/3/4 483/3/4
f 486/3/5 485/3/5 484/3/5
f 487/3/5 485/3/5 486/3/5
f 492/3/5 489/3/5 488/3/5
f 493/3/5 489/3/5 492/3/5
f 494/3/5 491/3/5 490/3/5
f 495/3/5 491/3/5 494/3/5
f 500/3/5 497/3/5 496/3/5
f 501/3/5 497/3/5 500/3/5
f 502/3/5 499/3/5 498/3/5
f 503/3/5 499/3/5 502/3/5
f 508/3/5 505/3/5 504/3/5
f 509/3/5 505/3/5 508/3/5
f 510/3/5 507/3/5 506/3/5
f 511/3/5 507/3/5 510/3/5
f 516/3/5 513/3/5 512/3/5
f 517/3/5 513/3/5 516/3/5
f 518/3/5 515/3/5 514/3/5
f 519/3/5 515/3/5 518/3/5
f 520/3/6 521/3/6 526/3/6
f 521/2/6 522/2/6 527/2/6
f 526/3/6 521/3/6 527/3/6
f 527/2/6 522/2/6 528/2/6
f 523/2/6 524/2/6 529/2/6
f 524/3/6 525/3/6 530/3/6
f 529/2/6 524/2/6 530/2/6
f 530/3/6 525/3/6 531/3/6
f 532/1/6 533/1/6 536/1/6
f 536/1/6 533/1/6 537/1/6
f 534/1/6 535/1/6 538/1/6
f 538/1/6 535/1/6 539/1/6
f 540/1/6 541/1/6 544/1/6
f 544/1/6 541/1/6 545/1/6
f 542/1/6 543/1/6 546/1/6
f 546/1/6 543/1/6 547/1/6
f 548/1/6 549/1/6 552/1/6
f 552/1/6 549/1/6 553/1/6
f 550/1/6 551/1/6 554/1/6
f 554/1/6 551/1/6 555/1/6
f 556/1/6 557/1/6 560/1/6
f 560/1/6 557/1/6 561/1/6
f 558/1/6 559/1/6 562/1/6
f 562/1/6 559/1/6 563/1/6
f 564/1/6 565/1/6 568/1/6
f 568/1/6 565/1/6 569/1/6
f 566/1/6 567/1/6 570/1/6
f 570/1/6 567/1/6 571/1/6
f 572/1/6 573/1/6 576/1/6
f 576/1/6 573/1/6 577/1/6
f 574/1/6 575/1/6 578/1/6
f 578/1/6 575/1/6 579/1/6
f 580/1/6 581/1/6 584/1/6
f 584/1/6 581/1/6 585/1/6
f 582/1/6 583/1/6 586/1/6
f 586/1/6 583/1/6 587/1/6
f 588/1/6 589/1/6 592/1/6
f 592/1/6 589/1/6 593/1/6
f 590/1/6 591/1/6 594/1/6
f 594/1/6 591/1/6 595/1/6
f 596/1/6 597/1/6 600/1/6
f 600/1/6 597/1/6 601/1/6
f 598/1/6 599/1/6 602/1/6
f 602/1/6 599/1/6 603/1/6
f 604/1/6 605/1/6 608/1/6
f 608/1/6 605/1/6 609/1/6
f 606/1/6 607/1/6 610/1/6
f 610/1/6 607/1/6 611/1/6
f 612/1/6 613/1/6 616/1/6
f 616/1/6 613/1/6 617/1/6
f 614/1/6 615/1/6 618/1/6
f 618/1/6 615/1/6 619/1/6
f 620/1/6 621/1/6 624/1/6
f 624/1/6 621/1/6 625/1/6
f 622/1/6 623/1/6 626/1/6
f 626/1/6 623/1/6 627/1/6
f 628/1/6 629/1/6 632/1/6
f 632/1/6 629/1/6 633/1/6
f 630/1/6 631/1/6 634/1/6
f 634/1/6 631/1/6 635/1/6
f 636/1/6 637/1/6 640/1/6
f 640/1/6 637/1/6 641/1/6
f 638/1/6 639/1/6 642/1/6
f 642/1/6 639/1/6 643/1/6
f 644/1/6 645/1/6 646/1/6
f 646/1/6 645/1/6 647/1/6
